<svg width="44" height="44" viewBox="0 0 44 44" fill="none" xmlns="http://www.w3.org/2000/svg">
<path d="M17.5 2.59808C20.2846 0.990381 23.7154 0.990381 26.5 2.59808L36.5526 8.40192C39.3372 10.0096 41.0526 12.9808 41.0526 16.1962V27.8038C41.0526 31.0192 39.3372 33.9904 36.5526 35.5981L26.5 41.4019C23.7154 43.0096 20.2846 43.0096 17.5 41.4019L7.44744 35.5981C4.66283 33.9904 2.94744 31.0192 2.94744 27.8038V16.1962C2.94744 12.9808 4.66283 10.0096 7.44744 8.40192L17.5 2.59808Z" fill="#EFF6FF"/>
<path d="M17.75 3.03109C20.3799 1.51271 23.6201 1.51271 26.25 3.03109L36.3026 8.83494C38.9325 10.3533 40.5526 13.1594 40.5526 16.1962V27.8038C40.5526 30.8406 38.9325 33.6467 36.3026 35.1651L26.25 40.9689C23.6201 42.4873 20.3799 42.4873 17.75 40.9689L7.69744 35.1651C5.06753 33.6467 3.44744 30.8406 3.44744 27.8038V16.1962C3.44744 13.1594 5.06753 10.3533 7.69744 8.83494L17.75 3.03109Z" stroke="#1B84FF" stroke-opacity="0.2"/>
<path opacity="0.1" fill-rule="evenodd" clip-rule="evenodd" d="M19.9158 30.3215C20.5493 30.6871 21.2684 30.8781 21.9999 30.875C22.7311 30.8769 23.45 30.686 24.0839 30.3215L28.157 27.9693C28.7918 27.6028 29.3192 27.0761 29.6865 26.4417C30.0537 25.8073 30.248 25.0876 30.2497 24.3546V19.6503C30.248 18.9173 30.0537 18.1976 29.6865 17.5632C29.3192 16.9289 28.7918 16.4021 28.157 16.0356L24.0839 13.6834C23.4503 13.3176 22.7315 13.125 21.9999 13.125C21.2682 13.125 20.5494 13.3176 19.9158 13.6834L15.8427 16.0356C15.2079 16.4021 14.6805 16.9289 14.3132 17.5632C13.946 18.1976 13.7518 18.9173 13.75 19.6503V24.3546C13.7518 25.0876 13.946 25.8073 14.3132 26.4417C14.6805 27.0761 15.2079 27.6028 15.8427 27.9693L19.9158 30.3215ZM20.0462 24.7052C20.6184 25.0875 21.2911 25.2916 21.9792 25.2916C22.9019 25.2916 23.7868 24.925 24.4393 24.2726C25.0918 23.6201 25.4583 22.7352 25.4583 21.8124C25.4583 21.1243 25.2543 20.4516 24.872 19.8795C24.4897 19.3074 23.9463 18.8614 23.3106 18.5981C22.6748 18.3348 21.9753 18.2659 21.3004 18.4001C20.6255 18.5343 20.0056 18.8657 19.519 19.3523C19.0325 19.8388 18.7011 20.4588 18.5668 21.1337C18.4326 21.8086 18.5015 22.5081 18.7648 23.1438C19.0282 23.7796 19.4741 24.3229 20.0462 24.7052Z" fill="#1B84FF"/>
<path fill-rule="evenodd" clip-rule="evenodd" d="M19.8902 30.3997C20.5296 30.7688 21.2555 30.9616 21.9938 30.9584C22.732 30.9603 23.4576 30.7676 24.0975 30.3997L28.2088 28.0255C28.8495 27.6555 29.3819 27.1238 29.7526 26.4835C30.1233 25.8432 30.3194 25.1167 30.3212 24.3768V19.6283C30.3194 18.8884 30.1233 18.162 29.7526 17.5217C29.3819 16.8813 28.8495 16.3496 28.2088 15.9797L24.0975 13.6054C23.4579 13.2362 22.7324 13.0417 21.9938 13.0417C21.2553 13.0417 20.5298 13.2362 19.8902 13.6054L15.7789 15.9797C15.1381 16.3496 14.6057 16.8813 14.235 17.5217C13.8643 18.162 13.6683 18.8884 13.6665 19.6283V24.3768C13.6683 25.1167 13.8643 25.8432 14.235 26.4835C14.6057 27.1238 15.1381 27.6555 15.7789 28.0255L19.8902 30.3997ZM20.5448 14.7576C20.9847 14.502 21.4851 14.3693 21.9938 14.3736V14.3561C22.5025 14.3519 23.003 14.4845 23.4428 14.7402L27.5541 17.1144C27.9898 17.3731 28.3503 17.7412 28.5999 18.1821C28.8495 18.6231 28.9794 19.1216 28.9769 19.6283V24.3768C28.9794 24.8835 28.8495 25.3821 28.5999 25.823C28.3503 26.264 27.9898 26.6321 27.5541 26.8907L23.4428 29.265C23.002 29.5185 22.5024 29.6519 21.9938 29.6519C21.4853 29.6519 20.9857 29.5185 20.5448 29.265L16.4335 26.8907C15.9979 26.6321 15.6373 26.264 15.3878 25.823C15.1382 25.3821 15.0082 24.8835 15.0107 24.3768V19.6283C15.0082 19.1216 15.1382 18.6231 15.3878 18.1821C15.6373 17.7412 15.9979 17.3731 16.4335 17.1144L20.5448 14.7576ZM20.016 24.7726C20.6016 25.164 21.2902 25.3728 21.9945 25.3728C22.9391 25.3728 23.8449 24.9976 24.5128 24.3297C25.1807 23.6618 25.5559 22.756 25.5559 21.8115C25.5559 21.1071 25.347 20.4185 24.9557 19.8329C24.5644 19.2472 24.0082 18.7907 23.3574 18.5212C22.7067 18.2516 21.9906 18.1811 21.2998 18.3185C20.6089 18.4559 19.9743 18.7951 19.4763 19.2932C18.9782 19.7913 18.639 20.4258 18.5016 21.1167C18.3642 21.8075 18.4347 22.5236 18.7043 23.1743C18.9738 23.8251 19.4303 24.3813 20.016 24.7726ZM20.7434 19.9389C21.1137 19.6915 21.5491 19.5594 21.9945 19.5594C22.5911 19.5617 23.1626 19.7997 23.5844 20.2216C24.0063 20.6434 24.2443 21.2149 24.2466 21.8115C24.2466 22.2569 24.1145 22.6923 23.8671 23.0626C23.6196 23.433 23.2679 23.7216 22.8564 23.8921C22.4449 24.0625 21.992 24.1071 21.5552 24.0202C21.1183 23.9333 20.7171 23.7188 20.4021 23.4039C20.0872 23.0889 19.8727 22.6877 19.7858 22.2508C19.6989 21.814 19.7435 21.3611 19.9139 20.9496C20.0844 20.5381 20.373 20.1864 20.7434 19.9389Z" fill="#1B84FF"/>
</svg>
