<svg width="18" height="18" viewBox="0 0 18 18" fill="none" xmlns="http://www.w3.org/2000/svg">
<g clip-path="url(#clip0_521_6879)">
<path opacity="0.1" d="M12.5171 1.01245H5.48331C4.29763 1.01245 3.16051 1.48346 2.32211 2.32186C1.48371 3.16027 1.0127 4.29739 1.0127 5.48307V12.5168C1.0127 13.7025 1.48371 14.8396 2.32211 15.678C3.16051 16.5164 4.29763 16.9875 5.48331 16.9875H12.5171C13.7028 16.9875 14.8399 16.5164 15.6783 15.678C16.5167 14.8396 16.9877 13.7025 16.9877 12.5168V5.50542C16.9906 4.91645 16.8772 4.33271 16.6538 3.78772C16.4305 3.24274 16.1016 2.74726 15.6862 2.32976C15.2708 1.91225 14.7769 1.58095 14.2331 1.35488C13.6892 1.12882 13.1061 1.01244 12.5171 1.01245Z" fill="#78829D"/>
<path d="M12.5499 0.9375H5.45009C4.25328 0.9375 3.10548 1.41293 2.25921 2.25921C1.41293 3.10548 0.9375 4.25328 0.9375 5.45009V12.5499C0.9375 13.7467 1.41293 14.8945 2.25921 15.7408C3.10548 16.5871 4.25328 17.0625 5.45009 17.0625H12.5499C13.7467 17.0625 14.8945 16.5871 15.7408 15.7408C16.5871 14.8945 17.0625 13.7467 17.0625 12.5499V5.47266C17.0655 4.87816 16.9509 4.28893 16.7255 3.73883C16.5 3.18873 16.1681 2.6886 15.7488 2.26718C15.3295 1.84575 14.831 1.51133 14.282 1.28315C13.7331 1.05496 13.1444 0.937493 12.5499 0.9375ZM12.5499 2.06565C12.7797 2.06507 13.009 2.08775 13.2343 2.13334L13.4825 2.20855C13.615 2.24434 13.7455 2.28702 13.8736 2.3364C13.9702 2.37906 14.0633 2.42936 14.1519 2.48682C14.2497 2.53947 14.3549 2.5846 14.4527 2.64476L14.716 2.86287C14.7912 2.93056 14.8814 2.99073 14.9566 3.06594C15.0318 3.14115 15.0995 3.23892 15.1747 3.32917C15.2439 3.40344 15.3092 3.48126 15.3703 3.56232C15.4304 3.6601 15.4756 3.75787 15.5282 3.85564C15.5809 3.95342 15.641 4.04367 15.6862 4.14144C15.7313 4.23921 15.7463 4.34451 15.7764 4.44228C15.8194 4.55249 15.8546 4.66558 15.8817 4.78073C15.8817 4.8785 15.8817 4.98379 15.9193 5.08909C15.9397 5.21101 15.9522 5.3341 15.9569 5.45761H2.04309C2.03568 5.33488 2.03568 5.21182 2.04309 5.08909C2.04309 4.99131 2.04309 4.8785 2.04309 4.78073C2.04309 4.68295 2.11077 4.56262 2.14838 4.45732C2.17408 4.35002 2.20674 4.2445 2.24615 4.14144C2.28676 4.05632 2.33195 3.97347 2.38153 3.89325C2.4417 3.78043 2.49434 3.66762 2.56203 3.56232L2.71245 3.38182C2.79415 3.26923 2.88203 3.16127 2.97569 3.05842L3.20884 2.93056C3.31629 2.82912 3.42928 2.73371 3.54728 2.64476L3.73531 2.53947C3.85915 2.46445 3.98722 2.39665 4.11888 2.3364C4.21665 2.29128 4.31442 2.27624 4.4122 2.23863C4.50997 2.20103 4.63783 2.1559 4.75816 2.13334C4.98343 2.08775 5.21274 2.06507 5.44257 2.06565H12.5499ZM12.5499 15.9795H5.45009C4.5465 15.9795 3.67991 15.6205 3.04097 14.9816C2.40204 14.3426 2.04309 13.4761 2.04309 12.5725V6.55568H15.9569V12.5725C15.9569 13.0199 15.8688 13.4629 15.6976 13.8763C15.5264 14.2896 15.2754 14.6652 14.959 14.9816C14.6427 15.298 14.2671 15.5489 13.8537 15.7201C13.4404 15.8914 12.9973 15.9795 12.5499 15.9795ZM6.69106 13.3547C6.54214 13.3514 6.39988 13.2924 6.29244 13.1892L4.78825 11.685C4.73324 11.6327 4.68952 11.5697 4.65977 11.4998C4.63002 11.43 4.61487 11.3548 4.61526 11.2789C4.62154 11.1269 4.68305 10.9825 4.78825 10.8727L6.29244 9.4287C6.34151 9.36139 6.40487 9.30578 6.47797 9.26586C6.55108 9.22595 6.63212 9.20272 6.71527 9.19785C6.79842 9.19298 6.88162 9.20658 6.95889 9.23768C7.03616 9.26878 7.10558 9.3166 7.16217 9.37772C7.21876 9.43884 7.26111 9.51173 7.28619 9.59116C7.31126 9.67059 7.31843 9.75459 7.30718 9.83712C7.29594 9.91965 7.26656 9.99866 7.22114 10.0685C7.17573 10.1383 7.11542 10.1972 7.04454 10.241L5.9916 11.2789L7.08967 12.3544C7.1953 12.4601 7.25463 12.6035 7.25463 12.753C7.25463 12.9025 7.1953 13.0458 7.08967 13.1516C6.98884 13.2693 6.84553 13.3423 6.69106 13.3547ZM11.3089 13.3547C11.1562 13.3521 11.0105 13.29 10.9028 13.1817C10.7972 13.0759 10.7378 12.9325 10.7378 12.7831C10.7378 12.6336 10.7972 12.4902 10.9028 12.3844L12.0084 11.2789L10.9179 10.2334C10.8408 10.1278 10.8029 9.99868 10.8106 9.86818C10.8182 9.73767 10.871 9.61387 10.9598 9.51794C11.0486 9.42202 11.168 9.35992 11.2975 9.34227C11.4271 9.32462 11.5587 9.35251 11.67 9.42117L13.1741 10.8652C13.2793 10.975 13.3409 11.1194 13.3471 11.2713C13.3475 11.3473 13.3324 11.4224 13.3026 11.4923C13.2729 11.5621 13.2292 11.6252 13.1741 11.6775L11.67 13.1817C11.5732 13.2794 11.4457 13.3405 11.3089 13.3547Z" fill="#78829D"/>
</g>
<defs>
<clipPath id="clip0_521_6879">
<rect width="18" height="18" fill="white"/>
</clipPath>
</defs>
</svg>
