<svg width="44" height="44" viewBox="0 0 44 44" fill="none" xmlns="http://www.w3.org/2000/svg">
<path d="M17.6 2.54034C20.3227 0.968373 23.6773 0.968373 26.4 2.54034L36.6526 8.45966C39.3753 10.0316 41.0526 12.9367 41.0526 16.0807V27.9193C41.0526 31.0633 39.3753 33.9684 36.6526 35.5403L26.4 41.4597C23.6773 43.0316 20.3227 43.0316 17.6 41.4597L7.34744 35.5403C4.62471 33.9684 2.94744 31.0633 2.94744 27.9193V16.0807C2.94744 12.9367 4.62471 10.0316 7.34744 8.45966L17.6 2.54034Z" fill="white"/>
<path d="M17.9667 3.17543C20.4625 1.73446 23.5375 1.73446 26.0333 3.17543L36.2859 9.09474C38.7817 10.5357 40.3192 13.1987 40.3192 16.0807V27.9193C40.3192 30.8013 38.7817 33.4643 36.2859 34.9053L26.0333 40.8246C23.5375 42.2655 20.4625 42.2655 17.9667 40.8246L7.71411 34.9053C5.21827 33.4643 3.68077 30.8013 3.68077 27.9193V16.0807C3.68077 13.1987 5.21827 10.5357 7.71411 9.09474L17.9667 3.17543Z" stroke="#1C64FE" stroke-opacity="0.2" stroke-width="1.46667"/>
<path opacity="0.1" fill-rule="evenodd" clip-rule="evenodd" d="M28.5686 14.1607C28.8459 14.2463 29.0984 14.3975 29.3049 14.6014C29.5112 14.7975 29.666 15.0414 29.7556 15.3115C29.8452 15.5816 29.8669 15.8697 29.8187 16.1502L29.3489 18.5504C29.058 20.0294 28.3261 21.3856 27.2496 22.4407C26.6758 22.9584 26.0677 23.4366 25.4293 23.8721C25.9651 26.6246 22.0014 29.6121 21.8252 29.7442C21.7306 29.8107 21.6179 29.8466 21.5023 29.847C21.4292 29.8459 21.3569 29.8309 21.2894 29.8029C21.204 29.7661 21.1298 29.7073 21.0744 29.6325C21.0189 29.5577 20.9842 29.4697 20.9738 29.3772L20.7022 26.61C20.4492 26.6906 20.179 26.7011 19.9205 26.6404C19.662 26.5796 19.4248 26.4499 19.2341 26.265L17.7147 24.841C17.5585 24.6929 17.4367 24.5122 17.358 24.3118C17.2794 24.1113 17.2458 23.8961 17.2596 23.6812H14.6245C14.53 23.6819 14.4369 23.6578 14.3545 23.6115C14.2721 23.5651 14.2033 23.4981 14.1547 23.417C14.1061 23.3374 14.0803 23.246 14.0803 23.1527C14.0803 23.0595 14.1061 22.968 14.1547 22.8885C14.2648 22.6756 16.9073 18.5357 19.7626 18.7926C20.2281 18.0478 20.7613 17.3475 21.3555 16.7007C22.3869 15.6759 23.6707 14.9416 25.0769 14.572L27.7121 14.1096C27.9975 14.0576 28.2914 14.0751 28.5686 14.1607ZM24.9856 16.8668C24.6194 16.8755 24.2639 16.9923 23.964 17.2026C23.6641 17.4128 23.433 17.7072 23.3 18.0485C23.167 18.3898 23.138 18.7628 23.2166 19.1206C23.2952 19.4783 23.4778 19.8049 23.7416 20.059C24.1002 20.3806 24.5697 20.5502 25.0511 20.532C25.5324 20.5137 25.9877 20.3091 26.321 19.9614C26.6542 19.6136 26.8392 19.1499 26.8369 18.6683C26.8346 18.1866 26.6451 17.7248 26.3085 17.3802C25.951 17.0437 25.4765 16.8595 24.9856 16.8668Z" fill="#FF6F1E"/>
<path d="M25.0378 16.6489C24.6237 16.6587 24.2218 16.7908 23.8826 17.0285C23.5434 17.2663 23.2822 17.5991 23.1318 17.985C22.9814 18.371 22.9486 18.7928 23.0374 19.1974C23.1263 19.6019 23.3329 19.9712 23.6312 20.2586C24.0366 20.6222 24.5676 20.8139 25.1118 20.7933C25.6561 20.7727 26.171 20.5414 26.5478 20.1481C26.9246 19.7549 27.1338 19.2306 27.1312 18.6859C27.1286 18.1413 26.9144 17.619 26.5338 17.2294C26.1295 16.8488 25.593 16.6406 25.0378 16.6489ZM25.7821 19.425C25.6965 19.5305 25.59 19.6171 25.4693 19.6793C25.3485 19.7415 25.2162 19.7781 25.0806 19.7866C24.9451 19.7951 24.8092 19.7754 24.6817 19.7287C24.5541 19.6821 24.4376 19.6095 24.3395 19.5155C24.2414 19.4216 24.1639 19.3083 24.1118 19.1829C24.0597 19.0574 24.0342 18.9225 24.0369 18.7867C24.0395 18.6509 24.0703 18.5172 24.1273 18.3939C24.1843 18.2706 24.2663 18.1604 24.368 18.0704C24.4558 17.9762 24.5617 17.9007 24.6793 17.8483C24.797 17.7958 24.9239 17.7676 25.0527 17.7653C25.3058 17.765 25.5489 17.8638 25.73 18.0407C25.8231 18.1289 25.8975 18.235 25.9487 18.3526C25.9999 18.4703 26.0267 18.5971 26.0277 18.7254C26.0424 18.9807 25.9569 19.2317 25.7895 19.425H25.7821ZM29.4438 14.5352C29.2345 14.3284 28.9784 14.1751 28.6973 14.0883C28.4162 14.0015 28.1183 13.9838 27.8288 14.0365L25.1569 14.5054C23.731 14.8801 22.4293 15.6247 21.3835 16.6638C20.781 17.3196 20.2404 18.0297 19.7684 18.7849C16.8733 18.5244 14.1939 22.7221 14.0823 22.9379C14.0329 23.0186 14.0068 23.1113 14.0068 23.2058C14.0068 23.3004 14.0329 23.3931 14.0823 23.4738C14.1315 23.556 14.2013 23.624 14.2849 23.671C14.3684 23.718 14.4628 23.7424 14.5586 23.7417H17.2305C17.2165 23.9596 17.2505 24.1778 17.3303 24.381C17.41 24.5843 17.5335 24.7675 17.6919 24.9176L19.2326 26.3615C19.4258 26.549 19.6663 26.6805 19.9285 26.7421C20.1906 26.8037 20.4645 26.7931 20.7211 26.7113L20.9965 29.5172C21.0071 29.6109 21.0423 29.7002 21.0985 29.776C21.1547 29.8518 21.2299 29.9114 21.3165 29.9488C21.385 29.9772 21.4582 29.9924 21.5323 29.9935C21.6496 29.9931 21.7639 29.9567 21.8598 29.8893C22.0384 29.7553 26.0574 26.7262 25.5141 23.9352C26.1614 23.4937 26.7781 23.0088 27.3599 22.4839C28.4514 21.4141 29.1935 20.0389 29.4885 18.5393L29.9648 16.1056C30.0137 15.8212 29.9917 15.5291 29.9008 15.2552C29.81 14.9813 29.653 14.734 29.4438 14.5352ZM17.5356 22.7221H15.5634C16.3895 21.5982 17.7366 20.1692 19.0242 19.8715L18.466 20.9656C18.1311 21.6057 17.8259 22.1936 17.5952 22.67L17.5356 22.7221ZM22.0012 28.3933L21.8077 26.3987L24.5094 24.7316C24.3159 26.034 22.9985 27.4853 22.0012 28.3933ZM28.9303 15.8897L28.454 18.3458C28.1948 19.6184 27.5656 20.7861 26.6454 21.7024C24.7606 23.2646 22.7029 24.6055 20.5127 25.6991C20.4275 25.7419 20.3313 25.7577 20.2369 25.7444C20.1425 25.7311 20.0543 25.6893 19.9843 25.6247L18.4436 24.1362C18.3756 24.0716 18.3297 23.9872 18.3123 23.895C18.2949 23.8028 18.307 23.7075 18.3469 23.6226L18.399 23.511C18.4098 23.4967 18.4197 23.4818 18.4288 23.4663L19.4633 21.4419C20.2057 19.9886 21.123 18.6314 22.1947 17.4006C23.0867 16.5171 24.1916 15.8787 25.4025 15.5474L28.0521 15.0785C28.1682 15.0583 28.2875 15.066 28.4 15.101C28.5126 15.1359 28.6153 15.1971 28.6996 15.2794C28.7818 15.3562 28.8438 15.4521 28.8801 15.5585C28.9165 15.665 28.926 15.7787 28.908 15.8897H28.9303Z" fill="#1C64FE"/>
</svg>
