<svg width="18" height="18" viewBox="0 0 18 18" fill="none" xmlns="http://www.w3.org/2000/svg">
<g clip-path="url(#clip0_521_6874)">
<path opacity="0.1" fill-rule="evenodd" clip-rule="evenodd" d="M5.91665 16.9501H12.0837C13.3837 16.9481 14.6299 16.4308 15.5492 15.5116C16.4684 14.5923 16.9857 13.3461 16.9877 12.0461V5.87905C16.9857 4.57905 16.4684 3.33285 15.5492 2.4136C14.6299 1.49436 13.3837 0.977063 12.0837 0.975098H5.91665C4.61664 0.977063 3.37044 1.49436 2.4512 2.4136C1.53196 3.33285 1.01466 4.57905 1.0127 5.87905V12.0461C1.01466 13.3461 1.53196 14.5923 2.4512 15.5116C3.37044 16.4308 4.61664 16.9481 5.91665 16.9501ZM12.1705 8.06246H5.77974C5.24074 8.06052 4.72449 7.84504 4.34405 7.46322C3.96361 7.0814 3.75 6.56437 3.75 6.02537V5.56206C3.75 5.02306 3.96361 4.50603 4.34405 4.12421C4.72449 3.74239 5.24074 3.52691 5.77974 3.52496H12.1705C12.7108 3.52496 13.2289 3.73959 13.6109 4.12161C13.993 4.50364 14.2076 5.02179 14.2076 5.56206V6.02537C14.2076 6.56564 13.993 7.08378 13.6109 7.46581C13.2289 7.84784 12.7108 8.06246 12.1705 8.06246Z" fill="#78829D"/>
<path d="M12.1125 17.0625H5.8875C4.57529 17.0605 3.31739 16.5384 2.38951 15.6105C1.46164 14.6826 0.939484 13.4247 0.9375 12.1125V5.8875C0.939484 4.57529 1.46164 3.31739 2.38951 2.38951C3.31739 1.46164 4.57529 0.939484 5.8875 0.9375H12.1125C13.4247 0.939484 14.6826 1.46164 15.6105 2.38951C16.5384 3.31739 17.0605 4.57529 17.0625 5.8875V12.1125C17.0605 13.4247 16.5384 14.6826 15.6105 15.6105C14.6826 16.5384 13.4247 17.0605 12.1125 17.0625ZM5.8875 2.0625C4.87366 2.06448 3.9019 2.46811 3.18501 3.18501C2.46811 3.9019 2.06448 4.87366 2.0625 5.8875V12.1125C2.06448 13.1263 2.46811 14.0981 3.18501 14.815C3.9019 15.5319 4.87366 15.9355 5.8875 15.9375H12.1125C13.1263 15.9355 14.0981 15.5319 14.815 14.815C15.5319 14.0981 15.9355 13.1263 15.9375 12.1125V5.8875C15.9355 4.87366 15.5319 3.9019 14.815 3.18501C14.0981 2.46811 13.1263 2.06448 12.1125 2.0625H5.8875ZM12.2325 8.1H5.715C5.16531 8.09801 4.63882 7.87826 4.25083 7.48887C3.86285 7.09948 3.645 6.57219 3.645 6.0225V5.55C3.645 5.00031 3.86285 4.47302 4.25083 4.08363C4.63882 3.69424 5.16531 3.47448 5.715 3.4725H12.2325C12.7835 3.4725 13.3119 3.69138 13.7015 4.08099C14.0911 4.47059 14.31 4.99901 14.31 5.55V6.0225C14.31 6.57349 14.0911 7.10191 13.7015 7.49151C13.3119 7.88112 12.7835 8.1 12.2325 8.1ZM5.715 4.5975C5.59027 4.5975 5.46677 4.62219 5.35162 4.67014C5.23648 4.7181 5.13197 4.78838 5.04412 4.87693C4.95627 4.96548 4.88682 5.07054 4.83977 5.18606C4.79272 5.30158 4.76901 5.42527 4.77 5.55V6.0225C4.767 6.14848 4.78923 6.27379 4.83537 6.39105C4.88152 6.50831 4.95065 6.61516 5.0387 6.70531C5.12675 6.79546 5.23195 6.86708 5.34809 6.91598C5.46423 6.96487 5.58898 6.99004 5.715 6.99H12.2325C12.4851 6.99 12.7274 6.88965 12.906 6.71102C13.0846 6.53239 13.185 6.29012 13.185 6.0375V5.55C13.185 5.29738 13.0846 5.05511 12.906 4.87648C12.7274 4.69785 12.4851 4.5975 12.2325 4.5975H5.715ZM5.64 9.495C5.52877 9.46477 5.41207 9.46059 5.29896 9.48277C5.18585 9.50496 5.07937 9.55292 4.9878 9.62292C4.89623 9.69293 4.82203 9.7831 4.77095 9.88644C4.71988 9.98977 4.69331 10.1035 4.69331 10.2188C4.69331 10.334 4.71988 10.4477 4.77095 10.5511C4.82203 10.6544 4.89623 10.7446 4.9878 10.8146C5.07937 10.8846 5.18585 10.9325 5.29896 10.9547C5.41207 10.9769 5.52877 10.9727 5.64 10.9425C5.75123 10.9727 5.86793 10.9769 5.98104 10.9547C6.09415 10.9325 6.20063 10.8846 6.2922 10.8146C6.38377 10.7446 6.45797 10.6544 6.50905 10.5511C6.56012 10.4477 6.58669 10.334 6.58669 10.2188C6.58669 10.1035 6.56012 9.98977 6.50905 9.88644C6.45797 9.7831 6.38377 9.69293 6.2922 9.62292C6.20063 9.55292 6.09415 9.50496 5.98104 9.48277C5.86793 9.46059 5.75123 9.46477 5.64 9.495ZM9.5625 9.495C9.41416 9.495 9.26916 9.53899 9.14582 9.6214C9.02248 9.70381 8.92636 9.82094 8.86959 9.95799C8.81282 10.095 8.79797 10.2458 8.82691 10.3913C8.85585 10.5368 8.92728 10.6704 9.03217 10.7753C9.13706 10.8802 9.2707 10.9516 9.41618 10.9806C9.56167 11.0095 9.71247 10.9947 9.84951 10.9379C9.98656 10.8811 10.1037 10.785 10.1861 10.6617C10.2685 10.5383 10.3125 10.3933 10.3125 10.245C10.3125 10.0461 10.2335 9.85532 10.0928 9.71467C9.95218 9.57402 9.76141 9.495 9.5625 9.495ZM5.64 12.24C5.49166 12.24 5.34666 12.284 5.22332 12.3664C5.09999 12.4488 5.00386 12.5659 4.94709 12.703C4.89032 12.84 4.87547 12.9908 4.90441 13.1363C4.93335 13.2818 5.00478 13.4154 5.10967 13.5203C5.21456 13.6252 5.3482 13.6966 5.49368 13.7256C5.63917 13.7545 5.78997 13.7397 5.92701 13.6829C6.06406 13.6261 6.18119 13.53 6.2636 13.4067C6.34601 13.2833 6.39 13.1383 6.39 12.99C6.39 12.7911 6.31098 12.6003 6.17033 12.4597C6.02968 12.319 5.83891 12.24 5.64 12.24ZM9.5625 12.24C9.41416 12.24 9.26916 12.284 9.14582 12.3664C9.02248 12.4488 8.92636 12.5659 8.86959 12.703C8.81282 12.84 8.79797 12.9908 8.82691 13.1363C8.85585 13.2818 8.92728 13.4154 9.03217 13.5203C9.13706 13.6252 9.2707 13.6966 9.41618 13.7256C9.56167 13.7545 9.71247 13.7397 9.84951 13.6829C9.98656 13.6261 10.1037 13.53 10.1861 13.4067C10.2685 13.2833 10.3125 13.1383 10.3125 12.99C10.3125 12.7911 10.2335 12.6003 10.0928 12.4597C9.95218 12.319 9.76141 12.24 9.5625 12.24ZM13.4475 13.23V9.99C13.4475 9.84082 13.3882 9.69774 13.2827 9.59225C13.1773 9.48676 13.0342 9.4275 12.885 9.4275C12.7358 9.4275 12.5927 9.48676 12.4873 9.59225C12.3818 9.69774 12.3225 9.84082 12.3225 9.99V13.2525C12.3225 13.4017 12.3818 13.5448 12.4873 13.6502C12.5927 13.7557 12.7358 13.815 12.885 13.815C13.0342 13.815 13.1773 13.7557 13.2827 13.6502C13.3882 13.5448 13.4475 13.4017 13.4475 13.2525V13.23Z" fill="#78829D"/>
</g>
<defs>
<clipPath id="clip0_521_6874">
<rect width="18" height="18" fill="white"/>
</clipPath>
</defs>
</svg>
