<svg width="18" height="18" viewBox="0 0 18 18" fill="none" xmlns="http://www.w3.org/2000/svg">
<g clip-path="url(#clip0_521_6858)">
<path opacity="0.1" fill-rule="evenodd" clip-rule="evenodd" d="M6.6893 16.6149H5.52239C4.25461 16.609 3.04079 16.1012 2.14643 15.2026C1.25207 14.3041 0.749986 13.0879 0.75 11.8201V5.28984C0.755902 4.02595 1.2606 2.8155 2.15432 1.92178C3.04804 1.02806 4.25849 0.523358 5.52239 0.517456H12.0302C13.2974 0.519405 14.5124 1.02212 15.4106 1.91606C16.3087 2.80999 16.8171 4.02268 16.825 5.28984V12.3929C16.9346 12.547 17.0191 12.7186 17.0744 12.9015C17.182 13.2323 17.1936 13.5869 17.1077 13.924C17.0218 14.2611 16.8419 14.5669 16.5891 14.8059L16.3906 14.9897V15.2324C16.4414 15.488 16.4369 15.7515 16.3773 16.0052C16.3177 16.2588 16.2044 16.4968 16.045 16.703C15.8936 16.9203 15.6941 17.0997 15.4619 17.2272C15.2298 17.3547 14.9714 17.427 14.7068 17.4383C14.396 17.4396 14.0908 17.3557 13.8244 17.1956L13.5891 17.0559L13.3539 17.1956C13.0876 17.3724 12.7763 17.4693 12.4568 17.475C12.18 17.4734 11.9076 17.4059 11.6621 17.278C11.4165 17.1501 11.205 16.9656 11.045 16.7397C11.0133 16.6993 10.9835 16.6577 10.9554 16.6149H6.6893Z" fill="#78829D"/>
<path fill-rule="evenodd" clip-rule="evenodd" d="M5.52239 16.5849H6.6893V16.5624C6.83809 16.5624 6.98079 16.5033 7.086 16.3981C7.19121 16.2929 7.25032 16.1502 7.25032 16.0014C7.25032 15.8526 7.19121 15.7099 7.086 15.6047C6.98079 15.4995 6.83809 15.4404 6.6893 15.4404H5.52239C4.5483 15.4404 3.61411 15.0535 2.92533 14.3647C2.58428 14.0236 2.31374 13.6187 2.12917 13.1731C1.94459 12.7275 1.84959 12.2499 1.84959 11.7676V5.25981C1.84959 4.28573 2.23655 3.35154 2.92533 2.66276C3.61411 1.97397 4.5483 1.58702 5.52239 1.58702H12.0302C13.0043 1.58702 13.9385 1.97397 14.6272 2.66276C15.316 3.35154 15.703 4.28573 15.703 5.25981V7.66097C15.703 7.80976 15.7621 7.95245 15.8673 8.05767C15.9725 8.16288 16.1152 8.22198 16.264 8.22198C16.4128 8.22198 16.5555 8.16288 16.6607 8.05767C16.7659 7.95245 16.825 7.80976 16.825 7.66097V5.25981C16.8171 3.99265 16.3087 2.77996 15.4106 1.88603C14.5124 0.992095 13.2974 0.489376 12.0302 0.487427H5.52239C4.25849 0.493328 3.04804 0.998027 2.15432 1.89175C1.2606 2.78547 0.755902 3.99592 0.75 5.25981V11.7901C0.749986 13.0578 1.25207 14.274 2.14643 15.1726C3.04079 16.0712 4.25461 16.5789 5.52239 16.5849ZM12.0676 6.29192C11.9905 6.29236 11.9142 6.3085 11.8435 6.33936C11.7727 6.37023 11.709 6.41517 11.6562 6.47145L9.72633 8.63324H9.61412L8.45469 7.68325C8.22384 7.49226 7.92873 7.39673 7.62976 7.4162C7.33079 7.43567 7.05056 7.56866 6.84644 7.78797L5.03622 9.69543C4.98262 9.74893 4.94009 9.81247 4.91108 9.88243C4.88206 9.95238 4.86713 10.0274 4.86713 10.1031C4.86713 10.1788 4.88206 10.2538 4.91108 10.3238C4.94009 10.3937 4.98262 10.4573 5.03622 10.5108C5.08801 10.5677 5.15221 10.6119 5.22384 10.64C5.29548 10.6681 5.37262 10.6793 5.44929 10.6728C5.52596 10.6663 5.60011 10.6423 5.66598 10.6025C5.73185 10.5627 5.78767 10.5083 5.82913 10.4435L7.6169 8.56591H7.72162L8.88106 9.54582C9.11562 9.72471 9.40799 9.81066 9.70204 9.78719C9.9961 9.76372 10.2711 9.63248 10.4743 9.41866L12.4342 7.24939C12.5384 7.14075 12.5966 6.99602 12.5966 6.84546C12.5966 6.6949 12.5384 6.55017 12.4342 6.44153C12.3848 6.39313 12.3263 6.355 12.2621 6.32932C12.1979 6.30364 12.1293 6.29093 12.0602 6.29192H12.0676ZM17.1392 12.8594C17.0386 12.5274 16.8436 12.2318 16.578 12.0086C16.3123 11.7855 15.9875 11.6445 15.6431 11.6028H15.3663L15.299 11.4532C15.1533 11.1116 14.9135 10.8184 14.6076 10.6078C14.3017 10.3973 13.9422 10.2779 13.5711 10.2638H13.5262C13.1642 10.2677 12.8113 10.3774 12.5109 10.5795C12.2105 10.7815 11.9758 11.067 11.8357 11.4008L11.7684 11.5504H11.4991C11.1544 11.5945 10.8298 11.7373 10.5644 11.9616C10.299 12.1859 10.104 12.4821 10.003 12.8146C9.89655 13.1544 9.88853 13.5174 9.97988 13.8616C10.0712 14.2058 10.2582 14.5171 10.5192 14.7594L10.7286 14.9464L10.6463 15.2681C10.5952 15.5286 10.6008 15.7971 10.6627 16.0552C10.7247 16.3134 10.8415 16.5552 11.0054 16.7641C11.1681 16.9939 11.3833 17.1816 11.6331 17.3117C11.8828 17.4418 12.16 17.5105 12.4416 17.5121C12.7666 17.5063 13.0833 17.4077 13.3542 17.2279L13.5935 17.0858L13.8329 17.2279C14.1039 17.3907 14.4144 17.4761 14.7305 17.4747C14.9997 17.4632 15.2626 17.3898 15.4987 17.26C15.7349 17.1303 15.9379 16.9478 16.0919 16.7267C16.254 16.5169 16.3693 16.2749 16.4299 16.0168C16.4906 15.7587 16.4952 15.4907 16.4435 15.2307V14.9838L16.6455 14.7968C16.9026 14.5537 17.0856 14.2426 17.1729 13.8996C17.2603 13.5567 17.2486 13.196 17.1392 12.8594ZM15.86 13.9515L15.4636 14.3181C15.3772 14.4037 15.313 14.509 15.2765 14.625C15.24 14.741 15.2323 14.8642 15.2541 14.9838L15.3663 15.5149C15.4068 15.6934 15.3753 15.8806 15.2787 16.036C15.1821 16.1914 15.0282 16.3025 14.8502 16.3452H14.7006C14.5794 16.343 14.4609 16.3095 14.3565 16.248L13.9002 15.9787C13.7951 15.9197 13.6766 15.8887 13.5561 15.8887C13.4356 15.8887 13.3171 15.9197 13.212 15.9787L12.7557 16.2555C12.6529 16.3205 12.5333 16.3543 12.4117 16.3527C12.3203 16.3508 12.2302 16.3308 12.1465 16.2941C12.0629 16.2573 11.9873 16.2044 11.9241 16.1384C11.8609 16.0724 11.8113 15.9946 11.7781 15.9095C11.745 15.8243 11.729 15.7334 11.731 15.6421V15.5149L11.8432 14.9763C11.8686 14.8579 11.8626 14.7348 11.8259 14.6194C11.7892 14.5039 11.7229 14.4001 11.6337 14.3181L11.2223 13.9515C11.0918 13.822 11.0136 13.649 11.0025 13.4655C10.9915 13.282 11.0484 13.1009 11.1625 12.9567C11.2695 12.8378 11.4153 12.7609 11.5739 12.7397L12.105 12.6799C12.2263 12.6692 12.3422 12.6251 12.4399 12.5525C12.5376 12.4799 12.6133 12.3816 12.6585 12.2685L12.8231 11.8795C12.8799 11.7492 12.9727 11.6377 13.0906 11.5582C13.2085 11.4787 13.3467 11.4345 13.4888 11.4307C13.6322 11.4331 13.772 11.4767 13.8913 11.5562C14.0107 11.6358 14.1047 11.748 14.162 11.8795L14.3266 12.261C14.3647 12.3805 14.4365 12.4864 14.5334 12.566C14.6302 12.6456 14.7481 12.6956 14.8726 12.7098L15.4037 12.7622C15.588 12.7864 15.7553 12.8827 15.8688 13.0298C15.9823 13.177 16.033 13.3632 16.0096 13.5476C16.0005 13.694 15.9484 13.8345 15.86 13.9515Z" fill="#78829D"/>
</g>
<defs>
<clipPath id="clip0_521_6858">
<rect width="18" height="18" fill="white"/>
</clipPath>
</defs>
</svg>
