<svg width="44" height="44" viewBox="0 0 44 44" fill="none" xmlns="http://www.w3.org/2000/svg">
<path d="M17.5 2.59808C20.2846 0.990381 23.7154 0.990381 26.5 2.59808L36.5526 8.40192C39.3372 10.0096 41.0526 12.9808 41.0526 16.1962V27.8038C41.0526 31.0192 39.3372 33.9904 36.5526 35.5981L26.5 41.4019C23.7154 43.0096 20.2846 43.0096 17.5 41.4019L7.44744 35.5981C4.66283 33.9904 2.94744 31.0192 2.94744 27.8038V16.1962C2.94744 12.9808 4.66283 10.0096 7.44744 8.40192L17.5 2.59808Z" fill="#EAFFF1"/>
<path d="M17.75 3.03109C20.3799 1.51271 23.6201 1.51271 26.25 3.03109L36.3026 8.83494C38.9325 10.3533 40.5526 13.1594 40.5526 16.1962V27.8038C40.5526 30.8406 38.9325 33.6467 36.3026 35.1651L26.25 40.9689C23.6201 42.4873 20.3799 42.4873 17.75 40.9689L7.69744 35.1651C5.06753 33.6467 3.44744 30.8406 3.44744 27.8038V16.1962C3.44744 13.1594 5.06753 10.3533 7.69744 8.83494L17.75 3.03109Z" stroke="#17C653" stroke-opacity="0.2"/>
<path opacity="0.1" d="M27.5056 24.4567C27.8667 24.2203 28.168 23.9032 28.3857 23.5304C28.6034 23.1577 28.7315 22.7394 28.76 22.3087C28.834 21.8296 28.7779 21.3395 28.5977 20.8895C28.4174 20.4395 28.1195 20.0462 27.7352 19.7507C27.7789 19.0659 27.6812 18.3794 27.4482 17.7339C27.2057 17.0252 26.8005 16.3832 26.2652 15.8592C25.7299 15.3353 25.0793 14.944 24.3655 14.7168C23.5888 14.4931 22.7725 14.4417 21.9738 14.5664C21.1751 14.691 20.4132 14.9885 19.7415 15.4383C19.1644 15.4557 18.6003 15.6142 18.0987 15.9001C17.597 16.1859 17.173 16.5904 16.8638 17.078C16.4601 17.86 16.3083 18.7478 16.4293 19.6196C16.0334 19.827 15.7103 20.1502 15.5028 20.546C15.2329 21.0831 15.122 21.6861 15.1831 22.2841C15.2108 22.7222 15.342 23.1474 15.5657 23.5251C15.7894 23.9027 16.0994 24.222 16.4703 24.4567C16.601 25.4766 17.1102 26.4101 17.8968 27.0721L19.8891 28.7118C20.4734 29.2021 21.2068 29.4796 21.9693 29.4989C22.7318 29.5183 23.4783 29.2784 24.0868 28.8184L25.9479 27.4328C26.403 27.0749 26.7771 26.6246 27.0456 26.1117C27.3141 25.5987 27.4709 25.0347 27.5056 24.4567Z" fill="#17C653"/>
<path d="M27.6001 24.4999C27.9672 24.2596 28.2734 23.9373 28.4946 23.5584C28.7159 23.1795 28.8461 22.7544 28.8751 22.3166C28.9503 21.8296 28.8933 21.3314 28.7101 20.874C28.5268 20.4167 28.2241 20.0169 27.8334 19.7166C27.8779 19.0205 27.7786 18.3227 27.5418 17.6666C27.2952 16.9463 26.8834 16.2937 26.3393 15.7612C25.7952 15.2286 25.1339 14.8309 24.4084 14.5999C23.6189 14.3725 22.7892 14.3204 21.9774 14.447C21.1655 14.5737 20.3912 14.8762 19.7084 15.3333C19.1218 15.351 18.5485 15.5121 18.0386 15.8027C17.5287 16.0932 17.0977 16.5043 16.7834 16.9999C16.3731 17.7948 16.2188 18.6972 16.3418 19.5833C15.9394 19.7941 15.6109 20.1226 15.4001 20.5249C15.1258 21.0709 15.013 21.6838 15.0751 22.2916C15.1033 22.7369 15.2366 23.1691 15.464 23.5529C15.6914 23.9368 16.0065 24.2613 16.3834 24.4999C16.5163 25.5365 17.0338 26.4854 17.8334 27.1583L19.8584 28.8249C20.4524 29.3232 21.1978 29.6053 21.9728 29.6249C22.7479 29.6446 23.5066 29.4008 24.1251 28.9333L26.0168 27.5249C26.4793 27.1611 26.8596 26.7035 27.1325 26.1821C27.4054 25.6607 27.5648 25.0874 27.6001 24.4999ZM17.8918 17.6416C18.1289 17.3053 18.4455 17.0327 18.8132 16.8481C19.181 16.6635 19.5887 16.5725 20.0001 16.5833C20.1213 16.5701 20.2366 16.524 20.3334 16.4499C20.8635 16.0743 21.4718 15.8237 22.1126 15.7169C22.7535 15.6101 23.4102 15.6499 24.0334 15.8333C24.5625 16.0086 25.0435 16.3048 25.4384 16.6982C25.8332 17.0916 26.1311 17.5715 26.3084 18.0999C26.5903 18.8615 26.6253 19.6924 26.4084 20.4749C26.2968 20.3069 26.1653 20.153 26.0168 20.0166C25.3728 19.4473 24.5339 19.1488 23.6751 19.1833H23.2834C22.6572 19.2043 22.0354 19.0709 21.473 18.7948C20.9105 18.5187 20.4247 18.1083 20.0584 17.5999C19.9698 17.4683 19.8357 17.3742 19.6818 17.3358C19.5279 17.2973 19.3652 17.3172 19.2251 17.3916C18.541 17.8279 17.9812 18.4336 17.6001 19.1499C17.5552 18.6298 17.6562 18.1075 17.8918 17.6416ZM26.5168 23.4749C26.4509 23.4672 26.3864 23.4504 26.3251 23.4249V24.1666C26.3339 24.6108 26.24 25.0509 26.0506 25.4528C25.8612 25.8546 25.5816 26.2073 25.2334 26.4833L23.3418 27.8916C22.9547 28.1927 22.4758 28.3513 21.9856 28.3407C21.4953 28.33 21.0237 28.1509 20.6501 27.8333L18.6668 26.1666C18.3441 25.8883 18.0866 25.5425 17.9124 25.1537C17.7381 24.7649 17.6514 24.3426 17.6584 23.9166V23.4333C17.5997 23.4576 17.5381 23.4744 17.4751 23.4833H17.3751C16.8751 23.4833 16.4251 22.9166 16.3501 22.1666C16.3002 21.7638 16.3947 21.3564 16.6168 21.0166C16.7504 21.5085 16.9261 21.9881 17.1418 22.4499C17.2071 22.5873 17.3196 22.6966 17.4589 22.7578C17.5981 22.819 17.7547 22.828 17.9001 22.7833C18.0451 22.7376 18.1696 22.6426 18.2518 22.5147C18.334 22.3868 18.3688 22.2342 18.3501 22.0833C18.2461 21.4993 18.2909 20.8985 18.4802 20.3363C18.6696 19.7742 18.9974 19.2687 19.4334 18.8666C19.9265 19.418 20.538 19.8507 21.2221 20.1321C21.9061 20.4136 22.6451 20.5365 23.3834 20.4916C23.6923 20.4436 24.0077 20.4595 24.3102 20.5383C24.6126 20.6172 24.8957 20.7573 25.1418 20.9499C25.4657 21.2785 25.6583 21.7142 25.6834 22.1749C25.675 22.3237 25.7186 22.4708 25.8068 22.5909C25.895 22.7111 26.0223 22.7967 26.1668 22.8333H26.3584C26.4638 22.8334 26.5675 22.8077 26.6605 22.7583C26.7535 22.7089 26.8329 22.6373 26.8918 22.5499C27.1518 22.1658 27.3644 21.7517 27.5251 21.3166C27.6216 21.5831 27.6586 21.8676 27.6334 22.1499C27.5584 22.8999 27.1084 23.4666 26.6168 23.4666L26.5168 23.4749ZM30.9584 26.4416V29.2166C30.9584 29.6586 30.7828 30.0826 30.4703 30.3951C30.1577 30.7077 29.7338 30.8833 29.2918 30.8833H26.7918C26.6216 30.8833 26.4584 30.8157 26.338 30.6953C26.2177 30.575 26.1501 30.4118 26.1501 30.2416C26.1501 30.0714 26.2177 29.9082 26.338 29.7879C26.4584 29.6675 26.6216 29.5999 26.7918 29.5999H29.2918C29.3868 29.5999 29.4779 29.5622 29.5451 29.495C29.6123 29.4278 29.6501 29.3366 29.6501 29.2416V26.4499C29.6501 26.2798 29.7177 26.1165 29.838 25.9962C29.9584 25.8759 30.1216 25.8083 30.2918 25.8083C30.4619 25.8083 30.6252 25.8759 30.7455 25.9962C30.8658 26.1165 30.9334 26.2798 30.9334 26.4499L30.9584 26.4416ZM17.8334 30.2249C17.8334 30.3951 17.7658 30.5583 17.6455 30.6787C17.5252 30.799 17.3619 30.8666 17.1918 30.8666H14.7668C14.3247 30.8666 13.9008 30.691 13.5883 30.3784C13.2757 30.0659 13.1001 29.642 13.1001 29.1999V26.4499C13.1001 26.2798 13.1677 26.1165 13.288 25.9962C13.4084 25.8759 13.5716 25.8083 13.7418 25.8083C13.9119 25.8083 14.0752 25.8759 14.1955 25.9962C14.3158 26.1165 14.3834 26.2798 14.3834 26.4499V29.2249C14.3834 29.32 14.4212 29.4111 14.4884 29.4783C14.5556 29.5455 14.6467 29.5833 14.7418 29.5833H17.2251C17.3894 29.5918 17.5442 29.6632 17.6574 29.7826C17.7706 29.902 17.8337 30.0604 17.8334 30.2249ZM30.9584 14.6833V17.4583C30.9584 17.6284 30.8908 17.7917 30.7705 17.912C30.6502 18.0323 30.4869 18.0999 30.3168 18.0999C30.1466 18.0999 29.9834 18.0323 29.863 17.912C29.7427 17.7917 29.6751 17.6284 29.6751 17.4583V14.6833C29.6751 14.5882 29.6373 14.4971 29.5701 14.4299C29.5029 14.3627 29.4118 14.3249 29.3168 14.3249H26.8168C26.6466 14.3249 26.4834 14.2573 26.363 14.137C26.2427 14.0167 26.1751 13.8534 26.1751 13.6833C26.1751 13.5131 26.2427 13.3499 26.363 13.2295C26.4834 13.1092 26.6466 13.0416 26.8168 13.0416H29.3168C29.7502 13.0481 30.164 13.2231 30.4705 13.5296C30.7769 13.8361 30.952 14.2499 30.9584 14.6833ZM13.1251 17.4583V14.6833C13.1251 14.2412 13.3007 13.8173 13.6133 13.5048C13.9258 13.1922 14.3497 13.0166 14.7918 13.0166H17.2251C17.3953 13.0166 17.5585 13.0842 17.6788 13.2045C17.7992 13.3249 17.8668 13.4881 17.8668 13.6583C17.8668 13.8284 17.7992 13.9917 17.6788 14.112C17.5585 14.2323 17.3953 14.2999 17.2251 14.2999H14.7668C14.7197 14.2999 14.6731 14.3092 14.6296 14.3272C14.5862 14.3452 14.5467 14.3716 14.5134 14.4049C14.4801 14.4382 14.4537 14.4777 14.4357 14.5211C14.4177 14.5646 14.4084 14.6112 14.4084 14.6583V17.4583C14.4084 17.6284 14.3408 17.7917 14.2205 17.912C14.1002 18.0323 13.9369 18.0999 13.7668 18.0999C13.5966 18.0999 13.4334 18.0323 13.313 17.912C13.1927 17.7917 13.1251 17.6284 13.1251 17.4583Z" fill="#17C653"/>
</svg>
