<svg width="654" height="110" viewBox="0 0 654 110" fill="none" xmlns="http://www.w3.org/2000/svg">
<g filter="url(#filter0_d_359_4616)">
<rect x="-18" y="48" width="55" height="55" rx="27.5" fill="white" shape-rendering="crispEdges"/>
<rect x="-17.5" y="48.5" width="54" height="54" rx="27" fill="url(#paint0_radial_359_4616)"/>
<rect x="-17.5" y="48.5" width="54" height="54" rx="27" stroke="#F1F1F4"/>
<rect x="-7" y="59" width="33" height="33" rx="16.5" fill="url(#paint1_radial_359_4616)"/>
<rect x="-7" y="59" width="33" height="33" rx="16.5" stroke="white" stroke-width="2"/>
</g>
<g filter="url(#filter1_d_359_4616)">
<rect x="87.8334" y="8" width="55" height="55" rx="27.5" fill="white" shape-rendering="crispEdges"/>
<rect x="88.3334" y="8.5" width="54" height="54" rx="27" fill="url(#paint2_radial_359_4616)"/>
<rect x="88.3334" y="8.5" width="54" height="54" rx="27" stroke="#F1F1F4"/>
<rect x="98.8334" y="19" width="33" height="33" rx="16.5" fill="url(#paint3_radial_359_4616)"/>
<rect x="98.8334" y="19" width="33" height="33" rx="16.5" stroke="white" stroke-width="2"/>
<path d="M117.083 36.0083C117.092 35.9168 117.092 35.8248 117.083 35.7333C117.059 35.5689 117.101 35.4016 117.199 35.2675C117.297 35.1334 117.444 35.0433 117.608 35.0166C117.689 35.0024 117.772 35.0046 117.851 35.0231C117.931 35.0416 118.006 35.076 118.072 35.1243C118.139 35.1725 118.194 35.2336 118.236 35.3039C118.278 35.3742 118.306 35.4522 118.317 35.5333C118.329 35.6914 118.329 35.8502 118.317 36.0083C118.317 36.4023 118.239 36.7924 118.088 37.1564C117.938 37.5203 117.717 37.8511 117.438 38.1296C117.159 38.4082 116.829 38.6292 116.465 38.78C116.101 38.9307 115.711 39.0083 115.317 39.0083H114.983C114.819 38.9895 114.668 38.9061 114.565 38.7764C114.462 38.6466 114.415 38.4813 114.433 38.3166C114.442 38.2355 114.466 38.1568 114.505 38.0851C114.544 38.0134 114.597 37.9501 114.66 37.899C114.724 37.8478 114.797 37.8098 114.875 37.787C114.954 37.7643 115.036 37.7574 115.117 37.7666C115.364 37.7949 115.615 37.7704 115.852 37.6948C116.09 37.6193 116.308 37.4944 116.494 37.3284C116.68 37.1623 116.828 36.9589 116.93 36.7314C117.031 36.5039 117.084 36.2574 117.083 36.0083ZM122.575 31.9833C122.52 31.9204 122.454 31.8689 122.379 31.8317C122.304 31.7945 122.223 31.7723 122.14 31.7665C122.057 31.7607 121.973 31.7714 121.894 31.7978C121.815 31.8243 121.742 31.8661 121.679 31.9208C121.552 32.0313 121.474 32.1878 121.462 32.3558C121.457 32.439 121.467 32.5225 121.494 32.6016C121.52 32.6806 121.562 32.7537 121.617 32.8166C122.444 33.699 122.946 34.8362 123.042 36.0416C123.042 38.8833 119.3 42.55 115.333 42.55C114.256 42.5094 113.201 42.2244 112.25 41.7166C112.176 41.6751 112.095 41.6489 112.011 41.6398C111.926 41.6307 111.841 41.6387 111.76 41.6635C111.679 41.6883 111.604 41.7293 111.54 41.784C111.475 41.8387 111.422 41.9059 111.384 41.9817C111.346 42.0574 111.324 42.14 111.319 42.2246C111.314 42.3091 111.327 42.3938 111.355 42.4734C111.384 42.5531 111.429 42.626 111.487 42.6879C111.544 42.7498 111.614 42.7992 111.692 42.8333C112.819 43.4177 114.064 43.737 115.333 43.7666C119.683 43.7666 124.292 39.7833 124.292 36.0083C124.199 34.5092 123.593 33.0878 122.575 31.9833ZM123.408 28.375L108.167 43.5166C108.052 43.6326 107.896 43.6985 107.733 43.7C107.565 43.6985 107.404 43.6329 107.283 43.5166C107.166 43.398 107.1 43.2378 107.1 43.0708C107.1 42.9038 107.166 42.7436 107.283 42.625L108.95 40.9583C107.283 39.425 106.342 37.625 106.342 36.025C106.375 32.3083 111.067 28.25 115.333 28.25C117.052 28.3075 118.718 28.857 120.133 29.8333L122.5 27.4833C122.553 27.4062 122.623 27.3419 122.704 27.2952C122.785 27.2486 122.875 27.2207 122.968 27.2137C123.062 27.2067 123.155 27.2207 123.243 27.2547C123.33 27.2887 123.408 27.3418 123.472 27.4102C123.536 27.4785 123.584 27.5603 123.612 27.6496C123.64 27.7388 123.647 27.8332 123.634 27.9258C123.621 28.0184 123.587 28.1068 123.535 28.1846C123.483 28.2623 123.414 28.3274 123.333 28.375H123.408ZM109.9 40.0416L112.675 37.2833C112.399 36.7251 112.304 36.0941 112.406 35.4795C112.507 34.8649 112.799 34.2975 113.24 33.8575C113.681 33.4175 114.249 33.127 114.863 33.027C115.478 32.9269 116.109 33.0224 116.667 33.3L119.267 30.7166C118.091 29.9597 116.731 29.5389 115.333 29.5C111.808 29.5 107.625 33 107.625 36.0083C107.625 37.25 108.475 38.7666 109.867 40.0583L109.9 40.0416ZM113.617 36.3333L115.658 34.2916C115.55 34.2834 115.442 34.2834 115.333 34.2916C114.869 34.2916 114.424 34.476 114.096 34.8042C113.768 35.1324 113.583 35.5775 113.583 36.0416C113.584 36.1398 113.596 36.2375 113.617 36.3333Z" fill="#78829D"/>
</g>
<g filter="url(#filter2_d_359_4616)">
<rect x="193.667" y="48" width="55" height="55" rx="27.5" fill="white" shape-rendering="crispEdges"/>
<rect x="194.167" y="48.5" width="54" height="54" rx="27" fill="url(#paint4_radial_359_4616)"/>
<rect x="194.167" y="48.5" width="54" height="54" rx="27" stroke="#F1F1F4"/>
<rect x="204.667" y="59" width="33" height="33" rx="16.5" fill="url(#paint5_radial_359_4616)"/>
<rect x="204.667" y="59" width="33" height="33" rx="16.5" stroke="white" stroke-width="2"/>
</g>
<g filter="url(#filter3_d_359_4616)">
<rect x="299.5" y="8" width="55" height="55" rx="27.5" fill="white" shape-rendering="crispEdges"/>
<g filter="url(#filter4_d_359_4616)">
<rect x="299.5" y="8" width="55" height="55" rx="27.5" fill="url(#paint6_radial_359_4616)" shape-rendering="crispEdges"/>
<rect x="300" y="8.5" width="54" height="54" rx="27" stroke="#F1F1F4" shape-rendering="crispEdges"/>
<rect x="310.5" y="19" width="33" height="33" rx="16.5" fill="url(#paint7_radial_359_4616)"/>
<rect x="310.5" y="19" width="33" height="33" rx="16.5" stroke="white" stroke-width="2"/>
<path d="M332.156 33.0651H330.866V30.1207C330.866 28.0324 329.131 26.3334 326.999 26.3334C324.866 26.3334 323.131 28.0324 323.131 30.1207V33.0651H321.844C320.659 33.0651 319.695 34.0289 319.695 35.2136V42.5183C319.695 43.7029 320.659 44.6667 321.844 44.6667H332.156C333.341 44.6667 334.305 43.7029 334.305 42.5183V35.2136C334.305 34.0289 333.341 33.0651 332.156 33.0651ZM324.564 30.1207C324.564 28.8221 325.656 27.7657 326.999 27.7657C328.341 27.7657 329.434 28.8221 329.434 30.1207V33.0651H324.564V30.1207ZM332.872 42.5183C332.872 42.9132 332.551 43.2344 332.156 43.2344H321.844C321.449 43.2344 321.128 42.9132 321.128 42.5183V35.2136C321.128 34.8187 321.449 34.4974 321.844 34.4974H332.156C332.551 34.4974 332.872 34.8187 332.872 35.2136V42.5183Z" fill="#78829D"/>
<path d="M327 36.5742C326.268 36.5742 325.675 37.1674 325.675 37.8991C325.675 38.3663 325.917 38.7767 326.283 39.0126V40.5846C326.283 40.9801 326.603 41.3008 326.999 41.3008C327.394 41.3008 327.715 40.9801 327.715 40.5846V39.0143C328.082 38.7787 328.325 38.3674 328.325 37.8991C328.325 37.1674 327.732 36.5742 327 36.5742Z" fill="#78829D"/>
</g>
</g>
<g filter="url(#filter5_d_359_4616)">
<rect x="405.333" y="48" width="55" height="55" rx="27.5" fill="white" shape-rendering="crispEdges"/>
<rect x="405.833" y="48.5" width="54" height="54" rx="27" fill="url(#paint8_radial_359_4616)"/>
<rect x="405.833" y="48.5" width="54" height="54" rx="27" stroke="#F1F1F4"/>
<rect x="416.333" y="59" width="33" height="33" rx="16.5" fill="url(#paint9_radial_359_4616)"/>
<rect x="416.333" y="59" width="33" height="33" rx="16.5" stroke="white" stroke-width="2"/>
</g>
<g filter="url(#filter6_d_359_4616)">
<rect x="511.167" y="8" width="55" height="55" rx="27.5" fill="white" shape-rendering="crispEdges"/>
<g filter="url(#filter7_d_359_4616)">
<rect x="511.167" y="8" width="55" height="55" rx="27.5" fill="url(#paint10_radial_359_4616)" shape-rendering="crispEdges"/>
<rect x="511.667" y="8.5" width="54" height="54" rx="27" stroke="#F1F1F4" shape-rendering="crispEdges"/>
<rect x="522.167" y="19" width="33" height="33" rx="16.5" fill="url(#paint11_radial_359_4616)"/>
<rect x="522.167" y="19" width="33" height="33" rx="16.5" stroke="white" stroke-width="2"/>
<path d="M538.667 44.4584C537.867 44.459 537.093 44.1821 536.475 43.675L532.65 40.55C532.253 40.2268 531.933 39.8189 531.714 39.356C531.494 38.8932 531.382 38.3871 531.383 37.875V31.75C531.384 31.0883 531.574 30.4406 531.931 29.8837C532.289 29.3268 532.799 28.8842 533.4 28.6084L537.225 26.8584C537.677 26.6482 538.169 26.5393 538.667 26.5393C539.165 26.5393 539.657 26.6482 540.108 26.8584L543.933 28.6084C544.535 28.8842 545.045 29.3268 545.402 29.8837C545.759 30.4406 545.95 31.0883 545.95 31.75V37.875C545.952 38.3871 545.839 38.8932 545.62 39.356C545.401 39.8189 545.081 40.2268 544.683 40.55L540.858 43.675C540.241 44.1821 539.466 44.459 538.667 44.4584ZM538.667 27.7917C538.35 27.794 538.037 27.8651 537.75 28L533.925 29.7417C533.54 29.9183 533.215 30.2012 532.986 30.5571C532.757 30.9129 532.634 31.3269 532.633 31.75V37.875C532.641 38.1971 532.719 38.5136 532.863 38.8017C533.007 39.0899 533.213 39.3426 533.467 39.5417L537.292 42.6667C537.687 42.9888 538.182 43.1648 538.692 43.1648C539.202 43.1648 539.696 42.9888 540.092 42.6667L543.917 39.5417C544.17 39.3426 544.376 39.0899 544.52 38.8017C544.664 38.5136 544.743 38.1971 544.75 37.875V31.75C544.749 31.3269 544.627 30.9129 544.398 30.5571C544.169 30.2012 543.843 29.9183 543.458 29.7417L539.583 28C539.296 27.8651 538.984 27.794 538.667 27.7917ZM538 37.6417L541.483 34.25C541.6 34.1328 541.666 33.974 541.666 33.8084C541.666 33.6427 541.6 33.4839 541.483 33.3667C541.366 33.2497 541.207 33.1839 541.042 33.1839C540.876 33.1839 540.717 33.2497 540.6 33.3667L537.575 36.3334L536.742 35.5C536.693 35.4215 536.628 35.3547 536.551 35.3044C536.473 35.254 536.386 35.2215 536.294 35.209C536.203 35.1966 536.11 35.2045 536.022 35.2323C535.934 35.2601 535.853 35.307 535.785 35.3697C535.717 35.4324 535.664 35.5093 535.63 35.5949C535.596 35.6805 535.58 35.7727 535.586 35.8649C535.591 35.957 535.617 36.0468 535.661 36.1278C535.705 36.2088 535.767 36.279 535.842 36.3334L537.117 37.6417C537.175 37.7019 537.245 37.7498 537.322 37.7827C537.4 37.8156 537.483 37.8328 537.567 37.8334C537.648 37.8316 537.728 37.8137 537.802 37.7808C537.877 37.7479 537.944 37.7006 538 37.6417Z" fill="#78829D"/>
</g>
</g>
<g filter="url(#filter8_d_359_4616)">
<rect x="617" y="48" width="55" height="55" rx="27.5" fill="white" shape-rendering="crispEdges"/>
<rect x="617.5" y="48.5" width="54" height="54" rx="27" fill="url(#paint12_radial_359_4616)"/>
<rect x="617.5" y="48.5" width="54" height="54" rx="27" stroke="#F1F1F4"/>
<rect x="628" y="59" width="33" height="33" rx="16.5" fill="url(#paint13_radial_359_4616)"/>
<rect x="628" y="59" width="33" height="33" rx="16.5" stroke="white" stroke-width="2"/>
</g>
<defs>
<filter id="filter0_d_359_4616" x="-22" y="47" width="63" height="63" filterUnits="userSpaceOnUse" color-interpolation-filters="sRGB">
<feFlood flood-opacity="0" result="BackgroundImageFix"/>
<feColorMatrix in="SourceAlpha" type="matrix" values="0 0 0 0 0 0 0 0 0 0 0 0 0 0 0 0 0 0 127 0" result="hardAlpha"/>
<feOffset dy="3"/>
<feGaussianBlur stdDeviation="2"/>
<feComposite in2="hardAlpha" operator="out"/>
<feColorMatrix type="matrix" values="0 0 0 0 0 0 0 0 0 0 0 0 0 0 0 0 0 0 0.03 0"/>
<feBlend mode="normal" in2="BackgroundImageFix" result="effect1_dropShadow_359_4616"/>
<feBlend mode="normal" in="SourceGraphic" in2="effect1_dropShadow_359_4616" result="shape"/>
</filter>
<filter id="filter1_d_359_4616" x="75.8334" y="0" width="79" height="79" filterUnits="userSpaceOnUse" color-interpolation-filters="sRGB">
<feFlood flood-opacity="0" result="BackgroundImageFix"/>
<feColorMatrix in="SourceAlpha" type="matrix" values="0 0 0 0 0 0 0 0 0 0 0 0 0 0 0 0 0 0 127 0" result="hardAlpha"/>
<feOffset dy="4"/>
<feGaussianBlur stdDeviation="6"/>
<feComposite in2="hardAlpha" operator="out"/>
<feColorMatrix type="matrix" values="0 0 0 0 0 0 0 0 0 0 0 0 0 0 0 0 0 0 0.07 0"/>
<feBlend mode="normal" in2="BackgroundImageFix" result="effect1_dropShadow_359_4616"/>
<feBlend mode="normal" in="SourceGraphic" in2="effect1_dropShadow_359_4616" result="shape"/>
</filter>
<filter id="filter2_d_359_4616" x="189.667" y="47" width="63" height="63" filterUnits="userSpaceOnUse" color-interpolation-filters="sRGB">
<feFlood flood-opacity="0" result="BackgroundImageFix"/>
<feColorMatrix in="SourceAlpha" type="matrix" values="0 0 0 0 0 0 0 0 0 0 0 0 0 0 0 0 0 0 127 0" result="hardAlpha"/>
<feOffset dy="3"/>
<feGaussianBlur stdDeviation="2"/>
<feComposite in2="hardAlpha" operator="out"/>
<feColorMatrix type="matrix" values="0 0 0 0 0 0 0 0 0 0 0 0 0 0 0 0 0 0 0.03 0"/>
<feBlend mode="normal" in2="BackgroundImageFix" result="effect1_dropShadow_359_4616"/>
<feBlend mode="normal" in="SourceGraphic" in2="effect1_dropShadow_359_4616" result="shape"/>
</filter>
<filter id="filter3_d_359_4616" x="285.5" y="4" width="83" height="83" filterUnits="userSpaceOnUse" color-interpolation-filters="sRGB">
<feFlood flood-opacity="0" result="BackgroundImageFix"/>
<feColorMatrix in="SourceAlpha" type="matrix" values="0 0 0 0 0 0 0 0 0 0 0 0 0 0 0 0 0 0 127 0" result="hardAlpha"/>
<feOffset dy="10"/>
<feGaussianBlur stdDeviation="7"/>
<feComposite in2="hardAlpha" operator="out"/>
<feColorMatrix type="matrix" values="0 0 0 0 0.0588235 0 0 0 0 0.164706 0 0 0 0 0.317647 0 0 0 0.03 0"/>
<feBlend mode="normal" in2="BackgroundImageFix" result="effect1_dropShadow_359_4616"/>
<feBlend mode="normal" in="SourceGraphic" in2="effect1_dropShadow_359_4616" result="shape"/>
</filter>
<filter id="filter4_d_359_4616" x="287.5" y="0" width="79" height="79" filterUnits="userSpaceOnUse" color-interpolation-filters="sRGB">
<feFlood flood-opacity="0" result="BackgroundImageFix"/>
<feColorMatrix in="SourceAlpha" type="matrix" values="0 0 0 0 0 0 0 0 0 0 0 0 0 0 0 0 0 0 127 0" result="hardAlpha"/>
<feOffset dy="4"/>
<feGaussianBlur stdDeviation="6"/>
<feComposite in2="hardAlpha" operator="out"/>
<feColorMatrix type="matrix" values="0 0 0 0 0 0 0 0 0 0 0 0 0 0 0 0 0 0 0.07 0"/>
<feBlend mode="normal" in2="BackgroundImageFix" result="effect1_dropShadow_359_4616"/>
<feBlend mode="normal" in="SourceGraphic" in2="effect1_dropShadow_359_4616" result="shape"/>
</filter>
<filter id="filter5_d_359_4616" x="401.333" y="47" width="63" height="63" filterUnits="userSpaceOnUse" color-interpolation-filters="sRGB">
<feFlood flood-opacity="0" result="BackgroundImageFix"/>
<feColorMatrix in="SourceAlpha" type="matrix" values="0 0 0 0 0 0 0 0 0 0 0 0 0 0 0 0 0 0 127 0" result="hardAlpha"/>
<feOffset dy="3"/>
<feGaussianBlur stdDeviation="2"/>
<feComposite in2="hardAlpha" operator="out"/>
<feColorMatrix type="matrix" values="0 0 0 0 0 0 0 0 0 0 0 0 0 0 0 0 0 0 0.03 0"/>
<feBlend mode="normal" in2="BackgroundImageFix" result="effect1_dropShadow_359_4616"/>
<feBlend mode="normal" in="SourceGraphic" in2="effect1_dropShadow_359_4616" result="shape"/>
</filter>
<filter id="filter6_d_359_4616" x="497.167" y="4" width="83" height="83" filterUnits="userSpaceOnUse" color-interpolation-filters="sRGB">
<feFlood flood-opacity="0" result="BackgroundImageFix"/>
<feColorMatrix in="SourceAlpha" type="matrix" values="0 0 0 0 0 0 0 0 0 0 0 0 0 0 0 0 0 0 127 0" result="hardAlpha"/>
<feOffset dy="10"/>
<feGaussianBlur stdDeviation="7"/>
<feComposite in2="hardAlpha" operator="out"/>
<feColorMatrix type="matrix" values="0 0 0 0 0.0588235 0 0 0 0 0.164706 0 0 0 0 0.317647 0 0 0 0.03 0"/>
<feBlend mode="normal" in2="BackgroundImageFix" result="effect1_dropShadow_359_4616"/>
<feBlend mode="normal" in="SourceGraphic" in2="effect1_dropShadow_359_4616" result="shape"/>
</filter>
<filter id="filter7_d_359_4616" x="499.167" y="0" width="79" height="79" filterUnits="userSpaceOnUse" color-interpolation-filters="sRGB">
<feFlood flood-opacity="0" result="BackgroundImageFix"/>
<feColorMatrix in="SourceAlpha" type="matrix" values="0 0 0 0 0 0 0 0 0 0 0 0 0 0 0 0 0 0 127 0" result="hardAlpha"/>
<feOffset dy="4"/>
<feGaussianBlur stdDeviation="6"/>
<feComposite in2="hardAlpha" operator="out"/>
<feColorMatrix type="matrix" values="0 0 0 0 0 0 0 0 0 0 0 0 0 0 0 0 0 0 0.07 0"/>
<feBlend mode="normal" in2="BackgroundImageFix" result="effect1_dropShadow_359_4616"/>
<feBlend mode="normal" in="SourceGraphic" in2="effect1_dropShadow_359_4616" result="shape"/>
</filter>
<filter id="filter8_d_359_4616" x="613" y="47" width="63" height="63" filterUnits="userSpaceOnUse" color-interpolation-filters="sRGB">
<feFlood flood-opacity="0" result="BackgroundImageFix"/>
<feColorMatrix in="SourceAlpha" type="matrix" values="0 0 0 0 0 0 0 0 0 0 0 0 0 0 0 0 0 0 127 0" result="hardAlpha"/>
<feOffset dy="3"/>
<feGaussianBlur stdDeviation="2"/>
<feComposite in2="hardAlpha" operator="out"/>
<feColorMatrix type="matrix" values="0 0 0 0 0 0 0 0 0 0 0 0 0 0 0 0 0 0 0.03 0"/>
<feBlend mode="normal" in2="BackgroundImageFix" result="effect1_dropShadow_359_4616"/>
<feBlend mode="normal" in="SourceGraphic" in2="effect1_dropShadow_359_4616" result="shape"/>
</filter>
<radialGradient id="paint0_radial_359_4616" cx="0" cy="0" r="1" gradientUnits="userSpaceOnUse" gradientTransform="translate(10 32) rotate(90) scale(77.5 97.9467)">
<stop stop-color="#F5F5F5"/>
<stop offset="1" stop-color="#ECECEC" stop-opacity="0"/>
</radialGradient>
<radialGradient id="paint1_radial_359_4616" cx="0" cy="0" r="1" gradientUnits="userSpaceOnUse" gradientTransform="translate(9.5 74.8) rotate(90) scale(18.2 17.5)">
<stop offset="0.078391" stop-color="white"/>
<stop offset="1" stop-color="#E9E9E9" stop-opacity="0"/>
</radialGradient>
<radialGradient id="paint2_radial_359_4616" cx="0" cy="0" r="1" gradientUnits="userSpaceOnUse" gradientTransform="translate(115.833 -7.99999) rotate(90) scale(77.5 97.9467)">
<stop stop-color="#F5F5F5"/>
<stop offset="1" stop-color="#ECECEC" stop-opacity="0"/>
</radialGradient>
<radialGradient id="paint3_radial_359_4616" cx="0" cy="0" r="1" gradientUnits="userSpaceOnUse" gradientTransform="translate(115.333 34.8) rotate(90) scale(18.2 17.5)">
<stop offset="0.078391" stop-color="white"/>
<stop offset="1" stop-color="#E9E9E9" stop-opacity="0"/>
</radialGradient>
<radialGradient id="paint4_radial_359_4616" cx="0" cy="0" r="1" gradientUnits="userSpaceOnUse" gradientTransform="translate(221.667 32) rotate(90) scale(77.5 97.9467)">
<stop stop-color="#F5F5F5"/>
<stop offset="1" stop-color="#ECECEC" stop-opacity="0"/>
</radialGradient>
<radialGradient id="paint5_radial_359_4616" cx="0" cy="0" r="1" gradientUnits="userSpaceOnUse" gradientTransform="translate(221.167 74.8) rotate(90) scale(18.2 17.5)">
<stop offset="0.078391" stop-color="white"/>
<stop offset="1" stop-color="#E9E9E9" stop-opacity="0"/>
</radialGradient>
<radialGradient id="paint6_radial_359_4616" cx="0" cy="0" r="1" gradientUnits="userSpaceOnUse" gradientTransform="translate(327.5 -7.99999) rotate(90) scale(77.5 97.9467)">
<stop stop-color="#F5F5F5"/>
<stop offset="1" stop-color="#ECECEC" stop-opacity="0"/>
</radialGradient>
<radialGradient id="paint7_radial_359_4616" cx="0" cy="0" r="1" gradientUnits="userSpaceOnUse" gradientTransform="translate(327 34.8) rotate(90) scale(18.2 17.5)">
<stop offset="0.078391" stop-color="white"/>
<stop offset="1" stop-color="#E9E9E9" stop-opacity="0"/>
</radialGradient>
<radialGradient id="paint8_radial_359_4616" cx="0" cy="0" r="1" gradientUnits="userSpaceOnUse" gradientTransform="translate(433.333 32) rotate(90) scale(77.5 97.9467)">
<stop stop-color="#F5F5F5"/>
<stop offset="1" stop-color="#ECECEC" stop-opacity="0"/>
</radialGradient>
<radialGradient id="paint9_radial_359_4616" cx="0" cy="0" r="1" gradientUnits="userSpaceOnUse" gradientTransform="translate(432.833 74.8) rotate(90) scale(18.2 17.5)">
<stop offset="0.078391" stop-color="white"/>
<stop offset="1" stop-color="#E9E9E9" stop-opacity="0"/>
</radialGradient>
<radialGradient id="paint10_radial_359_4616" cx="0" cy="0" r="1" gradientUnits="userSpaceOnUse" gradientTransform="translate(539.167 -7.99999) rotate(90) scale(77.5 97.9467)">
<stop stop-color="#F5F5F5"/>
<stop offset="1" stop-color="#ECECEC" stop-opacity="0"/>
</radialGradient>
<radialGradient id="paint11_radial_359_4616" cx="0" cy="0" r="1" gradientUnits="userSpaceOnUse" gradientTransform="translate(538.667 34.8) rotate(90) scale(18.2 17.5)">
<stop offset="0.078391" stop-color="white"/>
<stop offset="1" stop-color="#E9E9E9" stop-opacity="0"/>
</radialGradient>
<radialGradient id="paint12_radial_359_4616" cx="0" cy="0" r="1" gradientUnits="userSpaceOnUse" gradientTransform="translate(645 32) rotate(90) scale(77.5 97.9467)">
<stop stop-color="#F5F5F5"/>
<stop offset="1" stop-color="#ECECEC" stop-opacity="0"/>
</radialGradient>
<radialGradient id="paint13_radial_359_4616" cx="0" cy="0" r="1" gradientUnits="userSpaceOnUse" gradientTransform="translate(644.5 74.8) rotate(90) scale(18.2 17.5)">
<stop offset="0.078391" stop-color="white"/>
<stop offset="1" stop-color="#E9E9E9" stop-opacity="0"/>
</radialGradient>
</defs>
</svg>
