<svg width="654" height="220" viewBox="0 0 654 220" fill="none" xmlns="http://www.w3.org/2000/svg">
<rect width="654" height="115" fill="white"/>
<circle cx="345.5" cy="-257.5" r="477" stroke="url(#paint0_linear_359_4610)"/>
<circle cx="345.5" cy="-252.497" r="414.717" stroke="url(#paint1_linear_359_4610)"/>
<circle cx="345.5" cy="-243.499" r="352.435" stroke="url(#paint2_linear_359_4610)"/>
<circle cx="345.5" cy="-246.5" r="290.152" stroke="url(#paint3_linear_359_4610)"/>
<g filter="url(#filter0_d_359_4610)">
<rect x="-18" y="60" width="55" height="55" rx="27.5" fill="white" shape-rendering="crispEdges"/>
<rect x="-17.5" y="60.5" width="54" height="54" rx="27" fill="url(#paint4_radial_359_4610)"/>
<rect x="-17.5" y="60.5" width="54" height="54" rx="27" stroke="#F1F1F4"/>
<rect x="-7" y="71" width="33" height="33" rx="16.5" fill="url(#paint5_radial_359_4610)"/>
<rect x="-7" y="71" width="33" height="33" rx="16.5" stroke="white" stroke-width="2"/>
</g>
<g filter="url(#filter1_d_359_4610)">
<rect x="87.8334" y="20" width="55" height="55" rx="27.5" fill="white" shape-rendering="crispEdges"/>
<rect x="88.3334" y="20.5" width="54" height="54" rx="27" fill="url(#paint6_radial_359_4610)"/>
<rect x="88.3334" y="20.5" width="54" height="54" rx="27" stroke="#F1F1F4"/>
<rect x="98.8334" y="31" width="33" height="33" rx="16.5" fill="url(#paint7_radial_359_4610)"/>
<rect x="98.8334" y="31" width="33" height="33" rx="16.5" stroke="white" stroke-width="2"/>
<path d="M117.083 48.0083C117.092 47.9168 117.092 47.8248 117.083 47.7333C117.059 47.5689 117.101 47.4016 117.199 47.2675C117.297 47.1334 117.444 47.0433 117.608 47.0166C117.689 47.0024 117.772 47.0046 117.851 47.0231C117.931 47.0416 118.006 47.076 118.072 47.1243C118.139 47.1725 118.194 47.2336 118.236 47.3039C118.278 47.3742 118.306 47.4522 118.317 47.5333C118.329 47.6914 118.329 47.8502 118.317 48.0083C118.317 48.4023 118.239 48.7924 118.088 49.1564C117.938 49.5203 117.717 49.8511 117.438 50.1296C117.159 50.4082 116.829 50.6292 116.465 50.78C116.101 50.9307 115.711 51.0083 115.317 51.0083H114.983C114.819 50.9895 114.668 50.9061 114.565 50.7764C114.462 50.6466 114.415 50.4813 114.433 50.3166C114.442 50.2355 114.466 50.1568 114.505 50.0851C114.544 50.0134 114.597 49.9501 114.66 49.899C114.724 49.8478 114.797 49.8098 114.875 49.787C114.954 49.7643 115.036 49.7574 115.117 49.7666C115.364 49.7949 115.615 49.7704 115.852 49.6948C116.09 49.6193 116.308 49.4944 116.494 49.3284C116.68 49.1623 116.828 48.9589 116.93 48.7314C117.031 48.5039 117.084 48.2574 117.083 48.0083ZM122.575 43.9833C122.52 43.9204 122.454 43.8689 122.379 43.8317C122.304 43.7945 122.223 43.7723 122.14 43.7665C122.057 43.7607 121.973 43.7714 121.894 43.7978C121.815 43.8243 121.742 43.8661 121.679 43.9208C121.552 44.0313 121.474 44.1878 121.462 44.3558C121.457 44.439 121.467 44.5225 121.494 44.6016C121.52 44.6806 121.562 44.7537 121.617 44.8166C122.444 45.699 122.946 46.8362 123.042 48.0416C123.042 50.8833 119.3 54.55 115.333 54.55C114.256 54.5094 113.201 54.2244 112.25 53.7166C112.176 53.6751 112.095 53.6489 112.011 53.6398C111.926 53.6307 111.841 53.6387 111.76 53.6635C111.679 53.6883 111.604 53.7293 111.54 53.784C111.475 53.8387 111.422 53.9059 111.384 53.9817C111.346 54.0574 111.324 54.14 111.319 54.2246C111.314 54.3091 111.327 54.3938 111.355 54.4734C111.384 54.5531 111.429 54.626 111.487 54.6879C111.544 54.7498 111.614 54.7992 111.692 54.8333C112.819 55.4177 114.064 55.737 115.333 55.7666C119.683 55.7666 124.292 51.7833 124.292 48.0083C124.199 46.5092 123.593 45.0878 122.575 43.9833ZM123.408 40.375L108.167 55.5166C108.052 55.6326 107.896 55.6985 107.733 55.7C107.565 55.6985 107.404 55.6329 107.283 55.5166C107.166 55.398 107.1 55.2378 107.1 55.0708C107.1 54.9038 107.166 54.7436 107.283 54.625L108.95 52.9583C107.283 51.425 106.342 49.625 106.342 48.025C106.375 44.3083 111.067 40.25 115.333 40.25C117.052 40.3075 118.718 40.857 120.133 41.8333L122.5 39.4833C122.553 39.4062 122.623 39.3419 122.704 39.2952C122.785 39.2486 122.875 39.2207 122.968 39.2137C123.062 39.2067 123.155 39.2207 123.243 39.2547C123.33 39.2887 123.408 39.3418 123.472 39.4102C123.536 39.4785 123.584 39.5603 123.612 39.6496C123.64 39.7388 123.647 39.8332 123.634 39.9258C123.621 40.0184 123.587 40.1068 123.535 40.1846C123.483 40.2623 123.414 40.3274 123.333 40.375H123.408ZM109.9 52.0416L112.675 49.2833C112.399 48.7251 112.304 48.0941 112.406 47.4795C112.507 46.8649 112.799 46.2975 113.24 45.8575C113.681 45.4175 114.249 45.127 114.863 45.027C115.478 44.9269 116.109 45.0224 116.667 45.3L119.267 42.7166C118.091 41.9597 116.731 41.5389 115.333 41.5C111.808 41.5 107.625 45 107.625 48.0083C107.625 49.25 108.475 50.7666 109.867 52.0583L109.9 52.0416ZM113.617 48.3333L115.658 46.2916C115.55 46.2834 115.442 46.2834 115.333 46.2916C114.869 46.2916 114.424 46.476 114.096 46.8042C113.768 47.1324 113.583 47.5775 113.583 48.0416C113.584 48.1398 113.596 48.2375 113.617 48.3333Z" fill="#78829D"/>
</g>
<g filter="url(#filter2_d_359_4610)">
<rect x="193.667" y="60" width="55" height="55" rx="27.5" fill="white" shape-rendering="crispEdges"/>
<rect x="194.167" y="60.5" width="54" height="54" rx="27" fill="url(#paint8_radial_359_4610)"/>
<rect x="194.167" y="60.5" width="54" height="54" rx="27" stroke="#F1F1F4"/>
<rect x="204.667" y="71" width="33" height="33" rx="16.5" fill="url(#paint9_radial_359_4610)"/>
<rect x="204.667" y="71" width="33" height="33" rx="16.5" stroke="white" stroke-width="2"/>
</g>
<g filter="url(#filter3_d_359_4610)">
<rect x="299.5" y="20" width="55" height="55" rx="27.5" fill="white" shape-rendering="crispEdges"/>
<g filter="url(#filter4_d_359_4610)">
<rect x="299.5" y="20" width="55" height="55" rx="27.5" fill="url(#paint10_radial_359_4610)" shape-rendering="crispEdges"/>
<rect x="300" y="20.5" width="54" height="54" rx="27" stroke="#F1F1F4" shape-rendering="crispEdges"/>
<rect x="310.5" y="31" width="33" height="33" rx="16.5" fill="url(#paint11_radial_359_4610)"/>
<rect x="310.5" y="31" width="33" height="33" rx="16.5" stroke="white" stroke-width="2"/>
<path d="M332.156 45.0651H330.866V42.1207C330.866 40.0324 329.131 38.3334 326.999 38.3334C324.866 38.3334 323.131 40.0324 323.131 42.1207V45.0651H321.844C320.659 45.0651 319.695 46.0289 319.695 47.2136V54.5183C319.695 55.7029 320.659 56.6667 321.844 56.6667H332.156C333.341 56.6667 334.305 55.7029 334.305 54.5183V47.2136C334.305 46.0289 333.341 45.0651 332.156 45.0651ZM324.564 42.1207C324.564 40.8221 325.656 39.7657 326.999 39.7657C328.341 39.7657 329.434 40.8221 329.434 42.1207V45.0651H324.564V42.1207ZM332.872 54.5183C332.872 54.9132 332.551 55.2344 332.156 55.2344H321.844C321.449 55.2344 321.128 54.9132 321.128 54.5183V47.2136C321.128 46.8187 321.449 46.4974 321.844 46.4974H332.156C332.551 46.4974 332.872 46.8187 332.872 47.2136V54.5183Z" fill="#78829D"/>
<path d="M327 48.5742C326.268 48.5742 325.675 49.1674 325.675 49.8991C325.675 50.3663 325.917 50.7767 326.283 51.0126V52.5846C326.283 52.9801 326.603 53.3008 326.999 53.3008C327.394 53.3008 327.715 52.9801 327.715 52.5846V51.0143C328.082 50.7787 328.325 50.3674 328.325 49.8991C328.325 49.1674 327.732 48.5742 327 48.5742Z" fill="#78829D"/>
</g>
</g>
<g filter="url(#filter5_d_359_4610)">
<rect x="405.333" y="60" width="55" height="55" rx="27.5" fill="white" shape-rendering="crispEdges"/>
<rect x="405.833" y="60.5" width="54" height="54" rx="27" fill="url(#paint12_radial_359_4610)"/>
<rect x="405.833" y="60.5" width="54" height="54" rx="27" stroke="#F1F1F4"/>
<rect x="416.333" y="71" width="33" height="33" rx="16.5" fill="url(#paint13_radial_359_4610)"/>
<rect x="416.333" y="71" width="33" height="33" rx="16.5" stroke="white" stroke-width="2"/>
</g>
<g filter="url(#filter6_d_359_4610)">
<rect x="511.167" y="20" width="55" height="55" rx="27.5" fill="white" shape-rendering="crispEdges"/>
<g filter="url(#filter7_d_359_4610)">
<rect x="511.167" y="20" width="55" height="55" rx="27.5" fill="url(#paint14_radial_359_4610)" shape-rendering="crispEdges"/>
<rect x="511.667" y="20.5" width="54" height="54" rx="27" stroke="#F1F1F4" shape-rendering="crispEdges"/>
<rect x="522.167" y="31" width="33" height="33" rx="16.5" fill="url(#paint15_radial_359_4610)"/>
<rect x="522.167" y="31" width="33" height="33" rx="16.5" stroke="white" stroke-width="2"/>
<path d="M538.667 56.4584C537.867 56.459 537.093 56.1821 536.475 55.675L532.65 52.55C532.253 52.2268 531.933 51.8189 531.714 51.356C531.494 50.8932 531.382 50.3871 531.383 49.875V43.75C531.384 43.0883 531.574 42.4406 531.931 41.8837C532.289 41.3268 532.799 40.8842 533.4 40.6084L537.225 38.8584C537.677 38.6482 538.169 38.5393 538.667 38.5393C539.165 38.5393 539.657 38.6482 540.108 38.8584L543.933 40.6084C544.535 40.8842 545.045 41.3268 545.402 41.8837C545.759 42.4406 545.95 43.0883 545.95 43.75V49.875C545.952 50.3871 545.839 50.8932 545.62 51.356C545.401 51.8189 545.081 52.2268 544.683 52.55L540.858 55.675C540.241 56.1821 539.466 56.459 538.667 56.4584ZM538.667 39.7917C538.35 39.794 538.037 39.8651 537.75 40L533.925 41.7417C533.54 41.9183 533.215 42.2012 532.986 42.5571C532.757 42.9129 532.634 43.3269 532.633 43.75V49.875C532.641 50.1971 532.719 50.5136 532.863 50.8017C533.007 51.0899 533.213 51.3426 533.467 51.5417L537.292 54.6667C537.687 54.9888 538.182 55.1648 538.692 55.1648C539.202 55.1648 539.696 54.9888 540.092 54.6667L543.917 51.5417C544.17 51.3426 544.376 51.0899 544.52 50.8017C544.664 50.5136 544.743 50.1971 544.75 49.875V43.75C544.749 43.3269 544.627 42.9129 544.398 42.5571C544.169 42.2012 543.843 41.9183 543.458 41.7417L539.583 40C539.296 39.8651 538.984 39.794 538.667 39.7917ZM538 49.6417L541.483 46.25C541.6 46.1328 541.666 45.974 541.666 45.8084C541.666 45.6427 541.6 45.4839 541.483 45.3667C541.366 45.2497 541.207 45.1839 541.042 45.1839C540.876 45.1839 540.717 45.2497 540.6 45.3667L537.575 48.3334L536.742 47.5C536.693 47.4215 536.628 47.3547 536.551 47.3044C536.473 47.254 536.386 47.2215 536.294 47.209C536.203 47.1966 536.11 47.2045 536.022 47.2323C535.934 47.2601 535.853 47.307 535.785 47.3697C535.717 47.4324 535.664 47.5093 535.63 47.5949C535.596 47.6805 535.58 47.7727 535.586 47.8649C535.591 47.957 535.617 48.0468 535.661 48.1278C535.705 48.2088 535.767 48.279 535.842 48.3334L537.117 49.6417C537.175 49.7019 537.245 49.7498 537.322 49.7827C537.4 49.8156 537.483 49.8328 537.567 49.8334C537.648 49.8316 537.728 49.8137 537.802 49.7808C537.877 49.7479 537.944 49.7006 538 49.6417Z" fill="#78829D"/>
</g>
</g>
<g filter="url(#filter8_d_359_4610)">
<rect x="617" y="60" width="55" height="55" rx="27.5" fill="white" shape-rendering="crispEdges"/>
<rect x="617.5" y="60.5" width="54" height="54" rx="27" fill="url(#paint16_radial_359_4610)"/>
<rect x="617.5" y="60.5" width="54" height="54" rx="27" stroke="#F1F1F4"/>
<rect x="628" y="71" width="33" height="33" rx="16.5" fill="url(#paint17_radial_359_4610)"/>
<rect x="628" y="71" width="33" height="33" rx="16.5" stroke="white" stroke-width="2"/>
</g>
<defs>
<filter id="filter0_d_359_4610" x="-22" y="59" width="63" height="63" filterUnits="userSpaceOnUse" color-interpolation-filters="sRGB">
<feFlood flood-opacity="0" result="BackgroundImageFix"/>
<feColorMatrix in="SourceAlpha" type="matrix" values="0 0 0 0 0 0 0 0 0 0 0 0 0 0 0 0 0 0 127 0" result="hardAlpha"/>
<feOffset dy="3"/>
<feGaussianBlur stdDeviation="2"/>
<feComposite in2="hardAlpha" operator="out"/>
<feColorMatrix type="matrix" values="0 0 0 0 0 0 0 0 0 0 0 0 0 0 0 0 0 0 0.03 0"/>
<feBlend mode="normal" in2="BackgroundImageFix" result="effect1_dropShadow_359_4610"/>
<feBlend mode="normal" in="SourceGraphic" in2="effect1_dropShadow_359_4610" result="shape"/>
</filter>
<filter id="filter1_d_359_4610" x="75.8334" y="12" width="79" height="79" filterUnits="userSpaceOnUse" color-interpolation-filters="sRGB">
<feFlood flood-opacity="0" result="BackgroundImageFix"/>
<feColorMatrix in="SourceAlpha" type="matrix" values="0 0 0 0 0 0 0 0 0 0 0 0 0 0 0 0 0 0 127 0" result="hardAlpha"/>
<feOffset dy="4"/>
<feGaussianBlur stdDeviation="6"/>
<feComposite in2="hardAlpha" operator="out"/>
<feColorMatrix type="matrix" values="0 0 0 0 0 0 0 0 0 0 0 0 0 0 0 0 0 0 0.07 0"/>
<feBlend mode="normal" in2="BackgroundImageFix" result="effect1_dropShadow_359_4610"/>
<feBlend mode="normal" in="SourceGraphic" in2="effect1_dropShadow_359_4610" result="shape"/>
</filter>
<filter id="filter2_d_359_4610" x="189.667" y="59" width="63" height="63" filterUnits="userSpaceOnUse" color-interpolation-filters="sRGB">
<feFlood flood-opacity="0" result="BackgroundImageFix"/>
<feColorMatrix in="SourceAlpha" type="matrix" values="0 0 0 0 0 0 0 0 0 0 0 0 0 0 0 0 0 0 127 0" result="hardAlpha"/>
<feOffset dy="3"/>
<feGaussianBlur stdDeviation="2"/>
<feComposite in2="hardAlpha" operator="out"/>
<feColorMatrix type="matrix" values="0 0 0 0 0 0 0 0 0 0 0 0 0 0 0 0 0 0 0.03 0"/>
<feBlend mode="normal" in2="BackgroundImageFix" result="effect1_dropShadow_359_4610"/>
<feBlend mode="normal" in="SourceGraphic" in2="effect1_dropShadow_359_4610" result="shape"/>
</filter>
<filter id="filter3_d_359_4610" x="285.5" y="16" width="83" height="83" filterUnits="userSpaceOnUse" color-interpolation-filters="sRGB">
<feFlood flood-opacity="0" result="BackgroundImageFix"/>
<feColorMatrix in="SourceAlpha" type="matrix" values="0 0 0 0 0 0 0 0 0 0 0 0 0 0 0 0 0 0 127 0" result="hardAlpha"/>
<feOffset dy="10"/>
<feGaussianBlur stdDeviation="7"/>
<feComposite in2="hardAlpha" operator="out"/>
<feColorMatrix type="matrix" values="0 0 0 0 0.0588235 0 0 0 0 0.164706 0 0 0 0 0.317647 0 0 0 0.03 0"/>
<feBlend mode="normal" in2="BackgroundImageFix" result="effect1_dropShadow_359_4610"/>
<feBlend mode="normal" in="SourceGraphic" in2="effect1_dropShadow_359_4610" result="shape"/>
</filter>
<filter id="filter4_d_359_4610" x="287.5" y="12" width="79" height="79" filterUnits="userSpaceOnUse" color-interpolation-filters="sRGB">
<feFlood flood-opacity="0" result="BackgroundImageFix"/>
<feColorMatrix in="SourceAlpha" type="matrix" values="0 0 0 0 0 0 0 0 0 0 0 0 0 0 0 0 0 0 127 0" result="hardAlpha"/>
<feOffset dy="4"/>
<feGaussianBlur stdDeviation="6"/>
<feComposite in2="hardAlpha" operator="out"/>
<feColorMatrix type="matrix" values="0 0 0 0 0 0 0 0 0 0 0 0 0 0 0 0 0 0 0.07 0"/>
<feBlend mode="normal" in2="BackgroundImageFix" result="effect1_dropShadow_359_4610"/>
<feBlend mode="normal" in="SourceGraphic" in2="effect1_dropShadow_359_4610" result="shape"/>
</filter>
<filter id="filter5_d_359_4610" x="401.333" y="59" width="63" height="63" filterUnits="userSpaceOnUse" color-interpolation-filters="sRGB">
<feFlood flood-opacity="0" result="BackgroundImageFix"/>
<feColorMatrix in="SourceAlpha" type="matrix" values="0 0 0 0 0 0 0 0 0 0 0 0 0 0 0 0 0 0 127 0" result="hardAlpha"/>
<feOffset dy="3"/>
<feGaussianBlur stdDeviation="2"/>
<feComposite in2="hardAlpha" operator="out"/>
<feColorMatrix type="matrix" values="0 0 0 0 0 0 0 0 0 0 0 0 0 0 0 0 0 0 0.03 0"/>
<feBlend mode="normal" in2="BackgroundImageFix" result="effect1_dropShadow_359_4610"/>
<feBlend mode="normal" in="SourceGraphic" in2="effect1_dropShadow_359_4610" result="shape"/>
</filter>
<filter id="filter6_d_359_4610" x="497.167" y="16" width="83" height="83" filterUnits="userSpaceOnUse" color-interpolation-filters="sRGB">
<feFlood flood-opacity="0" result="BackgroundImageFix"/>
<feColorMatrix in="SourceAlpha" type="matrix" values="0 0 0 0 0 0 0 0 0 0 0 0 0 0 0 0 0 0 127 0" result="hardAlpha"/>
<feOffset dy="10"/>
<feGaussianBlur stdDeviation="7"/>
<feComposite in2="hardAlpha" operator="out"/>
<feColorMatrix type="matrix" values="0 0 0 0 0.0588235 0 0 0 0 0.164706 0 0 0 0 0.317647 0 0 0 0.03 0"/>
<feBlend mode="normal" in2="BackgroundImageFix" result="effect1_dropShadow_359_4610"/>
<feBlend mode="normal" in="SourceGraphic" in2="effect1_dropShadow_359_4610" result="shape"/>
</filter>
<filter id="filter7_d_359_4610" x="499.167" y="12" width="79" height="79" filterUnits="userSpaceOnUse" color-interpolation-filters="sRGB">
<feFlood flood-opacity="0" result="BackgroundImageFix"/>
<feColorMatrix in="SourceAlpha" type="matrix" values="0 0 0 0 0 0 0 0 0 0 0 0 0 0 0 0 0 0 127 0" result="hardAlpha"/>
<feOffset dy="4"/>
<feGaussianBlur stdDeviation="6"/>
<feComposite in2="hardAlpha" operator="out"/>
<feColorMatrix type="matrix" values="0 0 0 0 0 0 0 0 0 0 0 0 0 0 0 0 0 0 0.07 0"/>
<feBlend mode="normal" in2="BackgroundImageFix" result="effect1_dropShadow_359_4610"/>
<feBlend mode="normal" in="SourceGraphic" in2="effect1_dropShadow_359_4610" result="shape"/>
</filter>
<filter id="filter8_d_359_4610" x="613" y="59" width="63" height="63" filterUnits="userSpaceOnUse" color-interpolation-filters="sRGB">
<feFlood flood-opacity="0" result="BackgroundImageFix"/>
<feColorMatrix in="SourceAlpha" type="matrix" values="0 0 0 0 0 0 0 0 0 0 0 0 0 0 0 0 0 0 127 0" result="hardAlpha"/>
<feOffset dy="3"/>
<feGaussianBlur stdDeviation="2"/>
<feComposite in2="hardAlpha" operator="out"/>
<feColorMatrix type="matrix" values="0 0 0 0 0 0 0 0 0 0 0 0 0 0 0 0 0 0 0.03 0"/>
<feBlend mode="normal" in2="BackgroundImageFix" result="effect1_dropShadow_359_4610"/>
<feBlend mode="normal" in="SourceGraphic" in2="effect1_dropShadow_359_4610" result="shape"/>
</filter>
<linearGradient id="paint0_linear_359_4610" x1="345.5" y1="-735" x2="345.5" y2="220" gradientUnits="userSpaceOnUse">
<stop offset="0.879862" stop-color="#F1F1F4"/>
<stop offset="1" stop-color="white"/>
</linearGradient>
<linearGradient id="paint1_linear_359_4610" x1="346" y1="38" x2="346" y2="217" gradientUnits="userSpaceOnUse">
<stop stop-color="#F1F1F4"/>
<stop offset="0.668469" stop-color="#FBFBFF"/>
</linearGradient>
<linearGradient id="paint2_linear_359_4610" x1="605" y1="-1.49991" x2="74.5003" y2="-4.49994" gradientUnits="userSpaceOnUse">
<stop stop-color="#FAFAFA"/>
<stop offset="0.592862" stop-color="#F1F1F4"/>
<stop offset="1" stop-color="#FAFAFA"/>
</linearGradient>
<linearGradient id="paint3_linear_359_4610" x1="190.5" y1="-13" x2="475.391" y2="-103.882" gradientUnits="userSpaceOnUse">
<stop stop-color="#FBFBFB"/>
<stop offset="0.384356" stop-color="#F1F1F4"/>
<stop offset="1" stop-color="#FBFBFB"/>
</linearGradient>
<radialGradient id="paint4_radial_359_4610" cx="0" cy="0" r="1" gradientUnits="userSpaceOnUse" gradientTransform="translate(10 44) rotate(90) scale(77.5 97.9467)">
<stop stop-color="#F5F5F5"/>
<stop offset="1" stop-color="#ECECEC" stop-opacity="0"/>
</radialGradient>
<radialGradient id="paint5_radial_359_4610" cx="0" cy="0" r="1" gradientUnits="userSpaceOnUse" gradientTransform="translate(9.5 86.8) rotate(90) scale(18.2 17.5)">
<stop offset="0.078391" stop-color="white"/>
<stop offset="1" stop-color="#E9E9E9" stop-opacity="0"/>
</radialGradient>
<radialGradient id="paint6_radial_359_4610" cx="0" cy="0" r="1" gradientUnits="userSpaceOnUse" gradientTransform="translate(115.833 4.00001) rotate(90) scale(77.5 97.9467)">
<stop stop-color="#F5F5F5"/>
<stop offset="1" stop-color="#ECECEC" stop-opacity="0"/>
</radialGradient>
<radialGradient id="paint7_radial_359_4610" cx="0" cy="0" r="1" gradientUnits="userSpaceOnUse" gradientTransform="translate(115.333 46.8) rotate(90) scale(18.2 17.5)">
<stop offset="0.078391" stop-color="white"/>
<stop offset="1" stop-color="#E9E9E9" stop-opacity="0"/>
</radialGradient>
<radialGradient id="paint8_radial_359_4610" cx="0" cy="0" r="1" gradientUnits="userSpaceOnUse" gradientTransform="translate(221.667 44) rotate(90) scale(77.5 97.9467)">
<stop stop-color="#F5F5F5"/>
<stop offset="1" stop-color="#ECECEC" stop-opacity="0"/>
</radialGradient>
<radialGradient id="paint9_radial_359_4610" cx="0" cy="0" r="1" gradientUnits="userSpaceOnUse" gradientTransform="translate(221.167 86.8) rotate(90) scale(18.2 17.5)">
<stop offset="0.078391" stop-color="white"/>
<stop offset="1" stop-color="#E9E9E9" stop-opacity="0"/>
</radialGradient>
<radialGradient id="paint10_radial_359_4610" cx="0" cy="0" r="1" gradientUnits="userSpaceOnUse" gradientTransform="translate(327.5 4.00001) rotate(90) scale(77.5 97.9467)">
<stop stop-color="#F5F5F5"/>
<stop offset="1" stop-color="#ECECEC" stop-opacity="0"/>
</radialGradient>
<radialGradient id="paint11_radial_359_4610" cx="0" cy="0" r="1" gradientUnits="userSpaceOnUse" gradientTransform="translate(327 46.8) rotate(90) scale(18.2 17.5)">
<stop offset="0.078391" stop-color="white"/>
<stop offset="1" stop-color="#E9E9E9" stop-opacity="0"/>
</radialGradient>
<radialGradient id="paint12_radial_359_4610" cx="0" cy="0" r="1" gradientUnits="userSpaceOnUse" gradientTransform="translate(433.333 44) rotate(90) scale(77.5 97.9467)">
<stop stop-color="#F5F5F5"/>
<stop offset="1" stop-color="#ECECEC" stop-opacity="0"/>
</radialGradient>
<radialGradient id="paint13_radial_359_4610" cx="0" cy="0" r="1" gradientUnits="userSpaceOnUse" gradientTransform="translate(432.833 86.8) rotate(90) scale(18.2 17.5)">
<stop offset="0.078391" stop-color="white"/>
<stop offset="1" stop-color="#E9E9E9" stop-opacity="0"/>
</radialGradient>
<radialGradient id="paint14_radial_359_4610" cx="0" cy="0" r="1" gradientUnits="userSpaceOnUse" gradientTransform="translate(539.167 4.00001) rotate(90) scale(77.5 97.9467)">
<stop stop-color="#F5F5F5"/>
<stop offset="1" stop-color="#ECECEC" stop-opacity="0"/>
</radialGradient>
<radialGradient id="paint15_radial_359_4610" cx="0" cy="0" r="1" gradientUnits="userSpaceOnUse" gradientTransform="translate(538.667 46.8) rotate(90) scale(18.2 17.5)">
<stop offset="0.078391" stop-color="white"/>
<stop offset="1" stop-color="#E9E9E9" stop-opacity="0"/>
</radialGradient>
<radialGradient id="paint16_radial_359_4610" cx="0" cy="0" r="1" gradientUnits="userSpaceOnUse" gradientTransform="translate(645 44) rotate(90) scale(77.5 97.9467)">
<stop stop-color="#F5F5F5"/>
<stop offset="1" stop-color="#ECECEC" stop-opacity="0"/>
</radialGradient>
<radialGradient id="paint17_radial_359_4610" cx="0" cy="0" r="1" gradientUnits="userSpaceOnUse" gradientTransform="translate(644.5 86.8) rotate(90) scale(18.2 17.5)">
<stop offset="0.078391" stop-color="white"/>
<stop offset="1" stop-color="#E9E9E9" stop-opacity="0"/>
</radialGradient>
</defs>
</svg>
