<svg width="36" height="66" viewBox="0 0 36 66" fill="none" xmlns="http://www.w3.org/2000/svg">
<rect x="0.5" y="0.5" width="35" height="35" rx="17.5" fill="#F9F9F9"/>
<rect x="0.5" y="0.5" width="35" height="35" rx="17.5" stroke="#DBDFE9"/>
<path opacity="0.1" fill-rule="evenodd" clip-rule="evenodd" d="M20.6876 12.642C20.6452 12.2007 20.4946 11.7752 20.2475 11.404C19.951 10.9587 19.529 10.6115 19.0349 10.4064C18.5408 10.2014 17.9969 10.1477 17.4723 10.2523C16.9477 10.3568 16.4659 10.6148 16.0882 10.9936C15.7104 11.3724 15.4537 11.8549 15.3506 12.3798C15.3321 12.474 15.3187 12.5687 15.3103 12.6637C15.2836 12.6772 15.257 12.691 15.2304 12.7049L14.0021 13.3502C13.2214 13.921 12.5691 14.6493 12.0873 15.4878C11.6055 16.3264 11.305 17.2567 11.205 18.2187L11.2174 19.4051C11.2185 19.5023 11.2218 19.5993 11.2275 19.6958C11.0603 19.802 10.9045 19.9268 10.7632 20.0685C10.3854 20.4473 10.1287 20.9298 10.0256 21.4547C9.9225 21.9796 9.97764 22.5233 10.184 23.0168C10.3905 23.5104 10.7388 23.9315 11.1849 24.2267C11.631 24.5219 12.1548 24.678 12.6897 24.675C13.1263 24.6727 13.5515 24.5646 13.9311 24.3651L15.1587 25.219C16.0647 25.6344 17.0499 25.8485 18.0466 25.8465C18.9926 25.8514 19.9294 25.6609 20.7983 25.287L22.0588 24.3981C22.4325 24.5818 22.8452 24.6773 23.2647 24.675C23.977 24.6712 24.6588 24.386 25.1618 23.8817C25.6647 23.3773 25.948 22.6947 25.95 21.9824C25.9514 21.4475 25.7939 20.9242 25.4975 20.4789C25.321 20.2138 25.1001 19.9835 24.8459 19.7972C24.8531 19.7097 24.8583 19.6218 24.8616 19.5335L24.9108 18.2262C24.8115 17.2809 24.5186 16.3662 24.0504 15.539C23.5821 14.7119 22.9486 13.9899 22.1893 13.4182L20.7783 12.688C20.7482 12.6724 20.7179 12.6571 20.6876 12.642Z" fill="#78829D"/>
<path d="M18.0413 25.8415C17.0447 25.8435 16.0594 25.6295 15.1535 25.2141C15.0183 25.1485 14.9137 25.0332 14.8616 24.8923C14.8095 24.7514 14.8138 24.5958 14.8738 24.4581C14.9379 24.3216 15.0531 24.2157 15.1945 24.1634C15.3359 24.1111 15.4922 24.1164 15.6298 24.1784C16.3667 24.5137 17.1656 24.6917 17.9753 24.7008C18.7849 24.7099 19.5876 24.55 20.3319 24.2313C20.4696 24.1792 20.6221 24.1819 20.7578 24.239C20.8935 24.296 21.0022 24.4029 21.0614 24.5378C21.1205 24.6726 21.1257 24.825 21.0758 24.9635C21.0258 25.102 20.9246 25.216 20.7931 25.2821C19.9241 25.656 18.9873 25.8464 18.0413 25.8415ZM24.3991 18.8487C24.4737 18.8412 24.5461 18.8189 24.6121 18.7832C24.678 18.7475 24.7362 18.6991 24.7833 18.6407C24.8305 18.5824 24.8655 18.5153 24.8865 18.4432C24.9075 18.3712 24.914 18.2958 24.9056 18.2213C24.8062 17.276 24.5133 16.3613 24.0451 15.5341C23.5769 14.7069 22.9434 13.985 22.1841 13.4132C22.0621 13.3375 21.9163 13.3101 21.7752 13.3365C21.6341 13.3629 21.508 13.4412 21.4217 13.5559C21.3354 13.6707 21.2952 13.8135 21.309 13.9564C21.3228 14.0993 21.3895 14.2319 21.4961 14.328C22.128 14.8053 22.6553 15.4071 23.0454 16.0962C23.4355 16.7854 23.6801 17.5472 23.7641 18.3347C23.7789 18.475 23.8449 18.605 23.9495 18.6998C24.0541 18.7946 24.1899 18.8476 24.3311 18.8487H24.3991ZM12.3035 18.3347C12.3903 17.5286 12.6459 16.7499 13.0536 16.0492C13.4613 15.3485 14.0119 14.7414 14.6697 14.2675C14.7401 14.2275 14.8012 14.1731 14.8492 14.1079C14.8971 14.0426 14.9307 13.968 14.9477 13.8888C14.9648 13.8097 14.9649 13.7278 14.9481 13.6486C14.9313 13.5694 14.8979 13.4946 14.8502 13.4292C14.8025 13.3638 14.7415 13.3092 14.6712 13.269C14.6009 13.2289 14.5229 13.204 14.4423 13.1961C14.3618 13.1881 14.2804 13.1973 14.2037 13.223C14.1269 13.2487 14.0564 13.2904 13.9968 13.3452C13.2162 13.9161 12.5639 14.6443 12.0821 15.4829C11.6003 16.3215 11.2997 17.2518 11.1997 18.2137C11.1913 18.2882 11.1978 18.3637 11.2188 18.4357C11.2398 18.5077 11.2749 18.5748 11.322 18.6332C11.3691 18.6915 11.4273 18.74 11.4933 18.7757C11.5592 18.8114 11.6316 18.8336 11.7062 18.8412H11.7667C11.9027 18.8349 12.0321 18.7806 12.1318 18.6878C12.2315 18.5951 12.295 18.4699 12.311 18.3347H12.3035ZM20.7553 12.9219C20.7568 12.3737 20.5954 11.8374 20.2916 11.381C19.9878 10.9247 19.5553 10.5689 19.049 10.3588C18.5426 10.1487 17.9853 10.0937 17.4477 10.2008C16.91 10.308 16.4164 10.5724 16.0293 10.9605C15.6421 11.3487 15.3791 11.8431 15.2734 12.381C15.1678 12.919 15.2243 13.4762 15.4358 13.9819C15.6473 14.4877 16.0043 14.9192 16.4614 15.2217C16.9186 15.5243 17.4553 15.6842 18.0035 15.6812C18.7334 15.6772 19.4322 15.385 19.9476 14.8681C20.463 14.3513 20.7533 13.6518 20.7553 12.9219ZM19.6213 12.9219C19.6213 13.2455 19.5251 13.5618 19.345 13.8306C19.1649 14.0995 18.909 14.3087 18.6097 14.4319C18.3105 14.555 17.9814 14.5864 17.6642 14.5222C17.3471 14.458 17.0562 14.3009 16.8284 14.071C16.6006 13.8412 16.4463 13.5488 16.385 13.2311C16.3238 12.9133 16.3583 12.5845 16.4842 12.2864C16.6101 11.9883 16.8217 11.7344 17.0922 11.5568C17.3628 11.3792 17.6799 11.286 18.0035 11.2889C18.434 11.2929 18.8454 11.4667 19.1484 11.7725C19.4514 12.0783 19.6213 12.4914 19.6213 12.9219ZM15.471 21.9936C15.4785 21.4445 15.3224 20.9056 15.0227 20.4454C14.7229 19.9853 14.293 19.6248 13.7877 19.4098C13.2823 19.1948 12.7245 19.135 12.1851 19.2381C11.6457 19.3412 11.1492 19.6024 10.7587 19.9886C10.3683 20.3747 10.1016 20.8684 9.99256 21.4066C9.88355 21.9448 9.93718 22.5033 10.1466 23.011C10.356 23.5186 10.7118 23.9525 11.1686 24.2573C11.6254 24.5621 12.1625 24.7241 12.7117 24.7227C13.4442 24.7207 14.146 24.4283 14.6633 23.9096C15.1805 23.3909 15.471 22.6883 15.471 21.9558V21.9936ZM14.337 21.9936C14.3296 22.3152 14.2273 22.6274 14.0431 22.891C13.8589 23.1547 13.6009 23.3581 13.3015 23.4757C13.0021 23.5932 12.6747 23.6198 12.3602 23.552C12.0458 23.4841 11.7584 23.325 11.5341 23.0944C11.3098 22.8639 11.1586 22.5722 11.0995 22.256C11.0403 21.9399 11.0759 21.6133 11.2017 21.3172C11.3274 21.0212 11.5379 20.7689 11.8065 20.592C12.0751 20.4151 12.39 20.3215 12.7117 20.3229C13.1434 20.3249 13.5568 20.4978 13.8614 20.8038C14.166 21.1098 14.337 21.524 14.337 21.9558V21.9936ZM26.0622 21.9936C26.0697 21.4448 25.9139 20.9062 25.6144 20.4462C25.315 19.9863 24.8855 19.6258 24.3807 19.4105C23.8758 19.1953 23.3183 19.1351 22.7791 19.2375C22.2399 19.34 21.7434 19.6005 21.3526 19.9859C20.9619 20.3713 20.6946 20.8642 20.5847 21.4019C20.4749 21.9397 20.5274 22.4979 20.7357 23.0057C20.9439 23.5135 21.2985 23.9479 21.7543 24.2536C22.2101 24.5593 22.7465 24.7226 23.2954 24.7227C24.0292 24.7227 24.733 24.4312 25.2518 23.9123C25.7707 23.3934 26.0622 22.6896 26.0622 21.9558V21.9936ZM24.9283 21.9936C24.9208 22.3148 24.8188 22.6267 24.6349 22.8903C24.451 23.1538 24.1935 23.3572 23.8945 23.475C23.5956 23.5928 23.2685 23.6198 22.9543 23.5526C22.64 23.4854 22.3526 23.3269 22.128 23.0971C21.9034 22.8673 21.7516 22.5764 21.6916 22.2607C21.6316 21.945 21.6661 21.6187 21.7907 21.3225C21.9153 21.0263 22.1246 20.7735 22.3922 20.5957C22.6599 20.4179 22.974 20.323 23.2954 20.3229C23.7284 20.3229 24.1438 20.4949 24.45 20.8011C24.7562 21.1074 24.9283 21.5227 24.9283 21.9558V21.9936Z" fill="#78829D"/>
<rect width="1" height="30" transform="translate(17.5 36)" fill="#DBDFE9"/>
</svg>
