<svg width="36" height="66" viewBox="0 0 36 66" fill="none" xmlns="http://www.w3.org/2000/svg">
<rect x="0.5" y="0.5" width="35" height="35" rx="17.5" fill="#F9F9F9"/>
<rect x="0.5" y="0.5" width="35" height="35" rx="17.5" stroke="#DBDFE9"/>
<path opacity="0.1" d="M25.5705 13.4983V22.5763C25.5394 23.5195 25.1357 24.412 24.4478 25.0581C23.76 25.7042 22.844 26.0513 21.9007 26.0232H18.6023C17.6582 26.0513 16.7415 25.7045 16.0524 25.0585C15.3633 24.4126 14.958 23.5202 14.925 22.5763V13.4983C14.958 12.5544 15.3633 11.662 16.0524 11.0161C16.7415 10.3702 17.6582 10.0233 18.6023 10.0514H21.9007C22.844 10.0233 23.76 10.3704 24.4478 11.0165C25.1357 11.6626 25.5394 12.5551 25.5705 13.4983Z" fill="#78829D"/>
<path d="M20.2275 18.4049L17.9775 20.6549C17.8695 20.7612 17.724 20.8207 17.5725 20.8207C17.421 20.8207 17.2755 20.7612 17.1675 20.6549C17.114 20.6019 17.0715 20.5388 17.0425 20.4693C17.0135 20.3998 16.9986 20.3252 16.9986 20.2499C16.9986 20.1746 17.0135 20.1 17.0425 20.0305C17.0715 19.961 17.114 19.8979 17.1675 19.8449L18.42 18.5924H10.8825C10.8076 18.5924 10.7335 18.5776 10.6644 18.549C10.5952 18.5204 10.5324 18.4784 10.4794 18.4254C10.4265 18.3725 10.3845 18.3097 10.3559 18.2405C10.3272 18.1714 10.3125 18.0972 10.3125 18.0224C10.3125 17.9475 10.3272 17.8734 10.3559 17.8043C10.3845 17.7351 10.4265 17.6723 10.4794 17.6193C10.5324 17.5664 10.5952 17.5244 10.6644 17.4958C10.7335 17.4671 10.8076 17.4524 10.8825 17.4524H18.4425L17.19 16.1774C17.0826 16.07 17.0222 15.9243 17.0222 15.7724C17.0222 15.6205 17.0826 15.4748 17.19 15.3674C17.2974 15.26 17.4431 15.1996 17.595 15.1996C17.7469 15.1996 17.8926 15.26 18 15.3674L20.25 17.6174C20.3483 17.7263 20.4009 17.869 20.3967 18.0156C20.3925 18.1623 20.3319 18.3018 20.2275 18.4049ZM25.6875 22.5824V13.4174C25.6562 12.4651 25.2486 11.5641 24.5541 10.9118C23.8596 10.2595 22.9349 9.90908 21.9825 9.93739H18.6525C17.6994 9.90905 16.7738 10.2592 16.0782 10.9113C15.3825 11.5634 14.9733 12.4644 14.94 13.4174C14.9419 13.5699 15.0034 13.7157 15.1113 13.8236C15.2192 13.9315 15.3649 13.9929 15.5175 13.9949C15.6694 13.9929 15.8143 13.9312 15.921 13.8231C16.0277 13.715 16.0875 13.5693 16.0875 13.4174C16.1186 12.7674 16.406 12.1562 16.8867 11.7177C17.3675 11.2791 18.0024 11.0489 18.6525 11.0774H21.9825C22.6326 11.0489 23.2675 11.2791 23.7483 11.7177C24.229 12.1562 24.5164 12.7674 24.5475 13.4174V22.5824C24.5164 23.2324 24.229 23.8435 23.7483 24.2821C23.2675 24.7207 22.6326 24.9509 21.9825 24.9224H18.6525C18.0024 24.9509 17.3675 24.7207 16.8867 24.2821C16.406 23.8435 16.1186 23.2324 16.0875 22.5824C16.0875 22.4305 16.0277 22.2847 15.921 22.1767C15.8143 22.0686 15.6694 22.0069 15.5175 22.0049C15.3649 22.0068 15.2192 22.0683 15.1113 22.1762C15.0034 22.2841 14.9419 22.4298 14.94 22.5824C14.9733 23.5353 15.3825 24.4363 16.0782 25.0884C16.7738 25.7406 17.6994 26.0907 18.6525 26.0624H21.9825C22.9349 26.0907 23.8596 25.7403 24.5541 25.088C25.2486 24.4357 25.6562 23.5347 25.6875 22.5824Z" fill="#78829D"/>
<rect width="1" height="30" transform="translate(17.5 36)" fill="#DBDFE9"/>
</svg>
