<svg width="18" height="18" viewBox="0 0 18 18" fill="none" xmlns="http://www.w3.org/2000/svg">
<g clip-path="url(#clip0_521_6854)">
<path opacity="0.1" d="M13.3985 17.0249C12.5846 17.0249 10.7718 17.0249 8.95897 17.0249H4.51942C4.05687 17.0283 3.59826 16.9398 3.1702 16.7645C2.74214 16.5892 2.35317 16.3307 2.02587 16.0038C1.69103 15.6841 1.4251 15.2993 1.24442 14.873C1.06373 14.4467 0.972107 13.988 0.975172 13.5251V9.33708C0.982815 8.55937 1.15718 7.79234 1.4865 7.08775C1.81582 6.38316 2.29243 5.7574 2.88418 5.25269L6.6578 1.98962C7.30622 1.43178 8.13321 1.125 8.98856 1.125C9.84392 1.125 10.6709 1.43178 11.3193 1.98962L15.0708 5.28229C15.6545 5.79494 16.1217 6.42672 16.4408 7.13509C16.7598 7.84346 16.9234 8.61197 16.9206 9.38888V13.5473C16.921 14.0048 16.8288 14.4576 16.6495 14.8786C16.4702 15.2995 16.2075 15.6797 15.8773 15.9964C15.5523 16.3228 15.166 16.5817 14.7406 16.7582C14.3152 16.9348 13.8591 17.0254 13.3985 17.0249Z" fill="#78829D"/>
<path d="M13.4875 17.0355H4.51253C4.04419 17.0404 3.57954 16.9523 3.14552 16.7763C2.71149 16.6003 2.31675 16.3398 1.98418 16.01C1.65161 15.6802 1.38784 15.2877 1.20816 14.8552C1.02849 14.4226 0.936492 13.9587 0.937508 13.4904V9.25718C0.947265 8.47251 1.12445 7.69896 1.45722 6.98828C1.79 6.27759 2.27068 5.64615 2.86712 5.13619L6.68895 1.8379C7.34179 1.27168 8.17696 0.959961 9.04113 0.959961C9.90531 0.959961 10.7405 1.27168 11.3933 1.8379L15.1852 5.18854C15.7763 5.70635 16.2496 6.34471 16.5734 7.06068C16.8972 7.77666 17.064 8.55366 17.0625 9.33945V13.5427C17.0595 14.0047 16.9648 14.4614 16.7838 14.8864C16.6027 15.3114 16.339 15.6961 16.0079 16.0183C15.6754 16.3453 15.2816 16.6035 14.8491 16.778C14.4165 16.9526 13.9538 17.0401 13.4875 17.0355ZM11.2437 15.9136H13.4875C14.1277 15.9164 14.7432 15.6664 15.2002 15.218C15.4328 15.0032 15.6192 14.7432 15.7478 14.4538C15.8764 14.1644 15.9445 13.8519 15.9481 13.5352V9.33197C15.9501 8.70705 15.8176 8.08901 15.5595 7.51988C15.3014 6.95074 14.9238 6.44386 14.4523 6.03368L10.6529 2.69799C10.2036 2.31106 9.63034 2.09823 9.03739 2.09823C8.44445 2.09823 7.8712 2.31106 7.42191 2.69799L3.60008 6.01125C3.13031 6.42122 2.75376 6.92703 2.49575 7.49465C2.23774 8.06227 2.10425 8.67855 2.10425 9.30206V13.5352C2.11407 14.1675 2.37213 14.7704 2.8227 15.214C3.27328 15.6576 3.88024 15.9062 4.51253 15.9061H11.2437V15.9136ZM12.5301 13.7895C12.5301 13.6408 12.471 13.4981 12.3658 13.3929C12.2607 13.2877 12.118 13.2286 11.9692 13.2286H6.00835C5.85958 13.2286 5.71691 13.2877 5.61171 13.3929C5.50652 13.4981 5.44742 13.6408 5.44742 13.7895C5.44742 13.9383 5.50652 14.081 5.61171 14.1862C5.71691 14.2914 5.85958 14.3505 6.00835 14.3505H11.9916C12.1334 14.3431 12.2672 14.283 12.3668 14.182C12.4665 14.0809 12.5247 13.9463 12.5301 13.8045V13.7895Z" fill="#78829D"/>
</g>
<defs>
<clipPath id="clip0_521_6854">
<rect width="18" height="18" fill="white"/>
</clipPath>
</defs>
</svg>
