<svg width="364" height="222" viewBox="0 0 364 222" fill="none" xmlns="http://www.w3.org/2000/svg">
<path d="M63.2199 204.994C63.5349 204.994 63.7589 204.72 63.9839 204.488C65.0092 203.425 66.0579 202.388 67.04 201.28C69.1864 198.858 71.1478 196.273 72.9321 193.56C78.024 185.812 81.2963 177.688 82.5045 169.174C82.8723 166.582 83.1178 164.006 83.4074 161.425C83.74 158.464 84.1714 155.498 85.0333 152.493C85.7337 150.049 86.6553 147.641 87.6159 145.235C88.1833 143.814 88.7174 142.386 89.2633 140.96C89.3259 140.797 89.365 140.63 89.4061 140.494C89.231 140.259 88.9884 140.403 88.7869 140.453C87.4613 140.785 86.3168 140.534 85.2035 140.178C85.0793 140.138 84.9413 140.066 85.0323 139.763C85.4559 139.53 85.8325 139.736 86.2463 139.658C86.6504 139.582 87.0534 139.525 87.4594 139.419C87.8957 139.306 88.3349 139.162 88.7712 139C89.1733 138.85 89.5724 138.656 90.0195 138.462C90.4529 136.961 90.7385 135.508 90.8589 134.018C90.4548 134.049 90.131 134.298 89.8082 134.46C87.8947 135.418 86.0106 135.872 84.1548 135.811C83.7381 135.797 83.3311 135.745 82.9222 135.704C82.75 135.686 82.5348 135.671 82.6111 135.4C82.6718 135.184 82.8723 135.18 83.019 135.177C83.8183 135.159 84.6263 134.892 85.4422 134.59C87.1532 133.955 88.7507 132.926 90.3052 131.738C90.4196 131.651 90.5292 131.554 90.6368 131.455C90.8706 131.241 91.0046 130.998 90.9802 130.703C90.943 130.253 90.9273 129.794 90.8804 129.348C90.5918 126.552 89.8415 124.017 88.8788 121.604C87.9749 119.337 86.9605 117.151 85.8188 115.065C85.5136 114.506 85.1918 113.955 84.8142 113.464C84.5422 113.11 84.1841 112.836 83.83 112.574C83.5258 112.349 83.1403 112.337 82.7079 112.604L82.7363 112.68C83.0171 112.854 82.974 113.22 82.9359 113.548C82.7373 115.208 82.5954 116.862 82.2208 118.547C82.1337 118.936 82.0114 119.35 82.0828 119.712C82.4252 119.685 82.6845 119.234 83.0406 119.349C82.7432 119.915 82.2227 119.946 81.8451 120.301C81.7678 120.726 81.6896 121.153 81.6035 121.624C82.9848 121.097 84.0648 119.999 85.3219 119.026C84.2859 120.773 82.9682 121.831 81.4665 122.509C80.9921 123.811 80.3719 126.251 80.3347 126.932C80.3944 126.922 80.4579 126.929 80.5147 126.901C82.2051 126.038 83.8525 125.056 85.3757 123.711C85.4774 123.621 85.633 123.437 85.7543 123.618C85.2544 124.543 84.4561 125.15 83.741 125.802C83.0484 126.433 82.302 127.048 81.4763 127.385C80.9891 127.583 80.4971 127.726 79.9933 127.898C79.7223 128.779 79.4454 129.668 79.1764 130.557C78.9064 131.448 78.5943 132.341 78.3918 133.23C78.1913 134.11 77.7149 134.985 77.6503 135.937C78.6491 135.794 79.6127 135.275 80.635 135.107C80.3523 135.634 79.9835 135.813 79.6157 135.929C79.0238 136.116 78.432 136.266 77.8411 136.414C77.4713 136.507 77.3402 136.61 77.212 137.035C76.9127 138.029 76.627 139.023 76.3306 140.017C76.1467 140.633 75.9423 141.249 75.7691 141.865C75.5099 142.792 75.2575 143.722 75.0295 144.65C74.9572 144.947 74.9718 145.243 74.9454 145.557C75.5118 145.707 76.0949 145.662 76.6593 145.667C78.1952 145.682 79.7624 145.489 81.3668 144.909C82.0789 144.652 82.7833 144.28 83.4935 143.976C83.652 143.909 83.8613 143.718 83.968 143.955C83.8447 144.281 83.5708 144.391 83.3428 144.518C82.526 144.972 81.7062 145.42 80.8796 145.831C79.5746 146.481 78.2754 146.736 76.9763 146.899C76.1927 146.998 75.4805 146.914 74.8085 146.683C74.7674 146.668 74.6891 146.729 74.5815 146.773C74.1608 147.801 74.0845 148.844 73.8067 149.958C74.7498 149.854 75.6204 149.825 76.5234 149.608C76.6525 149.577 76.762 149.608 76.7474 149.836C75.7075 150.541 74.692 150.328 73.6042 150.56C73.5778 151.425 73.0094 152.302 73.252 153.077C73.3792 153.096 73.4604 153.126 73.5494 153.117C75.0501 152.972 76.5449 152.881 78.0905 152.314C78.3713 152.211 78.654 152.122 78.9348 152.044C79.0365 152.016 79.2018 151.909 79.1921 152.192C78.5307 152.513 77.8646 152.881 77.1886 153.154C76.4754 153.442 75.7495 153.688 75.0423 153.722C74.3839 153.752 73.7343 153.741 73.0349 153.749C72.8059 154.469 72.5819 155.166 72.7923 155.739C75.9716 155.844 79.0659 154.81 82.2149 152.694C81.8764 153.251 81.8715 153.243 81.4792 153.6C80.184 154.778 78.7626 155.593 77.3021 156.204C75.6693 156.887 74.0875 157.059 72.5692 156.682C72.489 156.952 72.399 157.156 72.3745 157.352C72.2454 158.369 72.1241 159.387 72.0155 160.4C71.8306 162.123 71.6575 163.845 71.4794 165.566C71.406 166.276 71.3209 166.987 71.2583 167.694C71.2143 168.186 71.3415 168.286 71.8042 168.274C73.1425 168.238 74.4925 168.041 75.8816 167.51C76.8511 167.141 77.799 166.691 78.7245 166.102C78.9328 165.97 79.1363 165.816 79.3486 165.705C79.5051 165.624 79.6636 165.611 79.6558 165.85C78.5934 166.876 76.7904 168.019 75.593 168.442C74.246 168.917 72.9038 169.372 71.6252 169.165C71.498 169.144 71.3337 169.226 71.1908 169.26C70.9697 169.731 70.9707 170.136 70.9189 170.535C70.6851 172.333 70.4875 174.126 70.2448 175.926C70.057 177.321 69.8193 178.722 69.608 180.12C69.5571 180.454 69.5229 180.786 69.4789 181.13C70.1803 181.264 70.8885 181.17 71.588 181.118C72.3325 181.063 73.0808 180.779 73.8292 180.536C74.5473 180.303 75.2673 180.105 75.9687 179.677C76.6632 179.252 77.3617 178.841 78.0583 178.424C77.9908 178.657 77.888 178.814 77.7579 178.93C76.494 180.057 75.1528 180.914 73.7099 181.592C72.2865 182.261 70.9844 182.463 69.7176 182.173C69.6383 182.154 69.5415 182.176 69.3977 182.181C69.1306 182.89 68.9369 183.579 68.98 184.28C69.2519 184.265 69.4896 184.276 69.7332 184.232C70.012 184.182 70.2957 184.074 70.5765 184.011C70.824 183.955 71.0695 183.943 71.317 183.881C71.7553 183.771 71.7563 183.761 72.0419 183.834C71.5645 184.321 71.0187 184.407 70.4943 184.567C69.9416 184.737 69.3889 184.852 68.7843 185.004C68.5896 185.848 68.3666 186.636 68.2384 187.415C68.1122 188.184 67.8011 188.971 67.7845 189.764C68.4243 189.622 69.0122 189.508 69.6002 189.358C70.7017 189.078 71.7797 188.583 72.8402 187.958C73.0906 187.81 73.342 187.676 73.7216 187.58C73.0486 188.357 72.351 188.76 71.6848 189.216C71.0343 189.661 70.3583 189.945 69.6657 190.2C68.9486 190.465 68.259 190.493 67.5057 190.634C67.3267 191.445 67.2083 192.2 66.9853 192.948C66.3621 195.041 65.9923 197.133 65.3428 199.229C64.9074 200.631 64.4858 202.036 64.0289 203.437C63.8499 203.987 63.6171 204.525 63.2189 204.994L63.2199 204.994Z" fill="#23936E"/>
<path d="M82.708 112.604C82.2726 112.757 81.9655 113.122 81.6847 113.515C80.9784 114.505 80.2672 115.493 79.7458 116.589C79.7331 116.688 79.7468 116.8 79.7018 116.888C79.2635 117.737 78.8008 118.576 78.3733 119.429C77.8783 120.416 77.394 121.404 76.7132 122.3C76.6016 122.446 76.4784 122.61 76.4246 122.772C76.2592 123.272 75.9296 123.679 75.6312 124.105C75.1812 124.746 74.7234 125.381 74.2763 126.025C74.154 126.2 74.0611 126.396 73.9251 126.634C74.1413 126.818 74.3213 126.983 74.5121 127.132C74.6872 127.269 74.8809 127.381 75.0521 127.521C75.2301 127.666 75.4805 127.737 75.5931 128.071C74.6255 128.22 74.1413 127.548 73.4369 127.333C72.7668 127.981 72.4088 128.717 72.1593 129.482C72.4783 129.914 72.8735 130.22 73.0574 130.785C72.6485 130.957 72.398 130.92 72.2484 130.621C72.1134 130.352 71.9304 130.154 71.5225 130.213C71.2094 130.655 70.8817 131.103 70.5706 131.561C70.4092 131.799 70.3711 132.055 70.5227 132.214C70.9052 132.617 71.276 133.041 71.7142 133.372C72.6886 134.107 73.7021 134.789 74.696 135.498C74.8936 135.639 75.0726 135.805 75.2477 135.948C75.0863 136.36 74.8867 136.314 74.6745 136.296C73.2687 136.172 72.2493 135.319 71.0402 134.824C71.0148 134.814 70.9932 134.794 70.9747 134.774C70.6039 134.36 70.2361 133.942 69.8604 133.532C69.7919 133.458 69.697 133.413 69.5483 133.308C69.2441 134.153 68.5818 134.719 68.3509 135.498C67.539 136.794 66.9873 138.183 66.3387 139.537C66.144 139.943 66.1381 140.157 66.4101 140.31C67.1682 140.736 67.673 141.475 68.3558 141.991C68.4576 142.069 68.6043 142.136 68.4595 142.418C67.8393 142.526 67.4451 142.173 67.0313 141.868C66.6194 141.564 66.2203 141.244 65.7664 140.893C65.467 141.475 65.2772 142.017 65.0972 142.555C65.0513 142.693 65.1002 142.9 65.1833 142.986C65.5883 143.406 65.9884 143.836 66.4472 144.185C67.3081 144.841 68.2062 145.445 69.0934 146.066C69.2744 146.193 69.4486 146.357 69.6667 146.398C70.2576 146.507 70.645 146.919 71.095 147.237C71.1644 147.286 71.1684 147.428 71.2349 147.623C70.9277 147.623 70.7047 147.665 70.5256 147.613C69.8193 147.411 69.1159 147.199 68.4312 146.952C68.0105 146.8 67.6075 146.608 67.2279 146.385C66.8219 146.146 66.4521 145.849 66.0667 145.578C65.6353 145.274 65.2107 144.962 64.7705 144.671C64.5269 144.509 64.3009 144.632 64.1884 144.988C63.7756 146.287 63.3745 147.587 62.9695 148.886C63.0918 149.208 63.3549 149.36 63.6259 149.506C64.0896 149.757 64.5484 150.014 65.0033 150.278C65.0933 150.33 65.155 150.427 65.2841 150.559C65.0972 150.681 64.9495 150.838 64.8439 150.836C64.4281 150.829 64.0202 150.788 63.621 150.727C63.2806 150.676 62.9548 150.581 62.6232 150.506C62.5019 150.767 62.3307 151.028 62.2691 151.289C62.0353 152.272 61.8377 153.254 61.6264 154.236C61.7007 154.357 61.7545 154.504 61.8523 154.597C63.2248 155.899 64.6688 157.093 66.6644 157.422C66.7466 157.436 66.818 157.479 66.8845 157.506C66.9432 157.787 66.7848 157.912 66.5715 157.953C65.3575 158.182 64.1826 158.227 63.0752 158.008C62.3473 157.866 61.6322 157.689 60.9122 157.529C60.8271 157.903 60.6628 158.287 60.7929 158.714C61.1979 158.878 61.6899 159.016 62.1135 159.263C62.8306 159.68 63.6034 159.989 64.3704 160.316C65.4729 160.786 66.6038 161.19 67.807 161.447C67.8882 161.465 67.9665 161.504 68.0262 161.557C68.0594 161.586 68.0721 161.668 68.0555 161.725C68.0389 161.783 67.9802 161.86 67.9303 161.889C67.8432 161.938 67.7444 161.974 67.6564 161.985C66.6693 162.104 65.7145 162.091 64.791 161.961C63.351 161.758 61.9932 161.378 60.7518 160.745C60.6461 160.691 60.4974 160.709 60.3194 160.689C60.203 161.453 60.1071 162.132 59.9907 162.812C59.9516 163.04 59.9956 163.198 60.1159 163.326C60.2313 163.402 60.3546 163.466 60.4593 163.556C60.6217 163.696 60.561 163.898 60.3223 164.017C60.1707 164.092 60.0142 164.139 59.8596 164.199C59.8009 164.332 59.7089 164.469 59.6874 164.599C59.4067 166.271 59.1308 167.943 58.8647 169.613C58.8119 169.942 58.94 170.162 59.1641 170.316C59.4145 170.488 59.7041 170.637 59.8674 170.894C60.0915 171.243 60.4045 171.46 60.7185 171.684C61.4855 172.231 62.2564 172.775 63.0292 173.316C63.2102 173.443 63.3941 173.572 63.5956 173.664C64.2002 173.94 64.8145 174.201 65.425 174.467C65.6989 174.586 65.9738 174.706 66.3142 174.855C65.8534 175.177 65.5159 175.055 65.197 175.025C62.6183 174.791 60.3536 173.958 58.5292 172.24C58.4685 172.39 58.4098 172.487 58.3961 172.578C58.2543 173.564 58.133 174.548 57.9764 175.535C57.9109 175.946 58.0263 176.189 58.3462 176.235C58.7366 176.292 59.0075 176.525 59.3098 176.719C59.6248 176.92 59.9486 177.108 60.2734 177.305C60.0396 177.614 59.842 177.493 59.6532 177.475C59.4497 177.455 59.256 177.402 59.0682 177.342C58.8549 177.273 58.6563 177.174 58.4441 177.102C58.2748 177.045 58.0938 177.012 57.8561 176.952C57.8317 177.404 57.8111 177.763 57.7916 178.123C58.222 178.328 58.6211 178.517 59.0193 178.707C59.5446 178.958 60.0572 179.232 60.5962 179.456C61.3153 179.754 62.0568 180.012 62.7827 180.297C62.8374 180.319 62.8482 180.424 62.9147 180.566C62.1713 180.739 61.597 180.56 61.0052 180.49C60.429 180.421 59.9095 180.183 59.3323 180.119C58.7101 180.052 58.4186 179.422 57.7397 179.37C57.5675 179.9 57.5255 180.337 57.8317 180.587C58.1731 180.864 58.5722 181.067 58.9557 181.287C59.1699 181.41 59.4331 181.465 59.6229 181.619C60.1247 182.026 60.7557 182.207 61.3505 182.44C62.2857 182.805 63.2777 183.064 64.2422 183.374C64.6169 183.494 64.9896 183.618 65.3487 183.769C65.4318 183.803 65.5101 183.953 65.4856 184.048C65.4631 184.134 65.286 184.283 65.196 184.291C64.7069 184.339 64.208 184.402 63.7404 184.368C62.5645 184.282 61.4111 184.121 60.3086 183.833C59.8713 183.718 59.4566 183.551 59.0418 183.387C58.583 183.207 58.1359 183.004 57.6839 182.811C57.6409 182.892 57.5822 182.959 57.5793 183.013C57.5079 184.623 57.7201 186.132 57.8463 187.67C57.8962 188.277 58.043 188.844 58.1046 189.446C58.2582 190.944 58.5204 192.383 58.9342 193.75C59.0447 194.116 59.2247 194.471 59.1151 194.948C59.2932 195.451 59.4673 195.956 59.6512 196.456C60.4603 198.658 61.2703 200.859 62.0842 203.058C62.1556 203.251 62.2554 203.425 62.3415 203.608C62.8277 202.647 63.1074 201.647 63.3931 200.663C64.1914 197.917 64.9231 195.168 65.6803 192.42C65.7468 192.179 65.8182 191.939 65.8701 191.698C66.2056 190.155 66.549 188.611 66.865 187.07C67.2445 185.22 67.6368 183.368 67.9567 181.524C68.8225 176.534 69.4779 171.571 70.058 166.619C70.2527 164.959 70.4826 163.293 70.6939 161.63C70.9923 159.288 71.2994 156.946 71.6898 154.589C72.1672 151.708 72.9781 148.826 73.6326 145.946C73.8508 144.988 74.2029 144.027 74.4592 143.066C74.9435 141.246 75.4708 139.43 76.0734 137.616C76.765 135.534 77.4224 133.447 78.0827 131.36C78.6237 129.65 79.1725 127.94 79.6705 126.228C80.1097 124.718 80.4971 123.203 80.8845 121.69C81.1036 120.833 81.3071 119.972 81.4646 119.117C81.805 117.27 82.1103 115.426 82.4311 113.58C82.484 113.274 82.5162 112.963 82.7403 112.678L82.7119 112.601L82.708 112.604Z" fill="#23936E"/>
<path d="M82.7363 112.68C82.5123 112.966 82.48 113.277 82.4272 113.583C82.1063 115.429 81.8011 117.273 81.4607 119.12C81.3032 119.975 81.1007 120.835 80.8806 121.693C80.4932 123.207 80.1068 124.721 79.6665 126.231C79.1686 127.944 78.6198 129.654 78.0788 131.363C77.4185 133.45 76.7611 135.537 76.0695 137.619C75.4669 139.433 74.9405 141.249 74.4553 143.069C74.2 144.03 73.8468 144.991 73.6287 145.949C72.9732 148.83 72.1632 151.711 71.6859 154.592C71.2945 156.95 70.9874 159.291 70.69 161.633C70.4787 163.296 70.2488 164.962 70.0541 166.622C69.474 171.574 68.8186 176.537 67.9528 181.527C67.6329 183.372 67.2406 185.224 66.8611 187.073C66.5451 188.614 66.2017 190.158 65.8662 191.701C65.8143 191.941 65.7429 192.182 65.6764 192.423C64.9192 195.171 64.1875 197.92 63.3892 200.666C63.1035 201.649 62.8228 202.65 62.3376 203.611C62.4452 204.003 62.5322 204.408 62.6692 204.781C62.7504 205.002 62.9294 205.128 63.22 204.993C63.6181 204.525 63.8509 203.987 64.0299 203.437C64.4868 202.036 64.9084 200.63 65.3438 199.229C65.9943 197.133 66.3641 195.04 66.9863 192.948C67.2093 192.2 67.3277 191.443 67.5067 190.633C68.26 190.493 68.9496 190.464 69.6667 190.2C70.3593 189.945 71.0353 189.661 71.6859 189.216C72.3521 188.76 73.0496 188.357 73.7226 187.58C73.3421 187.676 73.0916 187.81 72.8412 187.958C71.7808 188.584 70.7027 189.078 69.6012 189.358C69.0123 189.508 68.4253 189.622 67.7855 189.764C67.8021 188.971 68.1132 188.184 68.2394 187.415C68.3676 186.636 68.5896 185.848 68.7853 185.004C69.3899 184.852 69.9426 184.737 70.4953 184.567C71.0187 184.407 71.5646 184.321 72.0429 183.834C71.7563 183.761 71.7563 183.771 71.318 183.881C71.0705 183.942 70.825 183.955 70.5775 184.011C70.2967 184.074 70.013 184.182 69.7342 184.232C69.4906 184.275 69.2529 184.264 68.9809 184.28C68.9379 183.579 69.1316 182.891 69.3987 182.181C69.5425 182.176 69.6383 182.154 69.7186 182.172C70.9864 182.463 72.2875 182.261 73.7109 181.592C75.1538 180.914 76.494 180.056 77.7589 178.93C77.8881 178.814 77.9918 178.658 78.0593 178.424C77.3627 178.841 76.6642 179.252 75.9697 179.677C75.2683 180.105 74.5483 180.303 73.8302 180.536C73.0818 180.779 72.3335 181.062 71.589 181.118C70.8895 181.17 70.1813 181.265 69.4799 181.13C69.5229 180.786 69.5581 180.454 69.609 180.12C69.8203 178.722 70.058 177.32 70.2458 175.926C70.4885 174.126 70.6861 172.334 70.9199 170.535C70.9717 170.136 70.9707 169.731 71.1918 169.26C71.3347 169.227 71.5 169.144 71.6262 169.164C72.9048 169.372 74.247 168.917 75.594 168.442C76.7914 168.019 78.5944 166.876 79.6568 165.85C79.6646 165.611 79.5051 165.624 79.3496 165.705C79.1373 165.816 78.9329 165.968 78.7255 166.102C77.8 166.69 76.8511 167.14 75.8826 167.51C74.4925 168.04 73.1435 168.238 71.8052 168.274C71.3425 168.287 71.2163 168.186 71.2593 167.694C71.3219 166.987 71.4061 166.276 71.4804 165.566C71.6594 163.845 71.8316 162.123 72.0165 160.4C72.1251 159.386 72.2464 158.369 72.3755 157.352C72.4 157.156 72.49 156.951 72.5702 156.682C74.0885 157.058 75.6703 156.888 77.3031 156.204C78.7636 155.593 80.185 154.778 81.4802 153.6C81.8735 153.243 81.8784 153.251 82.2159 152.694C79.0669 154.81 75.9726 155.844 72.7933 155.739C72.5829 155.166 72.8069 154.469 73.0359 153.749C73.7353 153.741 74.3849 153.752 75.0433 153.722C75.7506 153.688 76.4764 153.442 77.1896 153.154C77.8656 152.882 78.5318 152.513 79.1931 152.192C79.2028 151.908 79.0375 152.015 78.9358 152.044C78.654 152.122 78.3723 152.211 78.0915 152.314C76.5459 152.881 75.0511 152.972 73.5504 153.117C73.4614 153.126 73.3792 153.096 73.253 153.077C73.0104 152.302 73.5788 151.424 73.6052 150.56C74.694 150.328 75.7085 150.541 76.7484 149.836C76.7631 149.608 76.6545 149.577 76.5244 149.608C75.6214 149.825 74.7508 149.854 73.8077 149.958C74.0855 148.843 74.1618 147.8 74.5825 146.773C74.6901 146.728 74.7674 146.668 74.8095 146.683C75.4815 146.914 76.1937 146.998 76.9773 146.899C78.2764 146.736 79.5756 146.48 80.8806 145.831C81.7072 145.42 82.527 144.972 83.3438 144.518C83.5718 144.391 83.8457 144.281 83.969 143.955C83.8613 143.719 83.652 143.909 83.4945 143.976C82.7843 144.279 82.079 144.652 81.3678 144.909C79.7644 145.489 78.1962 145.682 76.6603 145.667C76.0959 145.661 75.5128 145.706 74.9464 145.557C74.9728 145.243 74.9582 144.947 75.0305 144.65C75.2585 143.722 75.5109 142.793 75.7701 141.865C75.9423 141.249 76.1477 140.633 76.3316 140.017C76.628 139.023 76.9137 138.028 77.2131 137.035C77.3412 136.61 77.4723 136.507 77.8421 136.414C78.433 136.266 79.0258 136.115 79.6167 135.929C79.9845 135.812 80.3543 135.633 80.636 135.107C79.6137 135.275 78.6501 135.795 77.6513 135.937C77.7159 134.986 78.1923 134.111 78.3928 133.23C78.5953 132.341 78.9074 131.448 79.1774 130.557C79.4474 129.668 79.7233 128.779 79.9943 127.898C80.4971 127.726 80.9901 127.583 81.4773 127.385C82.303 127.048 83.0494 126.433 83.742 125.802C84.4571 125.15 85.2554 124.543 85.7553 123.618C85.634 123.436 85.4784 123.621 85.3767 123.711C83.8545 125.054 82.2061 126.038 80.5157 126.9C80.4589 126.929 80.3963 126.922 80.3357 126.932C80.3719 126.251 80.9931 123.811 81.4675 122.509C82.9692 121.831 84.2869 120.773 85.3229 119.025C84.0658 119.999 82.9858 121.097 81.6045 121.624C81.6906 121.154 81.7688 120.727 81.8461 120.301C82.2227 119.946 82.7442 119.915 83.0416 119.349C82.6865 119.234 82.4262 119.685 82.0838 119.712C82.0124 119.35 82.1357 118.937 82.2218 118.547C82.5974 116.862 82.7393 115.208 82.9369 113.548C82.976 113.221 83.0181 112.854 82.7373 112.68H82.7363Z" fill="#316964"/>
<path d="M62.9685 148.886C63.3735 147.587 63.7746 146.287 64.1875 144.988C64.3009 144.632 64.5259 144.509 64.7695 144.671C65.2088 144.961 65.6343 145.274 66.0657 145.578C66.4512 145.85 66.8209 146.146 67.2269 146.385C67.6065 146.608 68.0095 146.8 68.4302 146.952C69.116 147.199 69.8183 147.412 70.5247 147.613C70.7047 147.665 70.9267 147.622 71.2339 147.623C71.1674 147.428 71.1644 147.286 71.094 147.237C70.644 146.919 70.2576 146.507 69.6657 146.398C69.4476 146.358 69.2735 146.193 69.0925 146.066C68.2062 145.445 67.3071 144.841 66.4463 144.185C65.9875 143.836 65.5874 143.405 65.1824 142.986C65.0992 142.9 65.0503 142.693 65.0963 142.555C65.2772 142.017 65.467 141.474 65.7654 140.893C66.2193 141.244 66.6184 141.565 67.0303 141.868C67.4431 142.173 67.8374 142.526 68.4586 142.418C68.6024 142.136 68.4566 142.069 68.3549 141.991C67.672 141.475 67.1682 140.735 66.4091 140.31C66.1371 140.157 66.144 139.943 66.3377 139.537C66.9863 138.183 67.538 136.794 68.35 135.498C68.5808 134.719 69.2431 134.152 69.5474 133.308C69.6961 133.413 69.791 133.458 69.8594 133.532C70.2341 133.942 70.6019 134.359 70.9737 134.774C70.9923 134.794 71.0138 134.814 71.0392 134.824C72.2474 135.32 73.2667 136.172 74.6735 136.296C74.8858 136.314 75.0853 136.361 75.2467 135.948C75.0716 135.805 74.8916 135.639 74.695 135.498C73.7011 134.789 72.6876 134.107 71.7133 133.372C71.275 133.041 70.9042 132.617 70.5217 132.214C70.3701 132.055 70.4092 131.799 70.5697 131.561C70.8808 131.103 71.2075 130.655 71.5215 130.213C71.9295 130.154 72.1124 130.352 72.2474 130.621C72.3971 130.919 72.6475 130.957 73.0564 130.785C72.8725 130.221 72.4783 129.915 72.1584 129.482C72.4078 128.716 72.7649 127.981 73.436 127.333C74.1403 127.548 74.6246 128.22 75.5921 128.072C75.4796 127.736 75.2291 127.666 75.0511 127.521C74.8789 127.381 74.6852 127.268 74.5111 127.132C74.3203 126.983 74.1393 126.818 73.9241 126.634C74.0611 126.396 74.154 126.201 74.2753 126.025C74.7224 125.381 75.1802 124.746 75.6302 124.105C75.9286 123.679 76.2583 123.273 76.4236 122.772C76.4774 122.61 76.6007 122.446 76.7122 122.3C77.394 121.404 77.8783 120.416 78.3723 119.429C78.7998 118.576 79.2625 117.736 79.7008 116.888C79.7458 116.8 79.7321 116.689 79.7448 116.589C78.6384 118.136 77.5584 119.704 76.4177 121.226C75.3005 122.715 74.1237 124.156 72.9703 125.615C72.3472 126.404 71.7084 127.178 71.093 127.974C70.0903 129.27 69.0759 130.558 68.1123 131.884C65.6754 135.233 63.757 138.807 62.4002 142.601C61.9736 143.793 61.6185 144.996 61.2194 146.194C61.1059 146.533 61.1392 146.799 61.283 147.029C61.7408 147.762 62.2505 148.439 62.9685 148.885V148.886Z" fill="#316964"/>
<path d="M59.1105 194.951C59.2201 194.475 59.0401 194.12 58.9295 193.754C58.5148 192.386 58.2536 190.947 58.1 189.45C58.0383 188.848 57.8916 188.28 57.8417 187.674C57.7155 186.135 57.5032 184.627 57.5746 183.017C57.5766 182.963 57.6363 182.895 57.6793 182.815C58.1313 183.008 58.5784 183.211 59.0372 183.391C59.4519 183.555 59.8667 183.722 60.304 183.836C61.4065 184.125 62.5599 184.285 63.7358 184.372C64.2034 184.406 64.7023 184.343 65.1914 184.295C65.2814 184.286 65.4585 184.138 65.481 184.052C65.5055 183.957 65.4272 183.808 65.344 183.773C64.985 183.622 64.6123 183.498 64.2376 183.378C63.273 183.068 62.2811 182.809 61.3459 182.443C60.7511 182.212 60.1201 182.031 59.6182 181.623C59.4285 181.469 59.1653 181.414 58.9511 181.291C58.5676 181.07 58.1694 180.867 57.827 180.591C57.5199 180.342 57.5619 179.904 57.7351 179.374C58.414 179.425 58.7055 180.055 59.3277 180.123C59.9049 180.186 60.4243 180.425 61.0005 180.494C61.5934 180.564 62.1676 180.743 62.9101 180.57C62.8436 180.428 62.8328 180.323 62.778 180.301C62.0522 180.015 61.3107 179.758 60.5916 179.46C60.0526 179.236 59.539 178.962 59.0147 178.711C58.6165 178.522 58.2174 178.332 57.7869 178.127C57.8065 177.767 57.8261 177.408 57.8515 176.956C58.0892 177.016 58.2702 177.049 58.4394 177.106C58.6517 177.177 58.8503 177.277 59.0636 177.346C59.2514 177.405 59.4461 177.458 59.6486 177.479C59.8374 177.497 60.035 177.618 60.2688 177.308C59.944 177.112 59.6202 176.924 59.3052 176.723C59.0029 176.529 58.7319 176.296 58.3416 176.239C58.0217 176.192 57.9073 175.949 57.9718 175.539C58.1293 174.551 58.2496 173.568 58.3915 172.582C58.4042 172.491 58.4639 172.394 58.5246 172.244C60.348 173.962 62.6137 174.794 65.1924 175.029C65.5123 175.058 65.8488 175.181 66.3096 174.859C65.9691 174.71 65.6952 174.591 65.4203 174.471C64.8099 174.204 64.1955 173.944 63.591 173.667C63.3885 173.574 63.2056 173.446 63.0246 173.32C62.2517 172.779 61.4818 172.236 60.7139 171.687C60.3999 171.463 60.0868 171.247 59.8628 170.898C59.6985 170.642 59.4099 170.492 59.1594 170.32C58.9364 170.166 58.8082 169.946 58.8601 169.616C59.1252 167.946 59.4011 166.275 59.6828 164.603C59.7043 164.473 59.7963 164.337 59.855 164.203C59.1575 164.129 58.46 164.056 57.7106 163.977C57.6676 164.104 57.5903 164.265 57.5658 164.42C56.928 168.454 56.254 172.493 55.9057 176.488C55.5702 180.342 55.7756 183.99 56.5768 187.425C57.1677 189.96 58.0051 192.341 58.9207 194.672C58.9628 194.779 59.045 194.86 59.1086 194.952L59.1105 194.951Z" fill="#316964"/>
<path d="M60.112 163.328C59.9917 163.2 59.9476 163.041 59.9868 162.814C60.1032 162.134 60.1981 161.456 60.3155 160.691C60.4935 160.711 60.6422 160.693 60.7479 160.746C61.9893 161.379 63.3471 161.76 64.7871 161.962C65.7106 162.093 66.6654 162.105 67.6524 161.987C67.7415 161.976 67.8393 161.941 67.9264 161.891C67.9772 161.863 68.0349 161.785 68.0516 161.727C68.0682 161.671 68.0555 161.589 68.0222 161.558C67.9626 161.505 67.8853 161.466 67.8031 161.449C66.5998 161.192 65.469 160.788 64.3665 160.318C63.5995 159.991 62.8267 159.681 62.1096 159.264C61.687 159.018 61.1949 158.88 60.7889 158.716C60.6588 158.289 60.8232 157.904 60.9083 157.531C60.289 157.227 59.6698 156.923 58.987 156.588C58.9097 156.814 58.8324 156.97 58.806 157.124C58.5556 158.556 58.3237 159.986 58.0635 161.419C57.9882 161.834 58.0351 162.135 58.3218 162.323C58.76 162.612 59.1807 162.925 59.6258 163.204C59.7598 163.288 59.9476 163.289 60.111 163.329L60.112 163.328Z" fill="#316964"/>
<path d="M61.6244 154.237C61.8357 153.255 62.0333 152.272 62.2671 151.29C62.3287 151.029 62.4999 150.768 62.6212 150.507C62.2456 150.33 61.8601 150.171 61.4982 149.971C61.1656 149.787 60.8594 149.561 60.5317 149.347C60.2636 149.943 59.9065 151.192 59.9075 151.531C59.9075 151.659 59.9183 151.8 59.9731 151.893C60.4602 152.735 60.9063 153.615 61.6254 154.236L61.6244 154.237Z" fill="#316964"/>
<path d="M182 221.447C282.069 221.447 363.19 216.264 363.19 209.871C363.19 203.478 282.069 198.295 182 198.295C81.9313 198.295 0.809647 203.478 0.809647 209.871C0.809647 216.264 81.9313 221.447 182 221.447Z" fill="#E5E5E5"/>
<path d="M142.014 185.533L112.07 199.334V202.392H218.711V199.334L188.497 185.533H142.014Z" fill="#524E53"/>
<path d="M188.516 126.374H142.014V185.558H188.516V126.374Z" fill="#524E53"/>
<path d="M305.978 144.941V11.4819C305.978 5.14079 300.837 0 294.496 0H35.7318C29.3906 0 24.2499 5.14079 24.2499 11.4819V144.94H305.977L305.978 144.941Z" fill="#E5E5E1"/>
<path d="M218.711 199.334H112.07V202.391H218.711V199.334Z" fill="#524E53"/>
<path d="M188.497 178.587H142.014V185.532H188.497V178.587Z" fill="#524E53"/>
<path d="M24.2507 144.941V166.327C24.2507 170.775 27.1914 174.382 30.8188 174.382H299.41C303.038 174.382 305.978 170.776 305.978 166.327V144.941H24.2507Z" fill="#524E53"/>
<path d="M299.38 11.8135V139.12H30.8423V11.8135C30.8423 8.47663 33.645 5.77173 37.1032 5.77173H293.12C296.578 5.77173 299.38 8.47663 299.38 11.8135Z" fill="white"/>
<path d="M166.697 166.413C170.42 165.534 172.726 161.804 171.847 158.081C170.968 154.358 167.238 152.053 163.515 152.931C159.792 153.81 157.486 157.54 158.365 161.263C159.244 164.986 162.974 167.292 166.697 166.413Z" fill="#F0F0F0"/>
<path d="M164.868 101.764C164.564 101.764 164.265 101.625 164.07 101.363C163.744 100.923 163.836 100.301 164.276 99.9747L188.071 82.3072C188.511 81.9805 189.133 82.0724 189.459 82.5127C189.786 82.9529 189.694 83.5741 189.254 83.9008L165.459 101.568C165.28 101.7 165.073 101.764 164.868 101.764Z" fill="#524E53"/>
<path d="M223.526 113.307C223.238 113.307 222.951 113.181 222.756 112.94L197.833 82.23C197.488 81.8044 197.553 81.1803 197.978 80.835C198.404 80.4896 199.028 80.5552 199.373 80.9798L224.295 111.689C224.641 112.115 224.575 112.739 224.151 113.084C223.967 113.233 223.746 113.307 223.526 113.307Z" fill="#524E53"/>
<path d="M231.6 113.445C231.36 113.445 231.121 113.358 230.931 113.184C230.527 112.815 230.5 112.186 230.869 111.782L257.418 82.7789C257.788 82.3748 258.416 82.3474 258.82 82.7172C259.224 83.087 259.252 83.7151 258.882 84.1191L232.333 113.123C232.137 113.336 231.869 113.445 231.601 113.445H231.6Z" fill="#524E53"/>
<path d="M198.582 85.4028C201.454 82.531 201.454 77.875 198.582 75.0032C195.71 72.1314 191.054 72.1314 188.183 75.0032C185.311 77.875 185.311 82.531 188.183 85.4028C191.054 88.2746 195.71 88.2746 198.582 85.4028Z" fill="#C3FFD1"/>
<path d="M190.483 78.8854C190.483 79.6973 190.13 80.3557 189.693 80.3557C189.257 80.3557 188.904 79.6973 188.904 78.8854C188.904 78.0734 189.257 77.415 189.693 77.415C190.13 77.415 190.483 78.0734 190.483 78.8854Z" fill="black"/>
<path d="M197.072 80.3557C197.508 80.3557 197.862 79.6974 197.862 78.8854C197.862 78.0733 197.508 77.415 197.072 77.415C196.636 77.415 196.283 78.0733 196.283 78.8854C196.283 79.6974 196.636 80.3557 197.072 80.3557Z" fill="black"/>
<path d="M189.662 82.5704H197.105C197.105 82.5704 196.448 85.5815 193.383 85.5815C190.318 85.5815 189.662 82.5704 189.662 82.5704Z" fill="black"/>
<path d="M261.05 87.2838C265.111 87.2838 268.404 83.9915 268.404 79.9302C268.404 75.8689 265.111 72.5765 261.05 72.5765C256.989 72.5765 253.696 75.8689 253.696 79.9302C253.696 83.9915 256.989 87.2838 261.05 87.2838Z" fill="#C3FFD1"/>
<path d="M257.361 80.0827C257.797 80.0827 258.15 79.4245 258.15 78.6124C258.15 77.8004 257.797 77.1421 257.361 77.1421C256.925 77.1421 256.571 77.8004 256.571 78.6124C256.571 79.4245 256.925 80.0827 257.361 80.0827Z" fill="black"/>
<path d="M264.74 80.0827C265.176 80.0827 265.529 79.4245 265.529 78.6124C265.529 77.8004 265.176 77.1421 264.74 77.1421C264.304 77.1421 263.95 77.8004 263.95 78.6124C263.95 79.4245 264.304 80.0827 264.74 80.0827Z" fill="black"/>
<path d="M257.329 82.2986H264.771C264.771 82.2986 264.115 85.3097 261.05 85.3097C257.985 85.3097 257.329 82.2986 257.329 82.2986Z" fill="black"/>
<path d="M164.749 111.051C167.621 108.179 167.621 103.523 164.749 100.651C161.877 97.7792 157.221 97.7792 154.349 100.651C151.478 103.523 151.478 108.179 154.349 111.05C157.221 113.922 161.877 113.922 164.749 111.051Z" fill="#FFE799"/>
<path d="M155.859 106.003C156.295 106.003 156.649 105.345 156.649 104.533C156.649 103.721 156.295 103.062 155.859 103.062C155.423 103.062 155.07 103.721 155.07 104.533C155.07 105.345 155.423 106.003 155.859 106.003Z" fill="black"/>
<path d="M163.239 106.003C163.675 106.003 164.029 105.345 164.029 104.533C164.029 103.721 163.675 103.062 163.239 103.062C162.803 103.062 162.45 103.721 162.45 104.533C162.45 105.345 162.803 106.003 163.239 106.003Z" fill="black"/>
<path d="M159.549 110.997C157.947 110.997 156.95 110.406 156.396 109.91C155.785 109.362 155.561 108.806 155.552 108.782C155.485 108.612 155.569 108.42 155.739 108.353C155.908 108.286 156.1 108.369 156.167 108.539C156.2 108.617 156.931 110.336 159.549 110.336C162.167 110.336 162.923 108.557 162.931 108.54C162.998 108.369 163.19 108.285 163.36 108.353C163.531 108.419 163.614 108.612 163.547 108.782C163.539 108.806 163.314 109.363 162.703 109.91C162.149 110.406 161.153 110.997 159.55 110.997H159.549Z" fill="black"/>
<path d="M234.487 118.243C235.137 114.234 232.415 110.457 228.406 109.806C224.398 109.155 220.62 111.877 219.97 115.886C219.319 119.895 222.041 123.672 226.05 124.323C230.059 124.974 233.836 122.251 234.487 118.243Z" fill="#ECA3BC"/>
<path d="M223.527 117.208C223.963 117.208 224.316 116.55 224.316 115.738C224.316 114.926 223.963 114.267 223.527 114.267C223.091 114.267 222.737 114.926 222.737 115.738C222.737 116.55 223.091 117.208 223.527 117.208Z" fill="black"/>
<path d="M230.906 117.208C231.342 117.208 231.695 116.55 231.695 115.738C231.695 114.926 231.342 114.267 230.906 114.267C230.47 114.267 230.116 114.926 230.116 115.738C230.116 116.55 230.47 117.208 230.906 117.208Z" fill="black"/>
<path d="M227.217 119.534C225.614 119.534 224.617 120.125 224.064 120.621C223.452 121.169 223.228 121.726 223.219 121.749C223.153 121.919 223.236 122.111 223.406 122.179C223.575 122.245 223.767 122.162 223.835 121.993C223.867 121.914 224.599 120.196 227.217 120.196C229.834 120.196 230.591 121.974 230.598 121.992C230.665 122.162 230.858 122.246 231.028 122.179C231.198 122.112 231.281 121.919 231.215 121.749C231.206 121.726 230.982 121.168 230.37 120.621C229.817 120.125 228.82 119.534 227.218 119.534H227.217Z" fill="black"/>
<path d="M224.941 114.339C224.9 114.339 224.858 114.329 224.82 114.308L221.991 112.803C221.864 112.735 221.817 112.579 221.883 112.452C221.951 112.325 222.107 112.278 222.234 112.344L225.063 113.85C225.19 113.917 225.238 114.074 225.171 114.201C225.124 114.289 225.035 114.339 224.942 114.339H224.941Z" fill="black"/>
<path d="M229.492 114.339C229.399 114.339 229.309 114.289 229.263 114.201C229.196 114.075 229.244 113.917 229.371 113.85L232.2 112.344C232.327 112.277 232.484 112.324 232.551 112.452C232.619 112.578 232.571 112.735 232.443 112.803L229.614 114.308C229.575 114.329 229.534 114.339 229.493 114.339H229.492Z" fill="black"/>
<path d="M275.662 126.665H147.987V60.2024C147.987 59.9285 148.209 59.7064 148.483 59.7064C148.757 59.7064 148.979 59.9285 148.979 60.2024V125.673H275.662C275.936 125.673 276.158 125.895 276.158 126.169C276.158 126.443 275.936 126.665 275.662 126.665Z" fill="#524E53"/>
<path d="M52.6705 48.0426V53.7009C52.6705 54.7388 51.8282 55.5801 50.7902 55.5801H45.132C44.094 55.5801 43.2517 54.7388 43.2517 53.7009V48.0426C43.2517 47.0046 44.093 46.1633 45.132 46.1633H50.7902C51.8282 46.1633 52.6705 47.0046 52.6705 48.0426Z" fill="#524E53"/>
<path d="M48.2801 52.9838C47.9407 52.9838 47.6002 52.8537 47.341 52.5944L42.8801 48.1336C42.3616 47.6151 42.3616 46.7738 42.8801 46.2553C43.3986 45.7368 44.2389 45.7368 44.7584 46.2553L48.2801 49.777L54.0323 44.0248C54.5508 43.5064 55.3911 43.5064 55.9106 44.0248C56.4291 44.5433 56.4291 45.3846 55.9106 45.9031L49.2193 52.5944C48.96 52.8537 48.6206 52.9838 48.2801 52.9838Z" fill="#DEC9BF"/>
<path d="M89.3544 45.2506H61.2058C60.3268 45.2506 59.6142 45.9632 59.6142 46.8422V46.8863C59.6142 47.7653 60.3268 48.4779 61.2058 48.4779H89.3544C90.2335 48.4779 90.9461 47.7653 90.9461 46.8863V46.8422C90.9461 45.9632 90.2335 45.2506 89.3544 45.2506Z" fill="#DEC9BF"/>
<path d="M109.809 52.5515H60.613C60.0612 52.5515 59.6142 52.1044 59.6142 51.5526C59.6142 51.0009 60.0612 50.5538 60.613 50.5538H109.809C110.361 50.5538 110.808 51.0009 110.808 51.5526C110.808 52.1044 110.361 52.5515 109.809 52.5515Z" fill="#DEC9BF"/>
<path d="M109.823 54.6263H60.5993C60.0552 54.6263 59.6142 55.0674 59.6142 55.6115V55.6398C59.6142 56.1839 60.0552 56.6249 60.5993 56.6249H109.823C110.367 56.6249 110.808 56.1839 110.808 55.6398V55.6115C110.808 55.0674 110.367 54.6263 109.823 54.6263Z" fill="#DEC9BF"/>
<path d="M52.6705 72.1697V77.8279C52.6705 78.8659 51.8283 79.7072 50.7903 79.7072H45.132C44.0941 79.7072 43.2518 78.8659 43.2518 77.8279V72.1697C43.2518 71.1317 44.0931 70.2904 45.132 70.2904H50.7903C51.8283 70.2904 52.6705 71.1317 52.6705 72.1697Z" fill="#524E53"/>
<path d="M89.3317 70.9907H61.2281C60.3369 70.9907 59.614 70.2678 59.614 69.3766C59.614 68.4854 60.3369 67.7625 61.2281 67.7625H89.3317C90.2229 67.7625 90.9459 68.4854 90.9459 69.3766C90.9459 70.2678 90.2229 70.9907 89.3317 70.9907Z" fill="#DEC9BF"/>
<path d="M109.809 75.0643H60.613C60.0613 75.0643 59.6142 74.6172 59.6142 74.0655C59.6142 73.5137 60.0613 73.0667 60.613 73.0667H109.809C110.361 73.0667 110.808 73.5137 110.808 74.0655C110.808 74.6172 110.361 75.0643 109.809 75.0643Z" fill="#DEC9BF"/>
<path d="M109.809 79.1368H60.613C60.0613 79.1368 59.6142 78.6897 59.6142 78.138C59.6142 77.5862 60.0613 77.1392 60.613 77.1392H109.809C110.361 77.1392 110.808 77.5862 110.808 78.138C110.808 78.6897 110.361 79.1368 109.809 79.1368Z" fill="#DEC9BF"/>
<path d="M52.6704 95.7741V101.432C52.6704 102.47 51.8281 103.312 50.7902 103.312H45.1319C44.0939 103.312 43.2516 102.47 43.2516 101.432V95.7741C43.2516 94.7362 44.093 93.8949 45.1319 93.8949H50.7902C51.8281 93.8949 52.6704 94.7362 52.6704 95.7741Z" fill="#524E53"/>
<path d="M48.28 100.715C47.9406 100.715 47.6002 100.585 47.3409 100.326L42.88 95.8651C42.3615 95.3466 42.3615 94.5053 42.88 93.9869C43.3985 93.4684 44.2388 93.4684 44.7583 93.9869L48.28 97.5086L54.0322 91.7564C54.5507 91.2379 55.3911 91.2379 55.9105 91.7564C56.429 92.2749 56.429 93.1162 55.9105 93.6347L49.2192 100.326C48.9599 100.585 48.6205 100.715 48.28 100.715Z" fill="#DEC9BF"/>
<path d="M89.3319 94.5953H61.2283C60.3371 94.5953 59.6142 93.8724 59.6142 92.9812C59.6142 92.09 60.3371 91.3671 61.2283 91.3671H89.3319C90.2231 91.3671 90.9461 92.09 90.9461 92.9812C90.9461 93.8724 90.2231 94.5953 89.3319 94.5953Z" fill="#DEC9BF"/>
<path d="M109.809 98.6689H60.613C60.0612 98.6689 59.6142 98.2218 59.6142 97.6701C59.6142 97.1183 60.0612 96.6713 60.613 96.6713H109.809C110.361 96.6713 110.808 97.1183 110.808 97.6701C110.808 98.2218 110.361 98.6689 109.809 98.6689Z" fill="#DEC9BF"/>
<path d="M109.809 102.742H60.613C60.0612 102.742 59.6142 102.295 59.6142 101.744C59.6142 101.192 60.0612 100.745 60.613 100.745H109.809C110.361 100.745 110.808 101.192 110.808 101.744C110.808 102.295 110.361 102.742 109.809 102.742Z" fill="#DEC9BF"/>
<path d="M52.6704 119.379V125.037C52.6704 126.075 51.8281 126.916 50.7902 126.916H45.1319C44.0939 126.916 43.2516 126.075 43.2516 125.037V119.379C43.2516 118.341 44.093 117.5 45.1319 117.5H50.7902C51.8281 117.5 52.6704 118.341 52.6704 119.379Z" fill="#524E53"/>
<path d="M48.28 124.32C47.9406 124.32 47.6002 124.19 47.3409 123.931L42.88 119.47C42.3615 118.951 42.3615 118.11 42.88 117.591C43.3985 117.073 44.2388 117.073 44.7583 117.591L48.28 121.113L54.0322 115.361C54.5507 114.842 55.3911 114.842 55.9105 115.361C56.429 115.879 56.429 116.721 55.9105 117.239L49.2192 123.931C48.9599 124.19 48.6205 124.32 48.28 124.32Z" fill="#DEC9BF"/>
<path d="M89.3319 118.2H61.2283C60.3371 118.2 59.6142 117.477 59.6142 116.586C59.6142 115.694 60.3371 114.972 61.2283 114.972H89.3319C90.2231 114.972 90.9461 115.694 90.9461 116.586C90.9461 117.477 90.2231 118.2 89.3319 118.2Z" fill="#DEC9BF"/>
<path d="M109.809 122.273H60.613C60.0612 122.273 59.6142 121.826 59.6142 121.275C59.6142 120.723 60.0612 120.276 60.613 120.276H109.809C110.361 120.276 110.808 120.723 110.808 121.275C110.808 121.826 110.361 122.273 109.809 122.273Z" fill="#DEC9BF"/>
<path d="M109.809 126.347H60.613C60.0612 126.347 59.6142 125.9 59.6142 125.348C59.6142 124.796 60.0612 124.349 60.613 124.349H109.809C110.361 124.349 110.808 124.796 110.808 125.348C110.808 125.9 110.361 126.347 109.809 126.347Z" fill="#DEC9BF"/>
<path d="M162.575 60.5723C159.541 60.5723 156.479 59.6869 153.794 57.84C146.711 52.9672 144.898 43.2188 149.752 36.1097C152.104 32.6663 155.651 30.3478 159.74 29.5818C163.828 28.8168 167.97 29.6933 171.401 32.0548C174.832 34.4154 177.142 37.9753 177.906 42.0791C178.669 46.1829 177.794 50.3396 175.443 53.7841C172.429 58.198 167.541 60.5723 162.575 60.5723ZM162.615 36.5705C162.101 36.5705 161.583 36.6184 161.066 36.7153C158.876 37.1262 156.975 38.3676 155.716 40.2126C154.456 42.0576 153.987 44.2841 154.396 46.4833C154.805 48.6824 156.043 50.5891 157.881 51.854C161.675 54.463 166.878 53.4896 169.479 49.6812C170.739 47.8362 171.208 45.6097 170.799 43.4105C170.39 41.2114 169.152 39.3048 167.314 38.0399C165.909 37.0733 164.283 36.5705 162.616 36.5705H162.615Z" fill="#524E53"/>
<path d="M162.565 60.581C159.453 60.581 156.416 59.6429 153.794 57.8389L157.881 51.8529C159.719 53.1178 161.938 53.5884 164.128 53.1775C166.318 52.7676 168.219 51.5252 169.478 49.6802C170.738 47.8352 171.207 45.6087 170.798 43.4095C170.389 41.2104 169.151 39.3038 167.313 38.0389L171.4 32.0529C174.831 34.4134 177.142 37.9733 177.905 42.0771C178.668 46.1819 177.793 50.3386 175.442 53.7821C173.09 57.2266 169.543 59.5441 165.455 60.311C164.491 60.491 163.523 60.581 162.564 60.581H162.565Z" fill="#524E53"/>
<path d="M157.873 51.85L158.821 56.2893L153.787 57.8379L157.873 51.85Z" fill="#524E53"/>
<path d="M157.834 44.7831C158.506 44.7831 159.051 44.2365 159.051 43.5622C159.051 42.8879 158.506 42.3413 157.834 42.3413C157.162 42.3413 156.617 42.8879 156.617 43.5622C156.617 44.2365 157.162 44.7831 157.834 44.7831Z" fill="#524E53"/>
<path d="M169.214 42.8823H159.742V44.2431H169.214V42.8823Z" fill="#524E53"/>
<path d="M169.214 45.3171H156.617V46.6779H169.214V45.3171Z" fill="#524E53"/>
<path d="M203.981 60.581C200.868 60.581 197.83 59.6429 195.207 57.838C191.774 55.4774 189.464 51.9156 188.7 47.8108C187.937 43.705 188.812 39.5473 191.164 36.1029C196.021 28.9909 205.736 27.1713 212.819 32.045C219.904 36.9188 221.718 46.6701 216.861 53.7811C214.51 57.2266 210.961 59.545 206.871 60.312C205.908 60.493 204.94 60.582 203.981 60.582V60.581ZM204.026 36.5685C201.364 36.5685 198.745 37.8413 197.13 40.2067C195.87 42.0517 195.401 44.2792 195.81 46.4784C196.219 48.6775 197.457 50.5851 199.296 51.85C201.135 53.1149 203.354 53.5855 205.545 53.1746C207.736 52.7637 209.637 51.5213 210.897 49.6763C213.498 45.8669 212.527 40.643 208.731 38.032C207.292 37.042 205.651 36.5676 204.026 36.5676V36.5685Z" fill="#DEC9BF"/>
<path d="M203.981 60.5811C200.868 60.5811 197.83 59.6429 195.207 57.838C191.774 55.4775 189.464 51.9156 188.7 47.8108C187.937 43.705 188.812 39.5474 191.164 36.1029L197.13 40.2067C195.87 42.0527 195.401 44.2802 195.81 46.4794C196.219 48.6785 197.457 50.5861 199.296 51.851C201.135 53.1159 203.354 53.5865 205.545 53.1756C207.736 52.7647 209.637 51.5223 210.897 49.6773L216.862 53.7811C214.511 57.2266 210.963 59.5451 206.872 60.312C205.909 60.493 204.941 60.582 203.982 60.582L203.981 60.5811Z" fill="#524E53"/>
<path d="M210.895 49.6793L215.32 48.7274L216.862 53.7811L210.895 49.6793Z" fill="#524E53"/>
<path d="M197.133 40.1978L192.709 41.1506L191.165 36.0959L197.133 40.1978Z" fill="#DEC9BF"/>
<path d="M198.148 46.8893H207.623V45.5285H198.148V46.8893Z" fill="#DEC9BF"/>
<path d="M198.148 44.4535H210.749V43.0927H198.148V44.4535Z" fill="#524E53"/>
<path d="M245.415 60.6397C254.05 60.6397 261.05 53.6136 261.05 44.9464C261.05 36.2792 254.05 29.2531 245.415 29.2531C236.78 29.2531 229.78 36.2792 229.78 44.9464C229.78 53.6136 236.78 60.6397 245.415 60.6397Z" fill="#524E53"/>
<path d="M261.05 44.9464C261.05 36.279 254.049 29.2531 245.415 29.2531V44.8701L261.05 44.9464Z" fill="#E5E5E1"/>
<path d="M299.973 45.2223C298.782 42.0703 297.004 39.1375 296.08 35.8984C296.335 41.4393 298.556 46.5449 300.608 51.6221C300.453 52.1102 300.256 52.5661 300.021 52.9897C299.053 50.2339 297.142 47.9145 296.08 45.2096C296.554 48.3292 297.817 51.2611 299.339 54.013C293.6 59.9706 280.36 64.7739 274.218 56.8167C270.263 50.9852 273.743 43.9691 275.875 38.1269C277.916 31.779 279.485 25.2461 281.114 18.9402C283.016 14.086 290.207 14.8422 291.978 20.3606C296.854 33.5545 301.205 38.8489 301.065 48.7949C300.774 47.5838 300.414 46.3903 299.973 45.2233V45.2223Z" fill="black"/>
<path d="M277.188 196.232L275.934 205.049C275.934 205.049 273.923 210.896 272.054 208.633C270.187 206.369 268.338 205.172 268.338 205.172L267.724 196.006L277.187 196.232H277.188Z" fill="#F5B0A6"/>
<path d="M306.955 195.555L309.726 204.35C309.726 204.35 311.835 206.181 312.597 206.133C313.982 206.047 314.708 203.682 314.708 203.682L314.936 195.555H306.955Z" fill="#F5B0A6"/>
<path d="M267.645 204.853L259.425 211.449C259.004 211.758 259.305 212.279 259.906 212.284L272.041 212.381C272.333 212.383 272.595 212.252 272.692 212.054L273.607 210.196C273.871 209.659 274.398 209.616 274.349 210.184L274.797 211.977C274.773 212.26 277.674 212.183 277.7 211.926C277.859 210.331 277.524 205.116 277.234 203.664C277.193 203.456 276.977 203.289 276.69 203.248H276.689C276.432 203.211 276.169 203.282 276.011 203.433C275.193 204.218 272.574 206.578 271.178 206.1C270.243 205.78 269.03 205.206 268.653 204.876C268.398 204.653 267.926 204.645 267.645 204.852V204.853Z" fill="#19111C"/>
<path d="M314.81 203.377L319.045 210.399C319.497 211.082 319.246 211.897 318.428 212.379C317.103 213.16 316.021 214.717 315.188 214.739C313.682 214.78 311.342 213.211 309.978 212.622C309.062 212.227 308.345 211.648 308.458 210.891L309.511 203.846C309.524 203.759 309.679 203.727 309.756 203.795L311.378 205.251C311.909 205.728 313.351 205.664 313.709 205.093C313.964 204.686 314.564 203.372 314.564 203.372C314.618 203.301 314.761 203.305 314.809 203.377L314.81 203.377Z" fill="#19111C"/>
<path d="M292.346 79.6983C295.766 85.6833 297.573 90.0659 299.538 97.6749C301.816 106.499 321.71 181.231 322.785 197.282C319.977 197.952 306.091 197.761 304.317 197.664C298.67 181.646 284.385 129.621 281.964 119.53C281.592 117.979 281.775 117.946 281.964 119.53C283.339 131.054 284.741 180.075 288.431 197.803C286.958 198.546 268.97 198.271 267.268 198.06C265.418 178.294 256.152 105.666 270.974 81.4112C277.753 80.4858 285.471 79.4967 292.345 79.6992L292.346 79.6983Z" fill="#332E35"/>
<path d="M272.198 198.155C272.128 197.557 265.139 138.154 265.139 117.508C265.139 106.711 266.782 97.5772 268.162 91.8152C269.657 85.5699 271.172 81.8281 271.187 81.7909L271.431 81.8887C271.416 81.9259 269.907 85.6541 268.417 91.8817C267.043 97.629 265.403 106.74 265.403 117.508C265.403 138.139 272.39 197.528 272.46 198.124L272.198 198.155Z" fill="black"/>
<path d="M314.437 197.473L288.875 81.1853L289.133 81.1305L314.694 197.417L314.437 197.473Z" fill="black"/>
<g style="mix-blend-mode:multiply" opacity="0.21">
<path d="M270.521 82.2281L298.428 103.033C298.428 103.033 299.593 91.8054 294.636 82.5911L270.521 82.2291V82.2281Z" fill="black"/>
</g>
<path d="M272.92 47.7033C272.92 47.7033 268.384 47.0742 266.575 50.7349C264.766 54.3946 260.507 69.2838 260.507 69.2838L249.991 60.1448L243.213 69.4569C243.213 69.4569 261.27 88.0362 265.833 86.6343C270.395 85.2325 272.973 52.6924 272.92 47.7023V47.7033Z" fill="#322D32"/>
<path d="M272.191 48.475C272.389 48.9485 266.569 62.6794 266.805 67.3252C267.042 72.0062 270.493 82.8884 270.242 83.5928C270.242 83.5928 271.781 85.9543 292.02 82.7994C298.242 77.4102 295.061 56.2747 292.972 50.4756C292.972 50.4756 289.727 48.2197 288.012 48.0945C288.012 48.0945 280.174 50.8209 272.192 48.475H272.191Z" fill="#524E53"/>
<path d="M289.272 122.198L315.421 105.611L304.57 88.8451L278.916 105.119C278.642 105.292 278.563 105.653 278.738 105.924L289.272 122.199V122.198Z" fill="#524E53"/>
<g opacity="0.6">
<path d="M298.544 92.1428C298.544 92.1428 302.759 94.0798 299.501 105.912C299.329 106.538 299.181 107.251 299.309 107.888L300.04 112.973C300.15 113.518 300.224 114.249 299.758 114.556C299.174 114.94 295.846 117.969 295.441 118.102C294.619 118.373 295.515 114.354 295.381 112.236C295.357 111.86 295.266 113.577 295.216 114.328L295.115 115.981C294.12 115.53 294.14 113.632 293.985 112.993C293.777 112.136 293.946 111.586 294.047 111.378C294.501 110.441 295.366 108.579 295.501 106.908C295.581 105.924 294.885 102.271 294.309 95.467L298.545 92.1428H298.544Z" fill="#6F6F6F"/>
</g>
<path d="M299.081 63.3467C306.896 106.56 301.82 114.766 301.308 115.104C300.668 115.525 297.021 118.845 296.576 118.99C295.675 119.288 296.659 114.883 296.511 112.561C296.484 112.147 296.385 114.031 296.33 114.854L296.219 116.666C295.129 116.172 295.151 114.091 294.981 113.39C294.753 112.451 294.939 111.848 295.048 111.621C295.546 110.594 296.495 108.552 296.643 106.721C296.73 105.642 289.324 70.5467 288.021 65.3903C286.252 58.3829 288.479 50.3338 290.971 50.0608C294.063 49.7224 298.434 59.7672 299.082 63.3457L299.081 63.3467Z" fill="#F5B0A6"/>
<path d="M304.567 104.234C304.252 102.911 305.935 77.7008 300.255 61.2082C297.716 53.837 294.061 49.7243 290.969 50.0628C288.477 50.3348 286.25 58.384 288.02 65.3922C289.322 70.5487 292.059 93.5663 294.34 105.326L304.566 104.236L304.567 104.234Z" fill="#322D32"/>
<path d="M296.77 49.4552C291.881 42.7796 293.317 33.9664 291.728 26.284C290.92 22.7682 287.234 14.6975 283.181 19.895C282.882 18.545 284.342 17.1294 285.713 16.8682C287.083 16.6061 288.506 17.2664 289.472 18.2632C296.19 27.2652 292.662 39.6511 296.77 49.4552Z" fill="black"/>
<path d="M283.292 17.8074C285.532 15.7295 289.152 16.9035 290.846 19.1173C292.691 21.29 293.361 24.17 294.466 26.6891C295.21 28.3815 296.206 29.9379 297.253 31.4659C302.124 37.9401 304.294 44.7469 300.76 52.4595C303.805 44.9014 301.56 37.9782 296.778 31.7809C295.732 30.2362 294.714 28.6397 293.97 26.8994C292.877 24.3226 292.307 21.561 290.556 19.3491C288.982 17.1588 285.564 15.936 283.291 17.8074H283.292Z" fill="black"/>
<path d="M285.688 20.1239C285.535 20.4918 285.244 21.3888 284.715 21.1364C283.42 20.6326 282.025 20.3343 280.79 19.7033C280.401 19.4069 280.763 19.1515 280.775 18.7162C281.44 15.4351 287.252 17.0864 285.687 20.1239H285.688Z" fill="#524E53"/>
<path d="M285.688 20.1239C285.535 20.4917 285.244 21.3888 284.715 21.1364C283.42 20.6326 282.025 20.3342 280.79 19.7032C280.401 19.4068 280.763 19.1515 280.775 18.7162C280.893 17.6694 282.022 16.923 283.045 16.9034C282.655 17.15 282.3 17.4493 281.993 17.7927C282.792 17.4307 283.728 17.3759 284.565 17.6401C283.93 17.7809 283.306 17.9639 282.695 18.184C283.778 18.1292 284.87 18.2926 285.89 18.6516C286.052 19.3002 285.777 19.8803 285.687 20.1239H285.688Z" fill="#524E53"/>
<path d="M289.511 32.9568C288.866 35.6686 285.858 38.5662 283.625 40.379C280.993 42.5165 278.819 40.421 276.393 38.5613C273 35.9611 266.132 31.7409 269.868 24.0468C272.655 17.5501 284.443 16.3899 287.974 22.3984C289.691 25.3929 290.212 29.8557 289.511 32.9568Z" fill="black"/>
<path d="M289.51 32.9568C288.866 35.6685 285.858 38.5661 283.625 40.3789C280.993 42.5164 278.819 40.4209 276.393 38.5612C272.158 36.0197 266.71 28.1408 272.708 21.2861C272.526 22.1782 272.543 23.1086 272.774 23.989C272.755 22.8757 273.496 21.9464 274.184 21.1305C273.92 21.827 274.081 22.6038 274.247 23.3297C274.404 22.4795 274.747 21.738 275.233 21.021C275.171 21.7253 275.183 22.4355 275.27 23.1379C277.799 21.1178 279.517 23.6241 279.834 20.4712C280.125 21.0748 280.1 21.7742 280.057 22.4414C281.27 21.8437 282.097 20.5592 282.242 19.2249C282.62 20.5044 282.491 21.9239 281.889 23.1174C282.17 23.3042 282.428 23.5136 282.709 23.7004C283.701 23.0489 284.476 22.0785 284.889 20.973C284.962 22.1861 284.356 23.3297 283.727 24.3735C284.547 23.9401 285.217 23.2328 285.601 22.3964C285.605 21.5795 285.707 20.7089 285.591 19.8744C285.871 20.0662 286.139 20.2745 286.394 20.4986C286.859 22.3103 285.905 24.2512 284.567 25.477C286.117 25.1933 287.47 24.4175 288.418 23.2504C288.468 23.3551 288.515 23.4627 288.561 23.5703C287.784 25.0524 286.628 26.3398 285.222 27.2623C286.624 26.9893 288.118 26.6577 289.331 25.9612C289.889 28.3335 289.981 30.9797 289.51 32.9568Z" fill="black"/>
<path d="M276.431 23.5547C270.935 21.064 266.353 26.1275 268.105 32.3855C270.029 39.2578 276.743 37.181 276.743 37.181L276.43 23.5547H276.431Z" fill="black"/>
<path d="M284.806 35.8007L285.008 48.1082C285.008 48.1082 283.037 49.5766 279.797 49.5766C275.894 49.5766 274.937 49.1951 274.937 49.1951L275.202 40.9727L275.339 36.8993L284.806 35.8016V35.8007Z" fill="#F5B0A6"/>
<path d="M282.598 41.9109L275.031 48.0897L275.202 40.9738L282.598 41.9109Z" fill="#EF8B8B"/>
<path d="M285.008 23.9588L283.48 40.511C283.41 41.2506 282.901 41.8728 282.186 42.0978L275.034 44.3224C274.428 44.5102 273.761 44.3762 273.274 43.9682L269.814 41.052C269.354 40.6656 269.111 40.0816 269.165 39.4868L269.218 38.9184L269.83 32.2985L270.182 28.4549C270.479 25.255 273.339 22.9013 276.571 23.1908L285.007 23.9578L285.008 23.9588Z" fill="#F5B0A6"/>
<path d="M271.91 35.5052C271.91 37.1565 270.762 38.5388 269.218 38.9194L269.83 32.2994C271.058 32.8512 271.909 34.0789 271.909 35.5052H271.91Z" fill="#EF8B8B"/>
<path d="M274.216 37.1575C274.195 37.1575 274.172 37.1526 274.151 37.1438L271.705 36.0746C271.627 36.0404 271.589 35.9523 271.617 35.8731L273.732 29.9692C273.762 29.8851 273.855 29.8411 273.94 29.8714C274.026 29.9008 274.07 29.9937 274.039 30.0768L271.975 35.8398L274.283 36.8494C274.365 36.8856 274.402 36.9805 274.366 37.0617C274.34 37.1223 274.28 37.1575 274.217 37.1575H274.216Z" fill="#D87171"/>
<path d="M284.422 33.6915C280.234 32.9353 277.383 31.2791 275.951 28.7689C274.028 25.4017 275.378 21.7733 275.437 21.6207L276.011 21.8359C275.998 21.8712 274.706 25.3606 276.489 28.4764C277.829 30.8184 280.535 32.3728 284.532 33.0948L284.422 33.6925V33.6915Z" fill="black"/>
<path d="M285.938 33.624C285.938 33.624 275.449 31.4287 275.071 23.1702L275.814 21.0269L287.608 22.5295L285.938 33.623V33.624Z" fill="black"/>
<path d="M281.849 36.0511C281.677 37.9088 283.06 39.5533 284.936 39.7226C286.813 39.8928 288.473 38.5242 288.645 36.6655C288.816 34.8077 287.434 33.1633 285.557 32.994C283.68 32.8238 282.02 34.1924 281.849 36.0511Z" fill="#F5B0A6"/>
<path d="M269.798 28.2592C270.02 28.94 272.446 28.7004 272.37 28.04C272.245 26.9434 269.446 27.1801 269.798 28.2592Z" fill="black"/>
<path d="M280.479 29.2845C280.098 29.892 277.803 29.08 278.036 28.4569C278.425 27.4228 281.084 28.3219 280.479 29.2845Z" fill="black"/>
<path d="M283.191 36.3583C283.191 38.3041 281.597 39.882 279.632 39.882C277.667 39.882 276.073 38.3041 276.073 36.3583C276.073 34.4125 277.667 32.8346 279.632 32.8346C281.597 32.8346 283.191 34.4125 283.191 36.3583Z" fill="#EF8B8B"/>
<path d="M278.011 33.3237C277.952 33.9566 277.603 34.4418 277.231 34.4086C276.859 34.3753 276.604 33.8343 276.663 33.2024C276.722 32.5694 277.071 32.0842 277.443 32.1175C277.814 32.1507 278.07 32.6917 278.011 33.3237Z" fill="black"/>
<path d="M271.744 32.7573C271.685 33.3902 271.336 33.8754 270.964 33.8422C270.592 33.8089 270.337 33.2679 270.396 32.636C270.455 32.003 270.804 31.5178 271.176 31.5511C271.548 31.5843 271.803 32.1253 271.744 32.7573Z" fill="black"/>
<path d="M284.377 37.3874L284.15 37.1252L286.266 35.3291L286.493 35.5913L284.377 37.3874Z" fill="black"/>
<path d="M285.998 37.3707L285.192 36.4727L285.452 36.2438L286.258 37.1408L285.998 37.3707Z" fill="black"/>
<path d="M288.312 48.2431L284.956 45.4658C284.956 45.4658 280.663 47.3646 275.536 49.1382L275.624 50.4677C275.797 53.0836 278.691 54.6067 280.977 53.2822C283.36 51.9018 287.281 49.7545 288.312 48.2441V48.2431Z" fill="#F2F2F2"/>
<path d="M275.019 46.1527C275.019 46.1527 274.908 47.8686 275.603 49.201L275.141 50.3152C274.605 51.8491 272.316 51.5831 272.178 49.966C272.124 49.3311 272.35 48.2599 272.443 47.807L275.018 46.1537L275.019 46.1527Z" fill="#F2F2F2"/>
<path d="M248.655 61.9185L243.575 56.9234C243.575 56.9234 241.648 55.3171 239.167 54.5678C236.136 53.6521 232.049 51.6809 232.049 51.6809C232.049 51.6809 230.913 52.6484 232.335 53.6325L236.18 56.3756L234.308 58.2187C233.557 58.8946 233.687 60.1439 234.603 60.5782C234.651 60.6007 234.701 60.6223 234.754 60.6418C234.754 60.6418 234.497 62.0583 235.955 62.5005C235.955 62.5005 236.06 63.4817 237.106 63.7527C238.152 64.0237 239.742 63.1442 239.742 63.1442C239.742 63.1442 240.401 65.0998 243.439 65.2387L245.011 66.8871L248.654 61.9185H248.655Z" fill="#F5B0A6"/>
<path d="M240.411 56.7268L234.264 57.034C234.264 57.034 233.937 58.7665 235.546 58.9191C237.156 59.0717 238.835 59.4435 238.835 59.4435C238.835 59.4435 238.93 61.8441 241.404 62.1396L240.411 56.7268Z" fill="#F5B0A6"/>
<path d="M241.404 62.2569C241.404 62.2569 241.395 62.2569 241.39 62.2569C239.125 61.9859 238.775 59.9932 238.725 59.5402C238.365 59.4639 236.915 59.1675 235.535 59.0364C235.052 58.9904 234.685 58.8055 234.442 58.4866C233.989 57.8909 234.141 57.0496 234.148 57.0134L234.164 56.9224L239.317 56.6651C239.382 56.6631 239.437 56.7111 239.441 56.7756C239.444 56.8402 239.394 56.895 239.329 56.8979L234.369 57.1464C234.345 57.3655 234.321 57.9378 234.632 58.3458C234.833 58.6099 235.144 58.7635 235.558 58.8026C237.156 58.9542 238.844 59.325 238.862 59.3289L238.95 59.3485L238.954 59.4385C238.958 59.5324 239.076 61.7433 241.419 62.0231C241.484 62.0309 241.53 62.0896 241.522 62.1532C241.515 62.2128 241.464 62.2559 241.404 62.2559V62.2569Z" fill="#EF8B8B"/>
<path d="M235.023 60.7817C234.917 60.7817 234.821 60.7739 234.733 60.7572C234.668 60.7455 234.627 60.6839 234.639 60.6203C234.65 60.5567 234.713 60.5146 234.777 60.5273C235.879 60.7357 238.755 59.3524 238.785 59.3387C238.843 59.3104 238.914 59.3348 238.942 59.3925C238.97 59.4503 238.946 59.5207 238.888 59.5491C238.777 59.6029 236.324 60.7817 235.024 60.7817H235.023Z" fill="#EF8B8B"/>
<path d="M235.954 62.6169C235.892 62.6169 235.839 62.5679 235.836 62.5044C235.833 62.4398 235.884 62.385 235.95 62.3831C237.733 62.3116 239.346 60.9949 239.363 60.9812C239.413 60.9401 239.487 60.946 239.529 60.9959C239.571 61.0458 239.564 61.1191 239.514 61.1602C239.446 61.217 237.825 62.5415 235.959 62.6159C235.957 62.6159 235.956 62.6159 235.954 62.6159V62.6169Z" fill="#EF8B8B"/>
<path d="M239.742 63.2616C239.712 63.2616 239.682 63.2499 239.659 63.2274C239.613 63.1814 239.613 63.108 239.659 63.062C239.968 62.7558 240.424 62.1738 240.332 61.9175C240.311 61.8568 240.342 61.7893 240.404 61.7678C240.465 61.7463 240.533 61.7776 240.554 61.8382C240.726 62.3156 239.918 63.1344 239.825 63.2264C239.802 63.2489 239.773 63.2606 239.742 63.2606V63.2616Z" fill="#EF8B8B"/>
<path d="M248.655 61.9185L243.808 65.6848L245.011 66.8871L248.655 61.9185Z" fill="#EF8B8B"/>
<path d="M118.289 213.305H55.5612C54.3364 213.305 53.3435 212.309 53.3435 211.08V166.118C53.3435 164.89 54.3364 163.894 55.5612 163.894H81.0587C81.6466 163.894 82.2111 164.129 82.6269 164.545L86.7708 168.703C87.1866 169.121 87.751 169.354 88.3389 169.354H118.29C119.514 169.354 120.507 170.35 120.507 171.579V211.079C120.507 212.308 119.514 213.304 118.29 213.304L118.289 213.305Z" fill="#E5E5E1"/>
<path d="M112.607 137.534V194.128H59.3561V129.089H104.19L112.607 137.534Z" fill="#E5E5E5"/>
<path d="M104.19 137.534V129.089L112.607 137.534H104.19Z" fill="#DEC9BF"/>
<path d="M115.905 140.495V197.089H62.6546V132.05H107.488L115.905 140.495Z" fill="white"/>
<path d="M120.647 213.305H57.9198C56.695 213.305 55.7021 212.309 55.7021 211.08V172.504C55.7021 171.276 56.695 170.28 57.9198 170.28H83.4163C84.0043 170.28 84.5687 170.515 84.9845 170.931L89.1284 175.089C89.5442 175.507 90.1086 175.74 90.6966 175.74H120.647C121.872 175.74 122.865 176.736 122.865 177.965V211.08C122.865 212.309 121.872 213.305 120.647 213.305Z" fill="#F0F0F0"/>
<path d="M107.488 140.495V132.05L115.905 140.495H107.488Z" fill="#DEC9BF"/>
<path d="M105.141 135.763H65.0347C64.9747 135.763 64.9261 135.811 64.9261 135.871V137.852C64.9261 137.912 64.9747 137.961 65.0347 137.961H105.141C105.201 137.961 105.249 137.912 105.249 137.852V135.871C105.249 135.811 105.201 135.763 105.141 135.763Z" fill="#DEC9BF"/>
<path d="M113.431 144.048H65.1355C65.0977 144.048 65.067 144.078 65.067 144.116V145.361C65.067 145.399 65.0977 145.43 65.1355 145.43H113.431C113.469 145.43 113.5 145.399 113.5 145.361V144.116C113.5 144.078 113.469 144.048 113.431 144.048Z" fill="#DEC9BF"/>
<path d="M113.431 147.972H65.1355C65.0977 147.972 65.067 148.003 65.067 148.041V149.286C65.067 149.324 65.0977 149.355 65.1355 149.355H113.431C113.469 149.355 113.5 149.324 113.5 149.286V148.041C113.5 148.003 113.469 147.972 113.431 147.972Z" fill="#DEC9BF"/>
<path d="M104.806 151.896H65.1355C65.0977 151.896 65.067 151.927 65.067 151.965V153.21C65.067 153.248 65.0977 153.279 65.1355 153.279H104.806C104.844 153.279 104.875 153.248 104.875 153.21V151.965C104.875 151.927 104.844 151.896 104.806 151.896Z" fill="#DEC9BF"/>
<path d="M104.806 155.821H65.1355C65.0977 155.821 65.067 155.852 65.067 155.89V157.135C65.067 157.173 65.0977 157.203 65.1355 157.203H104.806C104.844 157.203 104.875 157.173 104.875 157.135V155.89C104.875 155.852 104.844 155.821 104.806 155.821Z" fill="#DEC9BF"/>
<path d="M91.9135 159.746H65.1355C65.0977 159.746 65.067 159.777 65.067 159.814V161.06C65.067 161.098 65.0977 161.128 65.1355 161.128H91.9135C91.9514 161.128 91.982 161.098 91.982 161.06V159.814C91.982 159.777 91.9514 159.746 91.9135 159.746Z" fill="#DEC9BF"/>
<path d="M91.9135 163.671H65.1355C65.0977 163.671 65.067 163.701 65.067 163.739V164.984C65.067 165.022 65.0977 165.053 65.1355 165.053H91.9135C91.9514 165.053 91.982 165.022 91.982 164.984V163.739C91.982 163.701 91.9514 163.671 91.9135 163.671Z" fill="#DEC9BF"/>
<g opacity="0.42">
<path d="M177.608 198.582C190.333 185.857 190.333 165.227 177.608 152.502C164.884 139.778 144.253 139.778 131.529 152.502C118.804 165.227 118.804 185.857 131.529 198.582C144.253 211.306 164.884 211.306 177.608 198.582Z" fill="white"/>
</g>
<g opacity="0.7">
<path d="M147.135 151.004C146.707 149.95 145.506 149.443 144.452 149.87C129.222 156.053 121.861 173.473 128.044 188.702C128.471 189.756 129.673 190.264 130.726 189.836C131.78 189.409 132.288 188.207 131.86 187.154C126.531 174.027 132.876 159.014 146.002 153.686C147.055 153.259 147.563 152.058 147.136 151.004H147.135Z" fill="#F0F0F0"/>
</g>
<g opacity="0.58">
<path d="M167.211 206.687C150.037 213.658 130.395 205.357 123.423 188.185C116.452 171.012 124.753 151.369 141.925 144.398C159.099 137.427 178.741 145.727 185.713 162.9C192.684 180.073 184.383 199.716 167.211 206.687ZM166.436 204.779C182.557 198.236 190.349 179.796 183.805 163.675C177.261 147.554 158.822 139.762 142.7 146.305C126.579 152.849 118.787 171.288 125.331 187.41C131.875 203.531 150.314 211.323 166.436 204.779Z" fill="#4E4E4E"/>
</g>
<path d="M188.793 191.366L191.214 185.636C193.367 177.844 193.075 169.311 189.799 161.242C181.9 141.784 159.724 132.413 140.267 140.312C120.81 148.21 111.439 170.386 119.337 189.843C127.236 209.301 149.412 218.672 168.869 210.773C176.972 207.484 183.319 201.715 187.404 194.701C187.422 194.638 187.436 194.573 187.463 194.51L188.792 191.364L188.793 191.366ZM166.823 205.733C150.15 212.502 131.146 204.471 124.377 187.798C117.609 171.124 125.639 152.12 142.313 145.352C158.986 138.583 177.99 146.614 184.759 163.287C191.527 179.961 183.497 198.965 166.823 205.733Z" fill="#DEC9BF"/>
<path d="M191.71 185.773L187.937 194.713C187.924 194.742 187.918 194.774 187.902 194.835L187.849 194.96C183.526 202.384 177.029 208.015 169.062 211.25C149.373 219.242 126.852 209.725 118.86 190.036C110.867 170.346 120.384 147.826 140.074 139.833C159.763 131.841 182.284 141.357 190.276 161.047C193.494 168.973 193.99 177.522 191.71 185.772V185.773ZM168.675 210.297C176.407 207.157 182.717 201.697 186.925 194.503C186.942 194.438 186.962 194.374 186.989 194.312L190.726 185.466C192.934 177.448 192.448 169.139 189.321 161.435C181.542 142.272 159.623 133.01 140.46 140.789C121.297 148.568 112.035 170.487 119.814 189.65C127.593 208.814 149.512 218.076 168.675 210.297ZM167.017 206.21C150.107 213.075 130.765 204.902 123.901 187.991C117.036 171.081 125.21 151.739 142.12 144.875C159.03 138.011 178.372 146.184 185.236 163.094C192.101 180.005 183.927 199.347 167.017 206.21ZM166.63 205.257C183.014 198.606 190.933 179.866 184.281 163.482C177.631 147.098 158.89 139.179 142.506 145.83C126.123 152.48 118.203 171.221 124.855 187.605C131.505 203.989 150.246 211.908 166.63 205.257Z" fill="#DEC9BF"/>
<path d="M192.618 191.404L190.697 190.592C189.957 190.28 189.104 190.626 188.792 191.365L191.213 185.635L191.252 185.542C191.565 184.802 192.418 184.456 193.157 184.769L195.488 185.754C194.794 186.674 193.648 189.002 192.617 191.404H192.618Z" fill="#DEC9BF"/>
<path d="M188.793 191.366C189.105 190.627 189.958 190.28 190.698 190.593L192.619 191.405C191.621 193.731 190.735 196.116 190.47 197.361L188.237 196.418C187.561 196.132 187.22 195.394 187.406 194.704C187.424 194.641 187.438 194.576 187.465 194.513L188.794 191.367L188.793 191.366Z" fill="#676767"/>
<path d="M188.793 191.366C189.105 190.627 189.958 190.28 190.698 190.593L192.619 191.405C191.621 193.731 190.735 196.116 190.47 197.361L188.237 196.418C187.561 196.132 187.22 195.394 187.406 194.704C187.424 194.641 187.438 194.576 187.465 194.513L188.794 191.367L188.793 191.366Z" fill="#DEC9BF"/>
<path d="M225.631 212.86L190.48 198.231C190.353 198.178 190.363 197.858 190.469 197.36C190.734 196.116 191.62 193.73 192.618 191.404C193.649 189.002 194.795 186.673 195.489 185.754C195.715 185.455 195.894 185.302 196.005 185.348L231.156 199.977C234.73 201.464 236.39 205.554 234.864 209.111C233.337 212.668 229.203 214.347 225.63 212.859L225.631 212.86Z" fill="#DEC9BF"/>
<g opacity="0.14">
<path d="M234.864 209.112C236.39 205.555 194.2 187.805 192.909 190.735C191.391 194.179 190.006 198.034 190.48 198.231L225.631 212.86C229.204 214.347 233.338 212.669 234.864 209.112H234.864Z" fill="#2E2E2E"/>
</g>
</svg>
