<svg width="16" height="16" viewBox="0 0 16 16" fill="none" xmlns="http://www.w3.org/2000/svg">
<g clip-path="url(#clip0_494_223)">
<path opacity="0.1" fill-rule="evenodd" clip-rule="evenodd" d="M12.6993 1.28608C12.4188 1.07757 12.0786 0.964968 11.729 0.964972L11.7224 0.945312C11.468 0.945312 11.217 1.00453 10.9894 1.11827C10.8177 1.20408 10.6629 1.31913 10.5316 1.45781C10.5081 1.45746 10.4846 1.45728 10.4609 1.45728H5.30532C4.73651 1.45296 4.17242 1.56078 3.64534 1.77457C3.11826 1.98836 2.63852 2.30392 2.23357 2.7032C1.82861 3.10249 1.50639 3.57766 1.28534 4.10153C1.06429 4.6254 0.948744 5.18769 0.945312 5.75624V10.7761C0.957428 11.9209 1.42318 13.0142 2.24047 13.8164C3.05776 14.6186 4.15991 15.0641 5.30532 15.0554H10.6947C11.8401 15.0641 12.9422 14.6186 13.7595 13.8164C14.5768 13.0142 15.0426 11.9209 15.0547 10.7761V6.05103C15.0547 5.39045 14.9153 4.76244 14.6642 4.19482C14.6881 4.13537 14.7083 4.07439 14.7248 4.01221C14.7783 3.81004 14.7907 3.59921 14.7614 3.39215C14.7321 3.18509 14.6615 2.986 14.554 2.80662C14.4464 2.62724 14.304 2.47121 14.1352 2.34772L12.6993 1.28608Z" fill="#78829D"/>
<path d="M10.6947 15.0546H5.30532C4.15991 15.0633 3.05776 14.6178 2.24047 13.8156C1.42318 13.0134 0.957428 11.9201 0.945312 10.7753V5.75543C0.948744 5.18688 1.06429 4.62459 1.28534 4.10072C1.50639 3.57685 1.82861 3.10168 2.23357 2.70239C2.63852 2.30311 3.11826 1.98755 3.64534 1.77376C4.17243 1.55997 4.73651 1.45215 5.30532 1.45647H7.62629C7.69086 1.45647 7.7548 1.46918 7.81446 1.49388C7.87412 1.51858 7.92833 1.55479 7.97399 1.60043C8.01965 1.64607 8.05587 1.70025 8.08058 1.75988C8.1053 1.81951 8.11802 1.88342 8.11802 1.94797C8.11802 2.01251 8.1053 2.07642 8.08058 2.13605C8.05587 2.19569 8.01965 2.24987 7.97399 2.29551C7.92833 2.34115 7.87412 2.37735 7.81446 2.40205C7.7548 2.42675 7.69086 2.43946 7.62629 2.43946H5.30532C4.42697 2.43415 3.58193 2.77518 2.95351 3.38859C2.32509 4.00199 1.96396 4.8383 1.94844 5.71611V10.7359C1.96396 11.6138 2.32509 12.4501 2.95351 13.0635C3.58193 13.6769 4.42697 14.0179 5.30532 14.0126H10.6947C11.573 14.0179 12.4181 13.6769 13.0465 13.0635C13.6749 12.4501 14.036 11.6138 14.0516 10.7359V7.44618C14.0657 7.3231 14.1246 7.2095 14.2171 7.12703C14.3096 7.04457 14.4292 6.99899 14.5531 6.99899C14.6771 6.99899 14.7967 7.04457 14.8892 7.12703C14.9817 7.2095 15.0406 7.3231 15.0547 7.44618V10.7753C15.0426 11.9201 14.5768 13.0134 13.7595 13.8156C12.9422 14.6178 11.8401 15.0633 10.6947 15.0546V15.0546ZM11.724 1.94797C11.6286 1.94614 11.5342 1.96721 11.4487 2.0094C11.3631 2.05159 11.2889 2.11367 11.2323 2.19044L10.8455 2.68849C10.9758 3.21812 11.2923 3.68328 11.7371 3.99915C12.1488 4.31068 12.6501 4.48079 13.1664 4.48409H13.2451L13.6319 3.98604C13.6802 3.92331 13.7155 3.8516 13.7358 3.77509C13.756 3.69858 13.7609 3.61881 13.75 3.54042C13.7404 3.462 13.7144 3.38648 13.6738 3.31874C13.6331 3.251 13.5786 3.19257 13.5139 3.14722L12.0912 2.07248C11.9861 1.99128 11.8569 1.94746 11.724 1.94797M11.724 0.964972C12.0736 0.964968 12.4139 1.07757 12.6944 1.28608L14.1302 2.34772C14.2991 2.47121 14.4415 2.62724 14.549 2.80662C14.6566 2.986 14.7271 3.18509 14.7564 3.39215C14.7858 3.59921 14.7733 3.81004 14.7198 4.01221C14.6663 4.21438 14.5729 4.4038 14.4449 4.56929L14.0122 5.13287C13.9486 5.2169 13.8689 5.28742 13.7777 5.34031C13.6865 5.39319 13.5857 5.42738 13.4812 5.44087H13.1664C12.4344 5.44428 11.7203 5.21476 11.1274 4.78554C10.4496 4.29789 9.98125 3.57225 9.81612 2.75402C9.80055 2.65018 9.80648 2.54425 9.83355 2.4428C9.86062 2.34134 9.90824 2.24653 9.97348 2.16423L10.4062 1.60064C10.5589 1.39717 10.7569 1.23202 10.9845 1.11827C11.212 1.00453 11.463 0.945312 11.7175 0.945312L11.724 0.964972ZM8.73432 5.42121L7.26568 7.35444C7.20133 7.43466 7.16454 7.53347 7.16078 7.63623V9.70707C7.15762 9.73255 7.16075 9.75841 7.1699 9.78239C7.17904 9.80638 7.19392 9.82777 7.21323 9.84469C7.25331 9.88494 7.30724 9.90838 7.36403 9.91022H7.42304L9.4293 9.32043C9.52826 9.28784 9.61509 9.22617 9.67844 9.14349L11.1471 7.24303C10.6805 7.05524 10.2398 6.80858 9.83579 6.50906C9.42991 6.20695 9.06611 5.85213 8.75399 5.45398M8.78677 4.03847C8.86119 4.03672 8.93458 4.05611 8.99841 4.09439C9.06224 4.13267 9.11389 4.18827 9.14737 4.25473C9.47638 4.83072 9.92319 5.33091 10.4587 5.72267C10.9915 6.12043 11.6045 6.3977 12.2551 6.53527C12.3256 6.54614 12.3918 6.57564 12.4471 6.62071C12.5023 6.66579 12.5445 6.7248 12.5692 6.79163C12.5939 6.85847 12.6004 6.9307 12.5878 7.00085C12.5752 7.071 12.5441 7.13651 12.4977 7.1906L10.5308 9.7595C10.3382 10.0109 10.0689 10.1927 9.76367 10.2772L7.73774 10.867C7.62712 10.9004 7.51235 10.918 7.39681 10.9194C7.23821 10.9221 7.0807 10.8929 6.93357 10.8336C6.78644 10.7744 6.65269 10.6863 6.54023 10.5745C6.42776 10.4627 6.33886 10.3295 6.27878 10.1827C6.2187 10.036 6.18866 9.87871 6.19043 9.72018V7.64934C6.1956 7.33504 6.30386 7.03113 6.49858 6.7843L8.4655 4.21541C8.50516 4.16665 8.55511 4.12726 8.61179 4.10007C8.66847 4.07287 8.73046 4.05855 8.79332 4.05813L8.78677 4.03847Z" fill="#78829D"/>
</g>
<defs>
<clipPath id="clip0_494_223">
<rect width="15.75" height="15.75" fill="white" transform="translate(0.125 0.125)"/>
</clipPath>
</defs>
</svg>
