<svg width="18" height="18" viewBox="0 0 18 18" fill="none" xmlns="http://www.w3.org/2000/svg">
<path opacity="0.1" fill-rule="evenodd" clip-rule="evenodd" d="M4.95809 1.80046C5.54394 1.40901 6.23271 1.20007 6.9373 1.20007C7.40514 1.20007 7.86839 1.29222 8.30061 1.47125C8.73284 1.65028 9.12556 1.9127 9.45637 2.24351C9.78718 2.57431 10.0496 2.96704 10.2286 3.39926C10.4077 3.83149 10.4998 4.29474 10.4998 4.76257C10.4998 5.46717 10.2909 6.15594 9.89942 6.74179C9.50796 7.32764 8.95158 7.78425 8.30061 8.05389C7.64965 8.32353 6.93335 8.39408 6.2423 8.25662C5.55124 8.11916 4.91646 7.77986 4.41824 7.28164C3.92001 6.78342 3.58072 6.14864 3.44326 5.45758C3.3058 4.76652 3.37635 4.05022 3.64598 3.39926C3.91562 2.7483 4.37224 2.19192 4.95809 1.80046ZM1.4248 12.9C1.4248 10.7103 3.87214 9 6.99214 9C10.1121 9 12.5881 10.7103 12.5881 12.9C12.5881 15.0897 10.1121 16.8 6.99214 16.8C3.87214 16.8 1.4248 15.0897 1.4248 12.9ZM14.4265 7.61847C13.8868 8.18253 13.1451 8.50908 12.3646 8.5263L12.2781 8.51908C12.1413 8.53033 12.0038 8.53033 11.867 8.51908C11.7963 8.50935 11.7283 8.48574 11.6668 8.44962C11.6053 8.41349 11.5515 8.36555 11.5086 8.30857C11.4657 8.25159 11.4345 8.18669 11.4168 8.1176C11.399 8.04851 11.3952 7.9766 11.4053 7.906L11.4476 7.78445C11.9153 6.43809 12.0283 4.99642 11.779 3.59787L11.7682 3.53815C11.72 3.275 11.6668 2.98464 11.8523 2.79917C11.9537 2.69772 12.0913 2.64073 12.2348 2.64073C13.0153 2.62352 13.7706 2.91705 14.3347 3.45675C14.8987 3.99646 15.2253 4.73813 15.2425 5.5186C15.2597 6.29907 14.9662 7.05442 14.4265 7.61847ZM13.3899 15.3C15.329 14.9912 16.6792 13.7918 16.6792 12.3698C16.6792 10.6893 14.8263 9.375 12.4634 9.375C12.3206 9.375 12.1836 9.43175 12.0826 9.53276C11.9816 9.63378 11.9248 9.77078 11.9248 9.91364L12.1106 10.2041C12.9246 11.4761 13.1931 13.016 12.8671 14.48C12.8128 14.7239 12.7645 15.0095 12.9548 15.1715C13.0522 15.2544 13.1758 15.2999 13.3037 15.3H13.3899Z" fill="#78829D"/>
<path fill-rule="evenodd" clip-rule="evenodd" d="M4.94248 1.73773C5.54037 1.33823 6.2433 1.125 6.96238 1.125C7.43984 1.125 7.91261 1.21904 8.35372 1.40175C8.79483 1.58447 9.19563 1.85227 9.53324 2.18988C9.87085 2.52749 10.1387 2.92829 10.3214 3.3694C10.5041 3.81051 10.5981 4.28328 10.5981 4.76073C10.5981 5.47981 10.3849 6.18275 9.98539 6.78064C9.58589 7.37853 9.01806 7.84453 8.35372 8.11971C7.68938 8.39489 6.95835 8.46689 6.25309 8.32661C5.54782 8.18632 4.9 7.84005 4.39153 7.33159C3.88307 6.82312 3.5368 6.17529 3.39651 5.47003C3.25622 4.76477 3.32822 4.03374 3.6034 3.3694C3.87858 2.70506 4.34459 2.13723 4.94248 1.73773ZM5.51204 6.90116C5.9406 7.19054 6.44528 7.3465 6.96238 7.34938C7.65799 7.34939 8.32533 7.07406 8.81856 6.58355C9.31179 6.09304 9.59081 5.42725 9.59466 4.73165C9.59465 4.21453 9.44148 3.709 9.15448 3.27884C8.86748 2.84868 8.4595 2.51315 7.98202 2.3146C7.50454 2.11606 6.97895 2.06337 6.47156 2.16321C5.96417 2.26304 5.49772 2.51091 5.13105 2.87555C4.76438 3.2402 4.51393 3.70527 4.41128 4.2121C4.30864 4.71893 4.35841 5.2448 4.55431 5.72337C4.75021 6.20195 5.08347 6.61178 5.51204 6.90116ZM1.30518 12.912C1.30518 10.687 3.79202 8.9491 6.96238 8.9491C10.1327 8.9491 12.6487 10.687 12.6487 12.912C12.6487 15.1371 10.1327 16.875 6.96238 16.875C3.79202 16.875 1.30518 15.1371 1.30518 12.912ZM2.3959 12.912C2.3959 14.4681 4.48281 15.7843 6.96238 15.7843C9.43468 15.7843 11.5216 14.4681 11.5216 12.912C11.5216 11.356 9.44195 10.0398 6.96238 10.0398C4.48281 10.0398 2.3959 11.356 2.3959 12.912ZM12.3796 8.54935C13.1665 8.532 13.9142 8.20278 14.4583 7.63413C15.0024 7.06549 15.2983 6.30398 15.281 5.51715C15.2636 4.73032 14.9344 3.98261 14.3657 3.4385C13.7971 2.8944 13.0356 2.59848 12.2488 2.61583C12.1041 2.61583 11.9654 2.67329 11.8631 2.77557C11.7609 2.87784 11.7034 3.01656 11.7034 3.16119C11.7034 3.30583 11.7609 3.44455 11.8631 3.54682C11.9654 3.6491 12.1041 3.70655 12.2488 3.70655C12.4951 3.70083 12.7402 3.74368 12.97 3.83266C13.1998 3.92165 13.4098 4.05503 13.5881 4.22518C13.7663 4.39534 13.9093 4.59894 14.0089 4.82436C14.1085 5.04978 14.1627 5.2926 14.1684 5.53897C14.1742 5.78533 14.1313 6.03041 14.0423 6.26022C13.9533 6.49002 13.8199 6.70005 13.6498 6.8783C13.4796 7.05656 13.276 7.19956 13.0506 7.29913C12.8252 7.39871 12.5824 7.4529 12.336 7.45863C12.2343 7.46612 12.1323 7.46612 12.0306 7.45863C11.8875 7.44176 11.7434 7.48071 11.6283 7.56739C11.5131 7.65407 11.4359 7.7818 11.4125 7.92401C11.4023 7.99518 11.4062 8.06768 11.4241 8.13733C11.4419 8.20698 11.4734 8.27241 11.5166 8.32986C11.5599 8.3873 11.6141 8.43563 11.6761 8.47205C11.7381 8.50847 11.8067 8.53227 11.8779 8.54208C12.0158 8.55342 12.1545 8.55342 12.2924 8.54208L12.3796 8.54935ZM16.7061 12.3814C16.7061 13.8211 15.3391 15.0355 13.3758 15.3481H13.2885C13.1591 15.3481 13.0338 15.302 12.9353 15.218C12.8367 15.1341 12.7712 15.0178 12.7505 14.89C12.7293 14.7476 12.7646 14.6026 12.8488 14.4858C12.933 14.369 13.0595 14.2897 13.2013 14.2647C14.6047 14.0466 15.6154 13.254 15.6154 12.3814C15.6154 11.327 14.1611 10.4399 12.4378 10.4399C12.2931 10.4399 12.1544 10.3824 12.0522 10.2802C11.9499 10.1779 11.8924 10.0392 11.8924 9.89454C11.8924 9.7499 11.9499 9.61119 12.0522 9.50891C12.1544 9.40664 12.2931 9.34918 12.4378 9.34918C14.8301 9.34918 16.7061 10.6799 16.7061 12.3814Z" fill="#78829D"/>
</svg>
