<svg width="60" height="61" viewBox="0 0 60 61" fill="none" xmlns="http://www.w3.org/2000/svg">
<path d="M24 3.9641C27.7128 1.82051 32.2872 1.82051 36 3.9641L49.9808 12.0359C53.6936 14.1795 55.9808 18.141 55.9808 22.4282V38.5718C55.9808 42.859 53.6936 46.8205 49.9808 48.9641L36 57.0359C32.2872 59.1795 27.7128 59.1795 24 57.0359L10.0192 48.9641C6.30642 46.8205 4.01924 42.859 4.01924 38.5718V22.4282C4.01924 18.141 6.30642 14.1795 10.0192 12.0359L24 3.9641Z" fill="white"/>
<path d="M24.5 4.83013C27.9034 2.86517 32.0966 2.86517 35.5 4.83013L49.4808 12.9019C52.8842 14.8669 54.9808 18.4983 54.9808 22.4282V38.5718C54.9808 42.5017 52.8842 46.1331 49.4808 48.0981L35.5 56.1699C32.0966 58.1348 27.9034 58.1348 24.5 56.1699L10.5192 48.0981C7.11583 46.1331 5.01924 42.5017 5.01924 38.5718V22.4282C5.01924 18.4983 7.11583 14.8669 10.5192 12.9019L24.5 4.83013Z" stroke="#FF6F1E" stroke-opacity="0.2" stroke-width="2"/>
<path opacity="0.1" fill-rule="evenodd" clip-rule="evenodd" d="M38.957 19.8095C39.3351 19.9263 39.6795 20.1324 39.961 20.4105C40.2423 20.6779 40.4533 21.0105 40.5756 21.3788C40.6978 21.7472 40.7273 22.14 40.6616 22.5225L40.021 25.7955C39.6243 27.8123 38.6263 29.6618 37.1583 31.1005C36.3759 31.8064 35.5466 32.4585 34.676 33.0523C35.4067 36.8058 30.0017 40.8797 29.7614 41.0598C29.6324 41.1505 29.4787 41.1994 29.321 41.2C29.2213 41.1984 29.1229 41.178 29.0307 41.1399C28.9142 41.0896 28.8131 41.0094 28.7375 40.9075C28.6619 40.8055 28.6146 40.6854 28.6003 40.5594L28.23 36.7858C27.885 36.8958 27.5166 36.9101 27.164 36.8273C26.8115 36.7444 26.4881 36.5675 26.2281 36.3154L24.1562 34.3736C23.9431 34.1716 23.7771 33.9252 23.6698 33.6519C23.5626 33.3786 23.5168 33.0851 23.5356 32.7921H19.9422C19.8133 32.793 19.6864 32.7602 19.5741 32.697C19.4618 32.6338 19.3678 32.5424 19.3016 32.4317C19.2353 32.3233 19.2002 32.1986 19.2002 32.0714C19.2002 31.9443 19.2353 31.8196 19.3016 31.7111C19.4518 31.4208 23.0552 25.7755 26.9488 26.1259C27.5835 25.1102 28.3106 24.1552 29.1208 23.2732C30.5274 21.8757 32.2779 20.8744 34.1956 20.3705L37.7889 19.7399C38.1782 19.6689 38.5789 19.6928 38.957 19.8095ZM34.0714 23.5003C33.5721 23.5121 33.0874 23.6714 32.6784 23.9581C32.2693 24.2448 31.9543 24.6462 31.7729 25.1116C31.5916 25.577 31.552 26.0857 31.6591 26.5736C31.7663 27.0614 32.0154 27.5067 32.3751 27.8533C32.8641 28.2918 33.5044 28.523 34.1607 28.4982C34.817 28.4733 35.438 28.1943 35.8924 27.7201C36.3468 27.2459 36.5991 26.6136 36.5959 25.9568C36.5928 25.3 36.3344 24.6702 35.8755 24.2004C35.388 23.7414 34.7409 23.4903 34.0714 23.5003Z" fill="#FF6F1E"/>
<path d="M34.1418 23.2029C33.5772 23.2162 33.0291 23.3964 32.5666 23.7206C32.1041 24.0448 31.7478 24.4986 31.5427 25.0249C31.3377 25.5512 31.2929 26.1264 31.414 26.6781C31.5352 27.2298 31.8169 27.7333 32.2237 28.1252C32.7766 28.621 33.5006 28.8825 34.2428 28.8544C34.9849 28.8263 35.6871 28.5108 36.2009 27.9746C36.7148 27.4383 37.0001 26.7234 36.9965 25.9807C36.9929 25.238 36.7008 24.5258 36.1818 23.9945C35.6305 23.4755 34.8989 23.1916 34.1418 23.2029ZM35.1567 26.9885C35.0401 27.1323 34.8948 27.2504 34.7302 27.3353C34.5656 27.4202 34.3851 27.47 34.2003 27.4816C34.0154 27.4932 33.8302 27.4663 33.6562 27.4027C33.4822 27.3391 33.3234 27.2401 33.1896 27.112C33.0559 26.9838 32.9501 26.8294 32.8791 26.6583C32.8081 26.4873 32.7733 26.3033 32.7769 26.1182C32.7806 25.933 32.8226 25.7506 32.9003 25.5824C32.978 25.4143 33.0897 25.2641 33.2284 25.1414C33.3482 25.0129 33.4926 24.9099 33.653 24.8384C33.8134 24.7669 33.9866 24.7284 34.1621 24.7252C34.5073 24.7248 34.8388 24.8596 35.0857 25.1008C35.2128 25.221 35.3142 25.3657 35.384 25.5262C35.4537 25.6866 35.4904 25.8595 35.4917 26.0345C35.5117 26.3826 35.3952 26.7249 35.1669 26.9885H35.1567ZM40.1501 20.3206C39.8646 20.0386 39.5154 19.8296 39.1321 19.7112C38.7487 19.5928 38.3424 19.5686 37.9477 19.6406L34.3042 20.28C32.3598 20.7909 30.5848 21.8062 29.1587 23.2232C28.3371 24.1175 27.5999 25.0858 26.9563 26.1157C23.0084 25.7604 19.3547 31.4845 19.2025 31.7788C19.1352 31.8888 19.0996 32.0152 19.0996 32.1442C19.0996 32.2731 19.1352 32.3996 19.2025 32.5095C19.2696 32.6217 19.3648 32.7144 19.4787 32.7785C19.5926 32.8426 19.7213 32.8758 19.852 32.8749H23.4955C23.4764 33.172 23.5229 33.4696 23.6316 33.7467C23.7403 34.0239 23.9087 34.2737 24.1248 34.4785L26.2256 36.4474C26.4892 36.703 26.8171 36.8824 27.1746 36.9664C27.532 37.0504 27.9056 37.0359 28.2554 36.9244L28.6309 40.7506C28.6454 40.8784 28.6934 41.0002 28.77 41.1035C28.8466 41.2069 28.9492 41.2882 29.0673 41.3392C29.1607 41.3779 29.2606 41.3985 29.3617 41.4001C29.5215 41.3995 29.6774 41.3499 29.8082 41.258C30.0518 41.0753 35.5323 36.9447 34.7914 33.1388C35.6741 32.5367 36.515 31.8755 37.3083 31.1597C38.7968 29.7009 39.8087 27.8257 40.211 25.7807L40.8605 22.462C40.9271 22.0742 40.8971 21.6759 40.7732 21.3024C40.6493 20.9289 40.4353 20.5917 40.1501 20.3206ZM23.9116 31.4845H21.2221C22.3487 29.952 24.1856 28.0034 25.9414 27.5974L25.1803 29.0893C24.7235 29.9621 24.3074 30.7639 23.9928 31.4135L23.9116 31.4845ZM30.001 39.2181L29.7372 36.4981L33.4213 34.2247C33.1574 36.0008 31.361 37.9799 30.001 39.2181ZM39.4498 22.1677L38.8002 25.5169C38.4468 27.2522 37.5889 28.8445 36.334 30.0941C33.7638 32.2243 30.9579 34.0529 27.9712 35.5441C27.8551 35.6025 27.7238 35.624 27.5951 35.6059C27.4664 35.5877 27.3462 35.5308 27.2507 35.4426L25.1498 33.4128C25.0571 33.3247 24.9944 33.2097 24.9707 33.084C24.947 32.9583 24.9635 32.8283 25.0179 32.7125L25.0889 32.5603C25.1036 32.5408 25.1172 32.5205 25.1295 32.4994L26.5402 29.7389C27.5526 27.757 28.8035 25.9063 30.2649 24.2279C31.4812 23.0232 32.9879 22.1527 34.6391 21.7008L38.2522 21.0614C38.4106 21.0339 38.5732 21.0444 38.7267 21.0921C38.8802 21.1397 39.0202 21.2231 39.1352 21.3355C39.2472 21.4402 39.3318 21.5709 39.3814 21.716C39.4309 21.8612 39.444 22.0163 39.4193 22.1677H39.4498Z" fill="#FF6F1E"/>
</svg>
