<svg width="36" height="66" viewBox="0 0 36 66" fill="none" xmlns="http://www.w3.org/2000/svg">
<rect x="0.5" y="0.5" width="35" height="35" rx="17.5" fill="#F9F9F9"/>
<rect x="0.5" y="0.5" width="35" height="35" rx="17.5" stroke="#DBDFE9"/>
<path opacity="0.1" fill-rule="evenodd" clip-rule="evenodd" d="M14.25 10.125C13.805 10.125 13.37 10.257 13 10.5042C12.6299 10.7514 12.3416 11.1028 12.1713 11.514C12.001 11.9251 11.9564 12.3775 12.0432 12.814C12.13 13.2504 12.3443 13.6513 12.659 13.966C12.9737 14.2807 13.3746 14.4949 13.811 14.5818C14.2475 14.6686 14.6999 14.624 15.111 14.4537C15.5222 14.2834 15.8736 13.995 16.1208 13.625C16.368 13.255 16.5 12.82 16.5 12.375C16.5 11.7783 16.2629 11.206 15.841 10.784C15.419 10.3621 14.8467 10.125 14.25 10.125ZM20.725 10.5042C21.095 10.257 21.53 10.125 21.975 10.125C22.5717 10.125 23.144 10.3621 23.566 10.784C23.9879 11.206 24.225 11.7783 24.225 12.375C24.225 12.82 24.093 13.255 23.8458 13.625C23.5986 13.995 23.2472 14.2834 22.836 14.4537C22.4249 14.624 21.9725 14.6686 21.536 14.5818C21.0996 14.4949 20.6987 14.2807 20.384 13.966C20.0693 13.6513 19.855 13.2504 19.7682 12.814C19.6814 12.3775 19.726 11.9251 19.8963 11.514C20.0666 11.1028 20.3549 10.7514 20.725 10.5042ZM18.15 15.6C17.705 15.6 17.27 15.732 16.8999 15.9792C16.5299 16.2265 16.2415 16.5779 16.0713 16.989C15.901 17.4001 15.8564 17.8525 15.9432 18.289C16.03 18.7254 16.2443 19.1264 16.559 19.441C16.8737 19.7557 17.2746 19.97 17.711 20.0568C18.1475 20.1436 18.5999 20.0991 19.011 19.9288C19.4222 19.7585 19.7736 19.4701 20.0208 19.1001C20.268 18.7301 20.4 18.295 20.4 17.85C20.4 17.2533 20.1629 16.681 19.741 16.259C19.319 15.8371 18.7467 15.6 18.15 15.6ZM18.1091 26.175C16.1577 26.175 14.625 25.1208 14.625 23.775C14.625 22.4292 16.1577 21.375 18.1091 21.375C20.0605 21.375 21.5932 22.4292 21.5932 23.775C21.5932 25.1208 20.0605 26.175 18.1091 26.175ZM21.8915 15.4702C24.0271 15.4702 25.7175 16.5315 25.7175 18.0019L25.725 17.994C25.5 19.4999 24 20.2499 21.8679 20.4597C21.7263 20.4597 21.5905 20.4002 21.4904 20.2944C21.3902 20.1885 21.334 20.045 21.334 19.8953L21.3595 19.8046C21.6847 18.6468 21.6828 17.4232 21.3563 16.269C21.3128 16.1154 21.2716 15.9509 21.334 15.804C21.3653 15.7302 21.4111 15.6644 21.4682 15.6107C21.5254 15.557 21.5927 15.5167 21.6657 15.4925C21.7386 15.4683 21.8156 15.4607 21.8915 15.4702ZM10.305 17.8964C10.305 16.434 11.9951 15.3194 14.1303 15.3194C14.2062 15.31 14.2832 15.3175 14.3561 15.3416C14.4291 15.3657 14.4963 15.4058 14.5535 15.4592C14.6106 15.5126 14.6564 15.5781 14.6877 15.6514C14.7191 15.7247 14.7353 15.8042 14.7353 15.8846L14.6119 16.188C14.1416 17.3445 14.169 18.6437 14.6877 19.7793C14.6877 19.9281 14.6315 20.0709 14.5314 20.1761C14.4313 20.2814 14.2955 20.3405 14.1539 20.3405C12.0222 20.1319 10.5225 19.3861 10.2975 17.8885L10.305 17.8964Z" fill="#78829D"/>
<path d="M18.1431 20.6684C17.576 20.6684 17.0216 20.5002 16.5501 20.1852C16.0786 19.8701 15.7111 19.4223 15.4941 18.8984C15.277 18.3745 15.2203 17.798 15.3309 17.2418C15.4415 16.6856 15.7146 16.1747 16.1156 15.7737C16.5166 15.3727 17.0275 15.0996 17.5837 14.989C18.1399 14.8784 18.7164 14.9351 19.2403 15.1522C19.7642 15.3692 20.212 15.7367 20.5271 16.2082C20.8421 16.6797 21.0103 17.2341 21.0103 17.8012C21.0103 18.1777 20.9361 18.5505 20.792 18.8984C20.648 19.2463 20.4368 19.5624 20.1705 19.8286C19.9043 20.0949 19.5882 20.3061 19.2403 20.4502C18.8924 20.5942 18.5196 20.6684 18.1431 20.6684ZM18.1431 15.9814C17.7831 15.9814 17.4313 16.0881 17.1321 16.2881C16.8328 16.488 16.5996 16.7722 16.4618 17.1048C16.3241 17.4373 16.288 17.8032 16.3583 18.1562C16.4285 18.5092 16.6018 18.8334 16.8563 19.0879C17.1108 19.3424 17.435 19.5157 17.788 19.5859C18.141 19.6562 18.5069 19.6201 18.8394 19.4824C19.172 19.3447 19.4562 19.1114 19.6561 18.8122C19.8561 18.5129 19.9628 18.1611 19.9628 17.8012C19.9628 17.3185 19.7711 16.8557 19.4298 16.5144C19.0885 16.1731 18.6257 15.9814 18.1431 15.9814ZM18.1431 26.25C16.1474 26.25 14.58 25.1719 14.58 23.7956C14.58 22.4193 16.1474 21.3413 18.1431 21.3413C20.1387 21.3413 21.7061 22.4193 21.7061 23.7956C21.7061 25.1719 20.1387 26.25 18.1431 26.25ZM18.1431 22.427C16.6827 22.427 15.6657 23.1457 15.6657 23.7956C15.6657 24.4455 16.6827 25.1643 18.1431 25.1643C19.6034 25.1643 20.6204 24.4379 20.6204 23.7956C20.6204 23.1534 19.6034 22.427 18.1431 22.427ZM21.9661 14.9339C21.4544 14.9294 20.9555 14.7735 20.5323 14.486C20.1091 14.1984 19.7804 13.792 19.5878 13.318C19.3951 12.844 19.347 12.3236 19.4496 11.8223C19.5522 11.321 19.8009 10.8613 20.1643 10.5011C20.5277 10.1409 20.9895 9.89632 21.4917 9.79815C21.9939 9.69999 22.5138 9.75264 22.9861 9.94948C23.4584 10.1463 23.8619 10.4785 24.1457 10.9043C24.4295 11.33 24.581 11.8302 24.581 12.3419C24.582 12.6829 24.5157 13.0208 24.3859 13.3362C24.2561 13.6515 24.0653 13.9382 23.8245 14.1797C23.5837 14.4212 23.2977 14.6128 22.9827 14.7435C22.6677 14.8742 22.33 14.9415 21.989 14.9415L21.9661 14.9339ZM21.9661 10.8356C21.6636 10.8356 21.368 10.9253 21.1165 11.0934C20.865 11.2614 20.669 11.5002 20.5533 11.7796C20.4375 12.0591 20.4072 12.3665 20.4662 12.6632C20.5252 12.9598 20.6709 13.2323 20.8847 13.4461C21.0986 13.66 21.3711 13.8057 21.6677 13.8647C21.9644 13.9237 22.2718 13.8934 22.5513 13.7776C22.8307 13.6619 23.0695 13.4659 23.2375 13.2144C23.4056 12.9629 23.4953 12.6673 23.4953 12.3648C23.4953 11.9632 23.3373 11.5777 23.0555 11.2916C22.7737 11.0054 22.3906 10.8417 21.989 10.8356H21.9661ZM14.2742 14.9415C13.7618 14.9415 13.261 14.7897 12.8349 14.5052C12.4088 14.2208 12.0766 13.8164 11.8802 13.3432C11.6838 12.87 11.632 12.3493 11.7314 11.8467C11.8308 11.3441 12.0769 10.8822 12.4387 10.5194C12.8004 10.1566 13.2615 9.90916 13.7638 9.80829C14.2661 9.70741 14.787 9.75765 15.2608 9.95266C15.7346 10.1477 16.1399 10.4787 16.4256 10.904C16.7114 11.3292 16.8647 11.8296 16.8662 12.3419C16.8672 12.6829 16.8009 13.0208 16.6711 13.3362C16.5413 13.6515 16.3505 13.9382 16.1097 14.1797C15.8689 14.4212 15.5828 14.6128 15.2679 14.7435C14.9529 14.8742 14.6152 14.9415 14.2742 14.9415ZM14.2742 10.8433C13.9717 10.8433 13.6761 10.933 13.4246 11.101C13.1731 11.269 12.9771 11.5079 12.8614 11.7873C12.7456 12.0667 12.7153 12.3742 12.7743 12.6708C12.8334 12.9675 12.979 13.2399 13.1929 13.4538C13.4067 13.6677 13.6792 13.8133 13.9758 13.8723C14.2725 13.9313 14.5799 13.901 14.8594 13.7853C15.1388 13.6695 15.3776 13.4735 15.5457 13.2221C15.7137 12.9706 15.8034 12.6749 15.8034 12.3725C15.8044 12.171 15.7656 11.9713 15.6892 11.7849C15.6128 11.5985 15.5003 11.429 15.3582 11.2862C15.2161 11.1434 15.0472 11.0301 14.8611 10.9528C14.6751 10.8754 14.4756 10.8356 14.2742 10.8356V10.8433ZM25.7432 17.9541C25.7432 16.5396 24.0381 15.4309 21.8667 15.4309C21.7894 15.4217 21.7112 15.4291 21.637 15.4524C21.5628 15.4756 21.4944 15.5144 21.4362 15.566C21.3781 15.6177 21.3316 15.6811 21.2997 15.752C21.2679 15.8229 21.2514 15.8998 21.2514 15.9776C21.2514 16.0553 21.2679 16.1322 21.2997 16.2032C21.3316 16.2741 21.3781 16.3375 21.4362 16.3891C21.4944 16.4408 21.5628 16.4795 21.637 16.5028C21.7112 16.5261 21.7894 16.5334 21.8667 16.5243C23.5029 16.5243 24.6498 17.2889 24.6498 17.9541C24.6498 18.6193 23.5029 19.3915 21.8667 19.3915C21.7227 19.3915 21.5846 19.4487 21.4828 19.5505C21.381 19.6523 21.3238 19.7904 21.3238 19.9344C21.3238 20.0784 21.381 20.2164 21.4828 20.3183C21.5846 20.4201 21.7227 20.4773 21.8667 20.4773C24.0458 20.4696 25.7508 19.3686 25.7508 17.9464L25.7432 17.9541ZM14.6871 19.8121C14.6871 19.7401 14.6728 19.6689 14.645 19.6025C14.6173 19.5362 14.5766 19.476 14.5254 19.4255C14.4741 19.375 14.4134 19.3351 14.3466 19.3083C14.2799 19.2815 14.2085 19.2682 14.1365 19.2692C12.5003 19.2692 11.3534 18.5046 11.3534 17.8317C11.3534 17.1589 12.5003 16.4019 14.1365 16.4019C14.2138 16.4111 14.292 16.4038 14.3662 16.3805C14.4404 16.3572 14.5088 16.3184 14.567 16.2668C14.6251 16.2151 14.6716 16.1517 14.7035 16.0808C14.7353 16.0099 14.7518 15.933 14.7518 15.8552C14.7518 15.7775 14.7353 15.7006 14.7035 15.6297C14.6716 15.5587 14.6251 15.4954 14.567 15.4437C14.5088 15.3921 14.4404 15.3533 14.3662 15.33C14.292 15.3067 14.2138 15.2994 14.1365 15.3086C11.9651 15.3086 10.26 16.4172 10.26 17.8317C10.26 19.2463 11.9651 20.3549 14.1365 20.3549C14.2085 20.3559 14.2799 20.3426 14.3466 20.3158C14.4134 20.289 14.4741 20.2492 14.5254 20.1986C14.5766 20.1481 14.6173 20.0879 14.645 20.0216C14.6728 19.9552 14.6871 19.884 14.6871 19.8121Z" fill="#78829D"/>
<rect width="1" height="30" transform="translate(17.5 36)" fill="#DBDFE9"/>
</svg>
