<svg width="18" height="18" viewBox="0 0 18 18" fill="none" xmlns="http://www.w3.org/2000/svg">
<path opacity="0.1" d="M9.40717 17.2951C8.3238 17.22 7.27862 16.8642 6.37439 16.2628C4.22961 14.9817 2.46684 13.1499 1.26908 10.9574C0.148796 8.76488 0.228816 7.11645 1.53315 5.91615C1.897 5.54329 2.38251 5.31331 2.9015 5.26798C3.17955 5.23611 3.4611 5.27771 3.71805 5.38864C3.97501 5.49956 4.19838 5.67593 4.36588 5.90014L5.89427 8.20473C5.94864 8.3516 5.98361 8.50493 5.9983 8.66085C6.04128 9.21815 5.55507 9.63292 5.10931 9.97016L4.87479 10.1476C5.5519 11.0783 6.55583 12.114 7.49979 12.7726C7.72444 12.5529 8.00009 12.2133 8.24979 12.0226C8.44266 11.8943 8.73389 11.7679 8.96469 11.7483C9.19549 11.7288 9.42751 11.7677 9.63923 11.8617L9.73526 11.9177L11.9678 13.4621C12.1162 13.6003 12.2503 13.7531 12.3679 13.9182C12.5412 14.2889 12.5725 14.7103 12.456 15.1025C12.3659 15.4552 12.2034 15.7853 11.9788 16.0719C11.7543 16.3584 11.4726 16.5951 11.1516 16.7669C10.6289 17.098 10.0258 17.2806 9.40717 17.2951Z" fill="#78829D"/>
<path fill-rule="evenodd" clip-rule="evenodd" d="M14.7275 14.3385C14.6458 14.3394 14.5647 14.3234 14.4895 14.2913C14.4143 14.2593 14.3465 14.212 14.2906 14.1524C14.1769 14.0386 14.1131 13.8844 14.1131 13.7235C14.1131 13.5627 14.1769 13.4084 14.2906 13.2946C14.9404 12.6779 15.4572 11.9348 15.8093 11.1109C16.1613 10.2871 16.3412 9.4 16.3379 8.50411C16.3358 6.75189 15.6415 5.07144 14.4063 3.82865C13.1711 2.58586 11.495 1.88137 9.74278 1.86857C8.83409 1.85843 7.93322 2.03736 7.09738 2.39398C6.26154 2.75061 5.50898 3.27714 4.8875 3.94015C4.77429 4.02834 4.63349 4.07356 4.4901 4.06778C4.3467 4.062 4.21 4.0056 4.10425 3.90858C3.9985 3.81156 3.93055 3.68021 3.91247 3.53785C3.89438 3.39548 3.92733 3.25131 4.00546 3.13094C5.08661 1.99374 6.48377 1.20667 8.01662 0.871312C9.54947 0.535955 11.1477 0.667704 12.6049 1.24955C14.0621 1.83141 15.3115 2.83665 16.1919 4.13555C17.0722 5.43444 17.543 6.96737 17.5436 8.53648C17.5472 9.59639 17.3337 10.6458 16.9162 11.62C16.4986 12.5943 15.886 13.4726 15.1159 14.201C15.0072 14.292 14.8693 14.3408 14.7275 14.3385ZM9.42934 9.01412H8.09414C8.90335 8.20491 9.55881 7.50899 9.55881 6.63504C9.56635 6.43828 9.53205 6.24217 9.45818 6.05965C9.38432 5.87713 9.27256 5.71235 9.13031 5.57622C8.98805 5.44008 8.81853 5.33567 8.63294 5.2699C8.44735 5.20412 8.24992 5.17847 8.05368 5.19464C7.56654 5.19314 7.09422 5.36204 6.71848 5.67208C6.68304 5.70383 6.65851 5.74593 6.64834 5.7924C6.63817 5.83888 6.64289 5.88738 6.66183 5.93103L6.84795 6.35991C6.85913 6.39134 6.87854 6.41918 6.90417 6.44054C6.92979 6.46189 6.96068 6.47597 6.99361 6.48129C7.02286 6.49447 7.05458 6.50128 7.08667 6.50128C7.11876 6.50128 7.15047 6.49447 7.17973 6.48129C7.39062 6.29475 7.65911 6.18621 7.94039 6.17379C8.02322 6.16184 8.10769 6.16923 8.18719 6.19538C8.26669 6.22153 8.33905 6.26572 8.39862 6.3245C8.45819 6.38329 8.50334 6.45506 8.53054 6.53421C8.55773 6.61335 8.56624 6.69772 8.55539 6.7807C8.55539 7.31478 8.11032 7.82458 7.05025 8.8361L6.60519 9.27307C6.58261 9.29187 6.5644 9.31537 6.55183 9.34192C6.53925 9.36847 6.53261 9.39744 6.53236 9.42682V9.77479C6.53437 9.83209 6.55804 9.8865 6.59858 9.92705C6.63913 9.96759 6.69354 9.99126 6.75085 9.99327H9.44552C9.50347 9.99327 9.55904 9.97025 9.60002 9.92928C9.64099 9.8883 9.66401 9.83273 9.66401 9.77479V9.30544C9.67609 9.27147 9.67957 9.23504 9.67415 9.19939C9.66873 9.16375 9.65457 9.13 9.63294 9.10115C9.61131 9.07231 9.58287 9.04927 9.55017 9.03408C9.51747 9.0189 9.48152 9.01204 9.44552 9.01412H9.42934ZM13.6939 7.88932H13.3217V5.46168C13.3167 5.41319 13.2957 5.36773 13.262 5.33254C13.2283 5.29735 13.1838 5.27445 13.1355 5.26747H12.5124C12.4779 5.26778 12.444 5.27596 12.4131 5.29138C12.3823 5.30681 12.3554 5.32908 12.3344 5.35649L10.457 8.05116C10.4315 8.0896 10.4175 8.13451 10.4166 8.18064V8.55287C10.4166 8.61082 10.4396 8.66639 10.4806 8.70737C10.5215 8.74834 10.5771 8.77136 10.6351 8.77136H12.3263V9.70196C12.3263 9.7599 12.3493 9.81548 12.3903 9.85645C12.4313 9.89742 12.4869 9.92044 12.5448 9.92044H13.1355C13.1935 9.92044 13.2491 9.89742 13.29 9.85645C13.331 9.81548 13.354 9.7599 13.354 9.70196V8.78755H13.7263C13.7842 8.78755 13.8398 8.76453 13.8808 8.72355C13.9217 8.68258 13.9447 8.627 13.9447 8.56906V8.12399C13.9472 8.09256 13.9428 8.06096 13.9318 8.03139C13.9209 8.00182 13.9037 7.97496 13.8814 7.95266C13.8591 7.93037 13.8322 7.91316 13.8027 7.90223C13.7731 7.89129 13.7415 7.88689 13.7101 7.88932H13.6939ZM12.3425 7.88932H11.598L12.3263 6.84544L12.3425 7.88932ZM6.41087 16.2645C7.32528 16.8727 8.38222 17.2325 9.47779 17.3084C10.1034 17.2938 10.7132 17.1092 11.2419 16.7743C11.5664 16.6006 11.8513 16.3612 12.0784 16.0714C12.3055 15.7817 12.4698 15.4478 12.5609 15.0912C12.6787 14.6945 12.6471 14.2684 12.4719 13.8935C12.3529 13.7265 12.2173 13.572 12.0673 13.4323L9.80956 11.8705L9.71246 11.8138C9.49835 11.7189 9.26372 11.6794 9.03033 11.6992C8.79693 11.719 8.5723 11.7974 8.37726 11.9271C8.12475 12.12 7.88424 12.3281 7.65706 12.5502C6.70248 11.8843 5.86561 11.0638 5.18087 10.1226L5.81205 9.38621C5.97552 9.14951 6.05266 8.86381 6.03054 8.577C6.01569 8.41933 5.98032 8.26427 5.92534 8.11575L4.37975 5.78521C4.21036 5.55848 3.98448 5.38013 3.72463 5.26795C3.46479 5.15578 3.18007 5.11371 2.89889 5.14594C2.37406 5.19178 1.88308 5.42435 1.51514 5.8014C0.196122 7.01522 0.1152 8.68219 1.2481 10.8994C2.45934 13.1165 4.24195 14.969 6.41087 16.2645ZM2.73257 6.42757C2.87155 6.36503 3.02166 6.33096 3.17402 6.32739C3.25417 6.35527 3.32446 6.40588 3.37633 6.47304L4.89764 8.60937C4.89247 8.62789 4.89247 8.64748 4.89764 8.66601C4.89764 8.66601 4.36356 9.2972 4.20172 9.47522C4.0596 9.61188 3.96786 9.79259 3.94142 9.98798C3.91497 10.1834 3.95538 10.382 4.05606 10.5515C4.89808 11.8439 6.00053 12.9463 7.29291 13.7883C7.46782 13.8799 7.66803 13.9113 7.86258 13.8776C8.05712 13.844 8.23516 13.7472 8.36916 13.6022C8.39156 13.5812 8.42147 13.5527 8.45675 13.5191C8.62539 13.3583 8.91677 13.0806 9.09746 12.9467H9.18647L11.3309 14.379L11.4684 14.5247C11.4685 14.7874 11.392 15.0444 11.2483 15.2643C11.1045 15.4842 10.8999 15.6574 10.6592 15.7628C9.68818 16.3212 8.74949 16.1755 7.05015 15.2044C5.08377 14.0323 3.46623 12.356 2.36481 10.3492C1.23191 8.15621 1.77409 7.2418 2.36481 6.69153C2.46854 6.57987 2.59358 6.49011 2.73257 6.42757Z" fill="#78829D"/>
</svg>
