<svg width="14" height="14" viewBox="0 0 14 14" fill="none" xmlns="http://www.w3.org/2000/svg">
<path d="M7.82257 7.00005L9.91674 4.92338C10.0281 4.81044 10.0901 4.65788 10.089 4.49926C10.0879 4.34063 10.0238 4.18894 9.91091 4.07755C9.79797 3.96616 9.64541 3.90419 9.48678 3.90529C9.32816 3.90638 9.17647 3.97044 9.06507 4.08338L7.00007 6.17755L4.93507 4.12422C4.82578 4.01557 4.67793 3.95459 4.52382 3.95459C4.36972 3.95459 4.22187 4.01557 4.11257 4.12422C4.0579 4.17844 4.0145 4.24296 3.98489 4.31405C3.95527 4.38513 3.94003 4.46138 3.94003 4.53838C3.94003 4.61539 3.95527 4.69163 3.98489 4.76272C4.0145 4.8338 4.0579 4.89832 4.11257 4.95255L6.17757 7.00005L4.08341 9.07672C3.97202 9.18965 3.91005 9.34222 3.91115 9.50084C3.91224 9.65946 3.9763 9.81116 4.08924 9.92255C4.20218 10.0339 4.35474 10.0959 4.51337 10.0948C4.67199 10.0937 4.82368 10.0297 4.93507 9.91672L7.00007 7.82255L9.06507 9.87588C9.17437 9.98453 9.32222 10.0455 9.47633 10.0455C9.63043 10.0455 9.77828 9.98453 9.88758 9.87588C9.94225 9.82165 9.98565 9.75714 10.0153 9.68605C10.0449 9.61497 10.0601 9.53872 10.0601 9.46171C10.0601 9.38471 10.0449 9.30846 10.0153 9.23738C9.98565 9.16629 9.94225 9.10178 9.88758 9.04755L7.82257 7.00005Z" fill="#99A1B7"/>
</svg>
